G04 #@! TF.GenerationSoftware,KiCad,Pcbnew,(5.1.10)-1*
G04 #@! TF.CreationDate,2021-07-09T15:56:30+09:00*
G04 #@! TF.ProjectId,esp_flasher,6573705f-666c-4617-9368-65722e6b6963,rev?*
G04 #@! TF.SameCoordinates,Original*
G04 #@! TF.FileFunction,Legend,Top*
G04 #@! TF.FilePolarity,Positive*
%FSLAX46Y46*%
G04 Gerber Fmt 4.6, Leading zero omitted, Abs format (unit mm)*
G04 Created by KiCad (PCBNEW (5.1.10)-1) date 2021-07-09 15:56:30*
%MOMM*%
%LPD*%
G01*
G04 APERTURE LIST*
%ADD10C,0.150000*%
%ADD11C,0.120000*%
G04 APERTURE END LIST*
D10*
X3761904Y-4928571D02*
X4095238Y-4928571D01*
X4238095Y-5452380D02*
X3761904Y-5452380D01*
X3761904Y-4452380D01*
X4238095Y-4452380D01*
X4666666Y-5452380D02*
X4666666Y-4452380D01*
X5238095Y-5452380D01*
X5238095Y-4452380D01*
X3142857Y-14928571D02*
X3285714Y-14976190D01*
X3333333Y-15023809D01*
X3380952Y-15119047D01*
X3380952Y-15261904D01*
X3333333Y-15357142D01*
X3285714Y-15404761D01*
X3190476Y-15452380D01*
X2809523Y-15452380D01*
X2809523Y-14452380D01*
X3142857Y-14452380D01*
X3238095Y-14500000D01*
X3285714Y-14547619D01*
X3333333Y-14642857D01*
X3333333Y-14738095D01*
X3285714Y-14833333D01*
X3238095Y-14880952D01*
X3142857Y-14928571D01*
X2809523Y-14928571D01*
X4000000Y-14452380D02*
X4190476Y-14452380D01*
X4285714Y-14500000D01*
X4380952Y-14595238D01*
X4428571Y-14785714D01*
X4428571Y-15119047D01*
X4380952Y-15309523D01*
X4285714Y-15404761D01*
X4190476Y-15452380D01*
X4000000Y-15452380D01*
X3904761Y-15404761D01*
X3809523Y-15309523D01*
X3761904Y-15119047D01*
X3761904Y-14785714D01*
X3809523Y-14595238D01*
X3904761Y-14500000D01*
X4000000Y-14452380D01*
X5047619Y-14452380D02*
X5238095Y-14452380D01*
X5333333Y-14500000D01*
X5428571Y-14595238D01*
X5476190Y-14785714D01*
X5476190Y-15119047D01*
X5428571Y-15309523D01*
X5333333Y-15404761D01*
X5238095Y-15452380D01*
X5047619Y-15452380D01*
X4952380Y-15404761D01*
X4857142Y-15309523D01*
X4809523Y-15119047D01*
X4809523Y-14785714D01*
X4857142Y-14595238D01*
X4952380Y-14500000D01*
X5047619Y-14452380D01*
X5761904Y-14452380D02*
X6333333Y-14452380D01*
X6047619Y-15452380D02*
X6047619Y-14452380D01*
D11*
X12353733Y-1510000D02*
X12646267Y-1510000D01*
X12353733Y-490000D02*
X12646267Y-490000D01*
X12353733Y-19510000D02*
X12646267Y-19510000D01*
X12353733Y-18490000D02*
X12646267Y-18490000D01*
X5110000Y-8240000D02*
X4720000Y-8240000D01*
X5110000Y-8240000D02*
X5110000Y-8690000D01*
X4410000Y-13810000D02*
X4410000Y-13160000D01*
X2680000Y-13810000D02*
X4410000Y-13810000D01*
X110000Y-6190000D02*
X320000Y-6190000D01*
X110000Y-13810000D02*
X320000Y-13810000D01*
X2680000Y-6190000D02*
X4410000Y-6190000D01*
X4410000Y-6190000D02*
X4410000Y-6850000D01*
X21610000Y-14115000D02*
X21610000Y-13390000D01*
X16390000Y-18610000D02*
X17115000Y-18610000D01*
X16390000Y-17885000D02*
X16390000Y-18610000D01*
X16390000Y-13390000D02*
X17115000Y-13390000D01*
X16390000Y-14115000D02*
X16390000Y-13390000D01*
X21610000Y-18610000D02*
X20885000Y-18610000D01*
X21610000Y-17885000D02*
X21610000Y-18610000D01*
X16400000Y-1590000D02*
X22410000Y-1590000D01*
X18650000Y-8410000D02*
X22410000Y-8410000D01*
X22410000Y-1590000D02*
X22410000Y-2850000D01*
X22410000Y-8410000D02*
X22410000Y-7150000D01*
X32477500Y-16332776D02*
X32477500Y-16842224D01*
X33522500Y-16332776D02*
X33522500Y-16842224D01*
X29477500Y-12745276D02*
X29477500Y-13254724D01*
X30522500Y-12745276D02*
X30522500Y-13254724D01*
X32477500Y-12745276D02*
X32477500Y-13254724D01*
X33522500Y-12745276D02*
X33522500Y-13254724D01*
X29477500Y-16245276D02*
X29477500Y-16754724D01*
X30522500Y-16245276D02*
X30522500Y-16754724D01*
X31745276Y-7022500D02*
X32254724Y-7022500D01*
X31745276Y-5977500D02*
X32254724Y-5977500D01*
X31745276Y-4522500D02*
X32254724Y-4522500D01*
X31745276Y-3477500D02*
X32254724Y-3477500D01*
X12245276Y-15522500D02*
X12754724Y-15522500D01*
X12245276Y-14477500D02*
X12754724Y-14477500D01*
X12245276Y-13522500D02*
X12754724Y-13522500D01*
X12245276Y-12477500D02*
X12754724Y-12477500D01*
X12245276Y-17522500D02*
X12754724Y-17522500D01*
X12245276Y-16477500D02*
X12754724Y-16477500D01*
X21745276Y-11022500D02*
X22254724Y-11022500D01*
X21745276Y-9977500D02*
X22254724Y-9977500D01*
X31745276Y-2022500D02*
X32254724Y-2022500D01*
X31745276Y-977500D02*
X32254724Y-977500D01*
X28080000Y-12240000D02*
X28080000Y-13700000D01*
X24920000Y-12240000D02*
X24920000Y-14400000D01*
X24920000Y-12240000D02*
X25850000Y-12240000D01*
X28080000Y-12240000D02*
X27150000Y-12240000D01*
X28080000Y-15740000D02*
X28080000Y-17200000D01*
X24920000Y-15740000D02*
X24920000Y-17900000D01*
X24920000Y-15740000D02*
X25850000Y-15740000D01*
X28080000Y-15740000D02*
X27150000Y-15740000D01*
X7600000Y-650000D02*
X1400000Y-650000D01*
X1400000Y-4350000D02*
X7600000Y-4350000D01*
X7600000Y-4350000D02*
X7600000Y-3700000D01*
X7600000Y-1300000D02*
X7600000Y-650000D01*
X1400000Y-650000D02*
X1400000Y-1300000D01*
X1400000Y-4350000D02*
X1400000Y-3700000D01*
X7600000Y-15650000D02*
X1400000Y-15650000D01*
X1400000Y-19350000D02*
X7600000Y-19350000D01*
X7600000Y-19350000D02*
X7600000Y-18700000D01*
X7600000Y-16300000D02*
X7600000Y-15650000D01*
X1400000Y-15650000D02*
X1400000Y-16300000D01*
X1400000Y-19350000D02*
X1400000Y-18700000D01*
X37390000Y-17360000D02*
X38640000Y-17360000D01*
X37390000Y-16110000D02*
X37390000Y-17360000D01*
X41800000Y-6000000D02*
X41300000Y-6000000D01*
X41300000Y-5900000D02*
X41800000Y-5900000D01*
X41300000Y-6100000D02*
X41300000Y-5900000D01*
X41800000Y-6100000D02*
X41300000Y-6100000D01*
X41800000Y-8000000D02*
X41300000Y-8000000D01*
X41300000Y-7900000D02*
X41800000Y-7900000D01*
X41300000Y-8100000D02*
X41300000Y-7900000D01*
X41800000Y-8100000D02*
X41300000Y-8100000D01*
X41800000Y-10000000D02*
X41300000Y-10000000D01*
X41300000Y-9900000D02*
X41800000Y-9900000D01*
X41300000Y-10100000D02*
X41300000Y-9900000D01*
X41800000Y-10100000D02*
X41300000Y-10100000D01*
X41800000Y-12000000D02*
X41300000Y-12000000D01*
X41300000Y-11900000D02*
X41800000Y-11900000D01*
X41300000Y-12100000D02*
X41300000Y-11900000D01*
X41800000Y-12100000D02*
X41300000Y-12100000D01*
X41800000Y-14000000D02*
X41300000Y-14000000D01*
X41300000Y-13900000D02*
X41800000Y-13900000D01*
X41300000Y-14100000D02*
X41300000Y-13900000D01*
X41800000Y-14100000D02*
X41300000Y-14100000D01*
X40300000Y-2940000D02*
X40300000Y-3550000D01*
X39000000Y-2940000D02*
X39000000Y-3550000D01*
X40300000Y-17060000D02*
X40300000Y-16450000D01*
X39000000Y-17060000D02*
X39000000Y-16450000D01*
X38300000Y-5500000D02*
X37690000Y-5500000D01*
X38300000Y-3550000D02*
X38300000Y-5500000D01*
X41800000Y-3550000D02*
X38300000Y-3550000D01*
X41800000Y-16450000D02*
X41800000Y-3550000D01*
X38300000Y-16450000D02*
X41800000Y-16450000D01*
X38300000Y-14500000D02*
X38300000Y-16450000D01*
X37690000Y-14500000D02*
X38300000Y-14500000D01*
X37590000Y-15300000D02*
X37590000Y-15600000D01*
X37490000Y-15600000D02*
X37690000Y-15600000D01*
X37490000Y-15300000D02*
X37490000Y-15600000D01*
X37690000Y-15300000D02*
X37490000Y-15300000D01*
X37690000Y-2940000D02*
X37690000Y-17060000D01*
X42410000Y-2940000D02*
X37690000Y-2940000D01*
X42410000Y-17060000D02*
X42410000Y-2940000D01*
X37690000Y-17060000D02*
X42410000Y-17060000D01*
X29885000Y-5540000D02*
X27025000Y-5540000D01*
X29885000Y-7460000D02*
X29885000Y-5540000D01*
X27025000Y-7460000D02*
X29885000Y-7460000D01*
X29860000Y-3040000D02*
X27000000Y-3040000D01*
X29860000Y-4960000D02*
X29860000Y-3040000D01*
X27000000Y-4960000D02*
X29860000Y-4960000D01*
X10950000Y-8300000D02*
X10950000Y-11250000D01*
X14050000Y-10700000D02*
X14050000Y-8300000D01*
X29860000Y-540000D02*
X27000000Y-540000D01*
X29860000Y-2460000D02*
X29860000Y-540000D01*
X27000000Y-2460000D02*
X29860000Y-2460000D01*
X12010000Y-5146267D02*
X12010000Y-4853733D01*
X10990000Y-5146267D02*
X10990000Y-4853733D01*
X18146267Y-9990000D02*
X17853733Y-9990000D01*
X18146267Y-11010000D02*
X17853733Y-11010000D01*
X25690000Y-10435000D02*
X29600000Y-10435000D01*
X25690000Y-8565000D02*
X25690000Y-10435000D01*
X29600000Y-8565000D02*
X25690000Y-8565000D01*
X14935000Y-6810000D02*
X14935000Y-2900000D01*
X13065000Y-6810000D02*
X14935000Y-6810000D01*
X13065000Y-2900000D02*
X13065000Y-6810000D01*
D10*
X10357142Y-1166666D02*
X10404761Y-1214285D01*
X10452380Y-1357142D01*
X10452380Y-1452380D01*
X10404761Y-1595238D01*
X10309523Y-1690476D01*
X10214285Y-1738095D01*
X10023809Y-1785714D01*
X9880952Y-1785714D01*
X9690476Y-1738095D01*
X9595238Y-1690476D01*
X9500000Y-1595238D01*
X9452380Y-1452380D01*
X9452380Y-1357142D01*
X9500000Y-1214285D01*
X9547619Y-1166666D01*
X9452380Y-309523D02*
X9452380Y-499999D01*
X9500000Y-595238D01*
X9547619Y-642857D01*
X9690476Y-738095D01*
X9880952Y-785714D01*
X10261904Y-785714D01*
X10357142Y-738095D01*
X10404761Y-690476D01*
X10452380Y-595238D01*
X10452380Y-404761D01*
X10404761Y-309523D01*
X10357142Y-261904D01*
X10261904Y-214285D01*
X10023809Y-214285D01*
X9928571Y-261904D01*
X9880952Y-309523D01*
X9833333Y-404761D01*
X9833333Y-595238D01*
X9880952Y-690476D01*
X9928571Y-738095D01*
X10023809Y-785714D01*
X10357142Y-19166666D02*
X10404761Y-19214285D01*
X10452380Y-19357142D01*
X10452380Y-19452380D01*
X10404761Y-19595238D01*
X10309523Y-19690476D01*
X10214285Y-19738095D01*
X10023809Y-19785714D01*
X9880952Y-19785714D01*
X9690476Y-19738095D01*
X9595238Y-19690476D01*
X9500000Y-19595238D01*
X9452380Y-19452380D01*
X9452380Y-19357142D01*
X9500000Y-19214285D01*
X9547619Y-19166666D01*
X9452380Y-18261904D02*
X9452380Y-18738095D01*
X9928571Y-18785714D01*
X9880952Y-18738095D01*
X9833333Y-18642857D01*
X9833333Y-18404761D01*
X9880952Y-18309523D01*
X9928571Y-18261904D01*
X10023809Y-18214285D01*
X10261904Y-18214285D01*
X10357142Y-18261904D01*
X10404761Y-18309523D01*
X10452380Y-18404761D01*
X10452380Y-18642857D01*
X10404761Y-18738095D01*
X10357142Y-18785714D01*
X5452380Y-10333333D02*
X6166666Y-10333333D01*
X6309523Y-10380952D01*
X6404761Y-10476190D01*
X6452380Y-10619047D01*
X6452380Y-10714285D01*
X6452380Y-9333333D02*
X6452380Y-9904761D01*
X6452380Y-9619047D02*
X5452380Y-9619047D01*
X5595238Y-9714285D01*
X5690476Y-9809523D01*
X5738095Y-9904761D01*
X14452380Y-16761904D02*
X15261904Y-16761904D01*
X15357142Y-16714285D01*
X15404761Y-16666666D01*
X15452380Y-16571428D01*
X15452380Y-16380952D01*
X15404761Y-16285714D01*
X15357142Y-16238095D01*
X15261904Y-16190476D01*
X14452380Y-16190476D01*
X14547619Y-15761904D02*
X14500000Y-15714285D01*
X14452380Y-15619047D01*
X14452380Y-15380952D01*
X14500000Y-15285714D01*
X14547619Y-15238095D01*
X14642857Y-15190476D01*
X14738095Y-15190476D01*
X14880952Y-15238095D01*
X15452380Y-15809523D01*
X15452380Y-15190476D01*
X23238095Y-1452380D02*
X23238095Y-2261904D01*
X23285714Y-2357142D01*
X23333333Y-2404761D01*
X23428571Y-2452380D01*
X23619047Y-2452380D01*
X23714285Y-2404761D01*
X23761904Y-2357142D01*
X23809523Y-2261904D01*
X23809523Y-1452380D01*
X24809523Y-2452380D02*
X24238095Y-2452380D01*
X24523809Y-2452380D02*
X24523809Y-1452380D01*
X24428571Y-1595238D01*
X24333333Y-1690476D01*
X24238095Y-1738095D01*
X34882380Y-17230357D02*
X34406190Y-17563690D01*
X34882380Y-17801785D02*
X33882380Y-17801785D01*
X33882380Y-17420833D01*
X33930000Y-17325595D01*
X33977619Y-17277976D01*
X34072857Y-17230357D01*
X34215714Y-17230357D01*
X34310952Y-17277976D01*
X34358571Y-17325595D01*
X34406190Y-17420833D01*
X34406190Y-17801785D01*
X34882380Y-16277976D02*
X34882380Y-16849404D01*
X34882380Y-16563690D02*
X33882380Y-16563690D01*
X34025238Y-16658928D01*
X34120476Y-16754166D01*
X34168095Y-16849404D01*
X34882380Y-15325595D02*
X34882380Y-15897023D01*
X34882380Y-15611309D02*
X33882380Y-15611309D01*
X34025238Y-15706547D01*
X34120476Y-15801785D01*
X34168095Y-15897023D01*
X31882380Y-13642857D02*
X31406190Y-13976190D01*
X31882380Y-14214285D02*
X30882380Y-14214285D01*
X30882380Y-13833333D01*
X30930000Y-13738095D01*
X30977619Y-13690476D01*
X31072857Y-13642857D01*
X31215714Y-13642857D01*
X31310952Y-13690476D01*
X31358571Y-13738095D01*
X31406190Y-13833333D01*
X31406190Y-14214285D01*
X31882380Y-12690476D02*
X31882380Y-13261904D01*
X31882380Y-12976190D02*
X30882380Y-12976190D01*
X31025238Y-13071428D01*
X31120476Y-13166666D01*
X31168095Y-13261904D01*
X30882380Y-12071428D02*
X30882380Y-11976190D01*
X30930000Y-11880952D01*
X30977619Y-11833333D01*
X31072857Y-11785714D01*
X31263333Y-11738095D01*
X31501428Y-11738095D01*
X31691904Y-11785714D01*
X31787142Y-11833333D01*
X31834761Y-11880952D01*
X31882380Y-11976190D01*
X31882380Y-12071428D01*
X31834761Y-12166666D01*
X31787142Y-12214285D01*
X31691904Y-12261904D01*
X31501428Y-12309523D01*
X31263333Y-12309523D01*
X31072857Y-12261904D01*
X30977619Y-12214285D01*
X30930000Y-12166666D01*
X30882380Y-12071428D01*
X34952380Y-13166666D02*
X34476190Y-13500000D01*
X34952380Y-13738095D02*
X33952380Y-13738095D01*
X33952380Y-13357142D01*
X34000000Y-13261904D01*
X34047619Y-13214285D01*
X34142857Y-13166666D01*
X34285714Y-13166666D01*
X34380952Y-13214285D01*
X34428571Y-13261904D01*
X34476190Y-13357142D01*
X34476190Y-13738095D01*
X34952380Y-12690476D02*
X34952380Y-12500000D01*
X34904761Y-12404761D01*
X34857142Y-12357142D01*
X34714285Y-12261904D01*
X34523809Y-12214285D01*
X34142857Y-12214285D01*
X34047619Y-12261904D01*
X34000000Y-12309523D01*
X33952380Y-12404761D01*
X33952380Y-12595238D01*
X34000000Y-12690476D01*
X34047619Y-12738095D01*
X34142857Y-12785714D01*
X34380952Y-12785714D01*
X34476190Y-12738095D01*
X34523809Y-12690476D01*
X34571428Y-12595238D01*
X34571428Y-12404761D01*
X34523809Y-12309523D01*
X34476190Y-12261904D01*
X34380952Y-12214285D01*
X31952380Y-16666666D02*
X31476190Y-17000000D01*
X31952380Y-17238095D02*
X30952380Y-17238095D01*
X30952380Y-16857142D01*
X31000000Y-16761904D01*
X31047619Y-16714285D01*
X31142857Y-16666666D01*
X31285714Y-16666666D01*
X31380952Y-16714285D01*
X31428571Y-16761904D01*
X31476190Y-16857142D01*
X31476190Y-17238095D01*
X31380952Y-16095238D02*
X31333333Y-16190476D01*
X31285714Y-16238095D01*
X31190476Y-16285714D01*
X31142857Y-16285714D01*
X31047619Y-16238095D01*
X31000000Y-16190476D01*
X30952380Y-16095238D01*
X30952380Y-15904761D01*
X31000000Y-15809523D01*
X31047619Y-15761904D01*
X31142857Y-15714285D01*
X31190476Y-15714285D01*
X31285714Y-15761904D01*
X31333333Y-15809523D01*
X31380952Y-15904761D01*
X31380952Y-16095238D01*
X31428571Y-16190476D01*
X31476190Y-16238095D01*
X31571428Y-16285714D01*
X31761904Y-16285714D01*
X31857142Y-16238095D01*
X31904761Y-16190476D01*
X31952380Y-16095238D01*
X31952380Y-15904761D01*
X31904761Y-15809523D01*
X31857142Y-15761904D01*
X31761904Y-15714285D01*
X31571428Y-15714285D01*
X31476190Y-15761904D01*
X31428571Y-15809523D01*
X31380952Y-15904761D01*
X36333333Y-6952380D02*
X36000000Y-6476190D01*
X35761904Y-6952380D02*
X35761904Y-5952380D01*
X36142857Y-5952380D01*
X36238095Y-6000000D01*
X36285714Y-6047619D01*
X36333333Y-6142857D01*
X36333333Y-6285714D01*
X36285714Y-6380952D01*
X36238095Y-6428571D01*
X36142857Y-6476190D01*
X35761904Y-6476190D01*
X36666666Y-5952380D02*
X37333333Y-5952380D01*
X36904761Y-6952380D01*
X36333333Y-4452380D02*
X36000000Y-3976190D01*
X35761904Y-4452380D02*
X35761904Y-3452380D01*
X36142857Y-3452380D01*
X36238095Y-3500000D01*
X36285714Y-3547619D01*
X36333333Y-3642857D01*
X36333333Y-3785714D01*
X36285714Y-3880952D01*
X36238095Y-3928571D01*
X36142857Y-3976190D01*
X35761904Y-3976190D01*
X37190476Y-3452380D02*
X37000000Y-3452380D01*
X36904761Y-3500000D01*
X36857142Y-3547619D01*
X36761904Y-3690476D01*
X36714285Y-3880952D01*
X36714285Y-4261904D01*
X36761904Y-4357142D01*
X36809523Y-4404761D01*
X36904761Y-4452380D01*
X37095238Y-4452380D01*
X37190476Y-4404761D01*
X37238095Y-4357142D01*
X37285714Y-4261904D01*
X37285714Y-4023809D01*
X37238095Y-3928571D01*
X37190476Y-3880952D01*
X37095238Y-3833333D01*
X36904761Y-3833333D01*
X36809523Y-3880952D01*
X36761904Y-3928571D01*
X36714285Y-4023809D01*
X10452380Y-15166666D02*
X9976190Y-15500000D01*
X10452380Y-15738095D02*
X9452380Y-15738095D01*
X9452380Y-15357142D01*
X9500000Y-15261904D01*
X9547619Y-15214285D01*
X9642857Y-15166666D01*
X9785714Y-15166666D01*
X9880952Y-15214285D01*
X9928571Y-15261904D01*
X9976190Y-15357142D01*
X9976190Y-15738095D01*
X9452380Y-14261904D02*
X9452380Y-14738095D01*
X9928571Y-14785714D01*
X9880952Y-14738095D01*
X9833333Y-14642857D01*
X9833333Y-14404761D01*
X9880952Y-14309523D01*
X9928571Y-14261904D01*
X10023809Y-14214285D01*
X10261904Y-14214285D01*
X10357142Y-14261904D01*
X10404761Y-14309523D01*
X10452380Y-14404761D01*
X10452380Y-14642857D01*
X10404761Y-14738095D01*
X10357142Y-14785714D01*
X10452380Y-13166666D02*
X9976190Y-13500000D01*
X10452380Y-13738095D02*
X9452380Y-13738095D01*
X9452380Y-13357142D01*
X9500000Y-13261904D01*
X9547619Y-13214285D01*
X9642857Y-13166666D01*
X9785714Y-13166666D01*
X9880952Y-13214285D01*
X9928571Y-13261904D01*
X9976190Y-13357142D01*
X9976190Y-13738095D01*
X9785714Y-12309523D02*
X10452380Y-12309523D01*
X9404761Y-12547619D02*
X10119047Y-12785714D01*
X10119047Y-12166666D01*
X10364880Y-17166666D02*
X9888690Y-17500000D01*
X10364880Y-17738095D02*
X9364880Y-17738095D01*
X9364880Y-17357142D01*
X9412500Y-17261904D01*
X9460119Y-17214285D01*
X9555357Y-17166666D01*
X9698214Y-17166666D01*
X9793452Y-17214285D01*
X9841071Y-17261904D01*
X9888690Y-17357142D01*
X9888690Y-17738095D01*
X9364880Y-16833333D02*
X9364880Y-16214285D01*
X9745833Y-16547619D01*
X9745833Y-16404761D01*
X9793452Y-16309523D01*
X9841071Y-16261904D01*
X9936309Y-16214285D01*
X10174404Y-16214285D01*
X10269642Y-16261904D01*
X10317261Y-16309523D01*
X10364880Y-16404761D01*
X10364880Y-16690476D01*
X10317261Y-16785714D01*
X10269642Y-16833333D01*
X24333333Y-10952380D02*
X24000000Y-10476190D01*
X23761904Y-10952380D02*
X23761904Y-9952380D01*
X24142857Y-9952380D01*
X24238095Y-10000000D01*
X24285714Y-10047619D01*
X24333333Y-10142857D01*
X24333333Y-10285714D01*
X24285714Y-10380952D01*
X24238095Y-10428571D01*
X24142857Y-10476190D01*
X23761904Y-10476190D01*
X24714285Y-10047619D02*
X24761904Y-10000000D01*
X24857142Y-9952380D01*
X25095238Y-9952380D01*
X25190476Y-10000000D01*
X25238095Y-10047619D01*
X25285714Y-10142857D01*
X25285714Y-10238095D01*
X25238095Y-10380952D01*
X24666666Y-10952380D01*
X25285714Y-10952380D01*
X36333333Y-1952380D02*
X36000000Y-1476190D01*
X35761904Y-1952380D02*
X35761904Y-952380D01*
X36142857Y-952380D01*
X36238095Y-1000000D01*
X36285714Y-1047619D01*
X36333333Y-1142857D01*
X36333333Y-1285714D01*
X36285714Y-1380952D01*
X36238095Y-1428571D01*
X36142857Y-1476190D01*
X35761904Y-1476190D01*
X37285714Y-1952380D02*
X36714285Y-1952380D01*
X37000000Y-1952380D02*
X37000000Y-952380D01*
X36904761Y-1095238D01*
X36809523Y-1190476D01*
X36714285Y-1238095D01*
X24547619Y-13095238D02*
X24500000Y-13190476D01*
X24404761Y-13285714D01*
X24261904Y-13428571D01*
X24214285Y-13523809D01*
X24214285Y-13619047D01*
X24452380Y-13571428D02*
X24404761Y-13666666D01*
X24309523Y-13761904D01*
X24119047Y-13809523D01*
X23785714Y-13809523D01*
X23595238Y-13761904D01*
X23500000Y-13666666D01*
X23452380Y-13571428D01*
X23452380Y-13380952D01*
X23500000Y-13285714D01*
X23595238Y-13190476D01*
X23785714Y-13142857D01*
X24119047Y-13142857D01*
X24309523Y-13190476D01*
X24404761Y-13285714D01*
X24452380Y-13380952D01*
X24452380Y-13571428D01*
X23547619Y-12761904D02*
X23500000Y-12714285D01*
X23452380Y-12619047D01*
X23452380Y-12380952D01*
X23500000Y-12285714D01*
X23547619Y-12238095D01*
X23642857Y-12190476D01*
X23738095Y-12190476D01*
X23880952Y-12238095D01*
X24452380Y-12809523D01*
X24452380Y-12190476D01*
X24547619Y-16595238D02*
X24500000Y-16690476D01*
X24404761Y-16785714D01*
X24261904Y-16928571D01*
X24214285Y-17023809D01*
X24214285Y-17119047D01*
X24452380Y-17071428D02*
X24404761Y-17166666D01*
X24309523Y-17261904D01*
X24119047Y-17309523D01*
X23785714Y-17309523D01*
X23595238Y-17261904D01*
X23500000Y-17166666D01*
X23452380Y-17071428D01*
X23452380Y-16880952D01*
X23500000Y-16785714D01*
X23595238Y-16690476D01*
X23785714Y-16642857D01*
X24119047Y-16642857D01*
X24309523Y-16690476D01*
X24404761Y-16785714D01*
X24452380Y-16880952D01*
X24452380Y-17071428D01*
X24452380Y-15690476D02*
X24452380Y-16261904D01*
X24452380Y-15976190D02*
X23452380Y-15976190D01*
X23595238Y-16071428D01*
X23690476Y-16166666D01*
X23738095Y-16261904D01*
X36052380Y-10333333D02*
X36766666Y-10333333D01*
X36909523Y-10380952D01*
X37004761Y-10476190D01*
X37052380Y-10619047D01*
X37052380Y-10714285D01*
X36147619Y-9904761D02*
X36100000Y-9857142D01*
X36052380Y-9761904D01*
X36052380Y-9523809D01*
X36100000Y-9428571D01*
X36147619Y-9380952D01*
X36242857Y-9333333D01*
X36338095Y-9333333D01*
X36480952Y-9380952D01*
X37052380Y-9952380D01*
X37052380Y-9333333D01*
X33761904Y-6952380D02*
X33761904Y-5952380D01*
X34000000Y-5952380D01*
X34142857Y-6000000D01*
X34238095Y-6095238D01*
X34285714Y-6190476D01*
X34333333Y-6380952D01*
X34333333Y-6523809D01*
X34285714Y-6714285D01*
X34238095Y-6809523D01*
X34142857Y-6904761D01*
X34000000Y-6952380D01*
X33761904Y-6952380D01*
X35190476Y-6285714D02*
X35190476Y-6952380D01*
X34952380Y-5904761D02*
X34714285Y-6619047D01*
X35333333Y-6619047D01*
X33761904Y-4452380D02*
X33761904Y-3452380D01*
X34000000Y-3452380D01*
X34142857Y-3500000D01*
X34238095Y-3595238D01*
X34285714Y-3690476D01*
X34333333Y-3880952D01*
X34333333Y-4023809D01*
X34285714Y-4214285D01*
X34238095Y-4309523D01*
X34142857Y-4404761D01*
X34000000Y-4452380D01*
X33761904Y-4452380D01*
X34666666Y-3452380D02*
X35285714Y-3452380D01*
X34952380Y-3833333D01*
X35095238Y-3833333D01*
X35190476Y-3880952D01*
X35238095Y-3928571D01*
X35285714Y-4023809D01*
X35285714Y-4261904D01*
X35238095Y-4357142D01*
X35190476Y-4404761D01*
X35095238Y-4452380D01*
X34809523Y-4452380D01*
X34714285Y-4404761D01*
X34666666Y-4357142D01*
X10572380Y-10218095D02*
X9572380Y-10218095D01*
X9572380Y-9980000D01*
X9620000Y-9837142D01*
X9715238Y-9741904D01*
X9810476Y-9694285D01*
X10000952Y-9646666D01*
X10143809Y-9646666D01*
X10334285Y-9694285D01*
X10429523Y-9741904D01*
X10524761Y-9837142D01*
X10572380Y-9980000D01*
X10572380Y-10218095D01*
X9667619Y-9265714D02*
X9620000Y-9218095D01*
X9572380Y-9122857D01*
X9572380Y-8884761D01*
X9620000Y-8789523D01*
X9667619Y-8741904D01*
X9762857Y-8694285D01*
X9858095Y-8694285D01*
X10000952Y-8741904D01*
X10572380Y-9313333D01*
X10572380Y-8694285D01*
X33761904Y-1952380D02*
X33761904Y-952380D01*
X34000000Y-952380D01*
X34142857Y-1000000D01*
X34238095Y-1095238D01*
X34285714Y-1190476D01*
X34333333Y-1380952D01*
X34333333Y-1523809D01*
X34285714Y-1714285D01*
X34238095Y-1809523D01*
X34142857Y-1904761D01*
X34000000Y-1952380D01*
X33761904Y-1952380D01*
X35285714Y-1952380D02*
X34714285Y-1952380D01*
X35000000Y-1952380D02*
X35000000Y-952380D01*
X34904761Y-1095238D01*
X34809523Y-1190476D01*
X34714285Y-1238095D01*
X10357142Y-5166666D02*
X10404761Y-5214285D01*
X10452380Y-5357142D01*
X10452380Y-5452380D01*
X10404761Y-5595238D01*
X10309523Y-5690476D01*
X10214285Y-5738095D01*
X10023809Y-5785714D01*
X9880952Y-5785714D01*
X9690476Y-5738095D01*
X9595238Y-5690476D01*
X9500000Y-5595238D01*
X9452380Y-5452380D01*
X9452380Y-5357142D01*
X9500000Y-5214285D01*
X9547619Y-5166666D01*
X9785714Y-4309523D02*
X10452380Y-4309523D01*
X9404761Y-4547619D02*
X10119047Y-4785714D01*
X10119047Y-4166666D01*
X15333333Y-10857142D02*
X15285714Y-10904761D01*
X15142857Y-10952380D01*
X15047619Y-10952380D01*
X14904761Y-10904761D01*
X14809523Y-10809523D01*
X14761904Y-10714285D01*
X14714285Y-10523809D01*
X14714285Y-10380952D01*
X14761904Y-10190476D01*
X14809523Y-10095238D01*
X14904761Y-10000000D01*
X15047619Y-9952380D01*
X15142857Y-9952380D01*
X15285714Y-10000000D01*
X15333333Y-10047619D01*
X15666666Y-9952380D02*
X16285714Y-9952380D01*
X15952380Y-10333333D01*
X16095238Y-10333333D01*
X16190476Y-10380952D01*
X16238095Y-10428571D01*
X16285714Y-10523809D01*
X16285714Y-10761904D01*
X16238095Y-10857142D01*
X16190476Y-10904761D01*
X16095238Y-10952380D01*
X15809523Y-10952380D01*
X15714285Y-10904761D01*
X15666666Y-10857142D01*
X31333333Y-9857142D02*
X31285714Y-9904761D01*
X31142857Y-9952380D01*
X31047619Y-9952380D01*
X30904761Y-9904761D01*
X30809523Y-9809523D01*
X30761904Y-9714285D01*
X30714285Y-9523809D01*
X30714285Y-9380952D01*
X30761904Y-9190476D01*
X30809523Y-9095238D01*
X30904761Y-9000000D01*
X31047619Y-8952380D01*
X31142857Y-8952380D01*
X31285714Y-9000000D01*
X31333333Y-9047619D01*
X31714285Y-9047619D02*
X31761904Y-9000000D01*
X31857142Y-8952380D01*
X32095238Y-8952380D01*
X32190476Y-9000000D01*
X32238095Y-9047619D01*
X32285714Y-9142857D01*
X32285714Y-9238095D01*
X32238095Y-9380952D01*
X31666666Y-9952380D01*
X32285714Y-9952380D01*
X15357142Y-1166666D02*
X15404761Y-1214285D01*
X15452380Y-1357142D01*
X15452380Y-1452380D01*
X15404761Y-1595238D01*
X15309523Y-1690476D01*
X15214285Y-1738095D01*
X15023809Y-1785714D01*
X14880952Y-1785714D01*
X14690476Y-1738095D01*
X14595238Y-1690476D01*
X14500000Y-1595238D01*
X14452380Y-1452380D01*
X14452380Y-1357142D01*
X14500000Y-1214285D01*
X14547619Y-1166666D01*
X15452380Y-214285D02*
X15452380Y-785714D01*
X15452380Y-500000D02*
X14452380Y-499999D01*
X14595238Y-595238D01*
X14690476Y-690476D01*
X14738095Y-785714D01*
M02*
