G04 #@! TF.GenerationSoftware,KiCad,Pcbnew,(5.1.7-0-10_14)*
G04 #@! TF.CreationDate,2021-07-20T14:06:07+09:00*
G04 #@! TF.ProjectId,esp_flasher,6573705f-666c-4617-9368-65722e6b6963,rev?*
G04 #@! TF.SameCoordinates,Original*
G04 #@! TF.FileFunction,Legend,Top*
G04 #@! TF.FilePolarity,Positive*
%FSLAX46Y46*%
G04 Gerber Fmt 4.6, Leading zero omitted, Abs format (unit mm)*
G04 Created by KiCad (PCBNEW (5.1.7-0-10_14)) date 2021-07-20 14:06:07*
%MOMM*%
%LPD*%
G01*
G04 APERTURE LIST*
%ADD10C,0.150000*%
%ADD11C,0.120000*%
%ADD12C,0.100000*%
G04 APERTURE END LIST*
D10*
X36952380Y-10976190D02*
X35952380Y-10976190D01*
X36904761Y-10547619D02*
X36952380Y-10404761D01*
X36952380Y-10166666D01*
X36904761Y-10071428D01*
X36857142Y-10023809D01*
X36761904Y-9976190D01*
X36666666Y-9976190D01*
X36571428Y-10023809D01*
X36523809Y-10071428D01*
X36476190Y-10166666D01*
X36428571Y-10357142D01*
X36380952Y-10452380D01*
X36333333Y-10500000D01*
X36238095Y-10547619D01*
X36142857Y-10547619D01*
X36047619Y-10500000D01*
X36000000Y-10452380D01*
X35952380Y-10357142D01*
X35952380Y-10119047D01*
X36000000Y-9976190D01*
X36952380Y-9547619D02*
X35952380Y-9547619D01*
X35952380Y-9166666D01*
X36000000Y-9071428D01*
X36047619Y-9023809D01*
X36142857Y-8976190D01*
X36285714Y-8976190D01*
X36380952Y-9023809D01*
X36428571Y-9071428D01*
X36476190Y-9166666D01*
X36476190Y-9547619D01*
X5761904Y-4928571D02*
X6095238Y-4928571D01*
X6238095Y-5452380D02*
X5761904Y-5452380D01*
X5761904Y-4452380D01*
X6238095Y-4452380D01*
X6666666Y-5452380D02*
X6666666Y-4452380D01*
X7238095Y-5452380D01*
X7238095Y-4452380D01*
X5142857Y-14928571D02*
X5285714Y-14976190D01*
X5333333Y-15023809D01*
X5380952Y-15119047D01*
X5380952Y-15261904D01*
X5333333Y-15357142D01*
X5285714Y-15404761D01*
X5190476Y-15452380D01*
X4809523Y-15452380D01*
X4809523Y-14452380D01*
X5142857Y-14452380D01*
X5238095Y-14500000D01*
X5285714Y-14547619D01*
X5333333Y-14642857D01*
X5333333Y-14738095D01*
X5285714Y-14833333D01*
X5238095Y-14880952D01*
X5142857Y-14928571D01*
X4809523Y-14928571D01*
X6000000Y-14452380D02*
X6190476Y-14452380D01*
X6285714Y-14500000D01*
X6380952Y-14595238D01*
X6428571Y-14785714D01*
X6428571Y-15119047D01*
X6380952Y-15309523D01*
X6285714Y-15404761D01*
X6190476Y-15452380D01*
X6000000Y-15452380D01*
X5904761Y-15404761D01*
X5809523Y-15309523D01*
X5761904Y-15119047D01*
X5761904Y-14785714D01*
X5809523Y-14595238D01*
X5904761Y-14500000D01*
X6000000Y-14452380D01*
X7047619Y-14452380D02*
X7238095Y-14452380D01*
X7333333Y-14500000D01*
X7428571Y-14595238D01*
X7476190Y-14785714D01*
X7476190Y-15119047D01*
X7428571Y-15309523D01*
X7333333Y-15404761D01*
X7238095Y-15452380D01*
X7047619Y-15452380D01*
X6952380Y-15404761D01*
X6857142Y-15309523D01*
X6809523Y-15119047D01*
X6809523Y-14785714D01*
X6857142Y-14595238D01*
X6952380Y-14500000D01*
X7047619Y-14452380D01*
X7761904Y-14452380D02*
X8333333Y-14452380D01*
X8047619Y-15452380D02*
X8047619Y-14452380D01*
D11*
X5250000Y-8400000D02*
X5250000Y-9000000D01*
X4950000Y-8700000D02*
X5250000Y-9000000D01*
X4950000Y-8700000D02*
X5250000Y-8400000D01*
X4720000Y-6130000D02*
X4720000Y-7000000D01*
X4720000Y-13870000D02*
X2650000Y-13870000D01*
X4720000Y-6130000D02*
X2650000Y-6130000D01*
X4720000Y-13000000D02*
X4720000Y-13870000D01*
X250000Y-13870000D02*
X0Y-13870000D01*
X250000Y-6130000D02*
X0Y-6130000D01*
X12353733Y-1510000D02*
X12646267Y-1510000D01*
X12353733Y-490000D02*
X12646267Y-490000D01*
X12353733Y-18510000D02*
X12646267Y-18510000D01*
X12353733Y-17490000D02*
X12646267Y-17490000D01*
X16400000Y-1590000D02*
X22410000Y-1590000D01*
X18650000Y-8410000D02*
X22410000Y-8410000D01*
X22410000Y-1590000D02*
X22410000Y-2850000D01*
X22410000Y-8410000D02*
X22410000Y-7150000D01*
X30157776Y-10522500D02*
X30667224Y-10522500D01*
X30157776Y-9477500D02*
X30667224Y-9477500D01*
X30522500Y-13254724D02*
X30522500Y-12745276D01*
X29477500Y-13254724D02*
X29477500Y-12745276D01*
X26754724Y-9477500D02*
X26245276Y-9477500D01*
X26754724Y-10522500D02*
X26245276Y-10522500D01*
X29477500Y-16245276D02*
X29477500Y-16754724D01*
X30522500Y-16245276D02*
X30522500Y-16754724D01*
X12754724Y-13477500D02*
X12245276Y-13477500D01*
X12754724Y-14522500D02*
X12245276Y-14522500D01*
X12245276Y-16522500D02*
X12754724Y-16522500D01*
X12245276Y-15477500D02*
X12754724Y-15477500D01*
X31745276Y-3522500D02*
X32254724Y-3522500D01*
X31745276Y-2477500D02*
X32254724Y-2477500D01*
X24920000Y-13760000D02*
X24920000Y-12300000D01*
X28080000Y-13760000D02*
X28080000Y-11600000D01*
X28080000Y-13760000D02*
X27150000Y-13760000D01*
X24920000Y-13760000D02*
X25850000Y-13760000D01*
X24920000Y-17260000D02*
X24920000Y-15800000D01*
X28080000Y-17260000D02*
X28080000Y-15100000D01*
X28080000Y-17260000D02*
X27150000Y-17260000D01*
X24920000Y-17260000D02*
X25850000Y-17260000D01*
X7600000Y-650000D02*
X1400000Y-650000D01*
X1400000Y-4350000D02*
X7600000Y-4350000D01*
X7600000Y-4350000D02*
X7600000Y-3700000D01*
X7600000Y-1300000D02*
X7600000Y-650000D01*
X1400000Y-650000D02*
X1400000Y-1300000D01*
X1400000Y-4350000D02*
X1400000Y-3700000D01*
X7600000Y-15650000D02*
X1400000Y-15650000D01*
X1400000Y-19350000D02*
X7600000Y-19350000D01*
X7600000Y-19350000D02*
X7600000Y-18700000D01*
X7600000Y-16300000D02*
X7600000Y-15650000D01*
X1400000Y-15650000D02*
X1400000Y-16300000D01*
X1400000Y-19350000D02*
X1400000Y-18700000D01*
X37390000Y-17360000D02*
X38640000Y-17360000D01*
X37390000Y-16110000D02*
X37390000Y-17360000D01*
X41800000Y-6000000D02*
X41300000Y-6000000D01*
X41300000Y-5900000D02*
X41800000Y-5900000D01*
X41300000Y-6100000D02*
X41300000Y-5900000D01*
X41800000Y-6100000D02*
X41300000Y-6100000D01*
X41800000Y-8000000D02*
X41300000Y-8000000D01*
X41300000Y-7900000D02*
X41800000Y-7900000D01*
X41300000Y-8100000D02*
X41300000Y-7900000D01*
X41800000Y-8100000D02*
X41300000Y-8100000D01*
X41800000Y-10000000D02*
X41300000Y-10000000D01*
X41300000Y-9900000D02*
X41800000Y-9900000D01*
X41300000Y-10100000D02*
X41300000Y-9900000D01*
X41800000Y-10100000D02*
X41300000Y-10100000D01*
X41800000Y-12000000D02*
X41300000Y-12000000D01*
X41300000Y-11900000D02*
X41800000Y-11900000D01*
X41300000Y-12100000D02*
X41300000Y-11900000D01*
X41800000Y-12100000D02*
X41300000Y-12100000D01*
X41800000Y-14000000D02*
X41300000Y-14000000D01*
X41300000Y-13900000D02*
X41800000Y-13900000D01*
X41300000Y-14100000D02*
X41300000Y-13900000D01*
X41800000Y-14100000D02*
X41300000Y-14100000D01*
X40300000Y-2940000D02*
X40300000Y-3550000D01*
X39000000Y-2940000D02*
X39000000Y-3550000D01*
X40300000Y-17060000D02*
X40300000Y-16450000D01*
X39000000Y-17060000D02*
X39000000Y-16450000D01*
X38300000Y-5500000D02*
X37690000Y-5500000D01*
X38300000Y-3550000D02*
X38300000Y-5500000D01*
X41800000Y-3550000D02*
X38300000Y-3550000D01*
X41800000Y-16450000D02*
X41800000Y-3550000D01*
X38300000Y-16450000D02*
X41800000Y-16450000D01*
X38300000Y-14500000D02*
X38300000Y-16450000D01*
X37690000Y-14500000D02*
X38300000Y-14500000D01*
X37590000Y-15300000D02*
X37590000Y-15600000D01*
X37490000Y-15600000D02*
X37690000Y-15600000D01*
X37490000Y-15300000D02*
X37490000Y-15600000D01*
X37690000Y-15300000D02*
X37490000Y-15300000D01*
X37690000Y-2940000D02*
X37690000Y-17060000D01*
X42410000Y-2940000D02*
X37690000Y-2940000D01*
X42410000Y-17060000D02*
X42410000Y-2940000D01*
X37690000Y-17060000D02*
X42410000Y-17060000D01*
X10950000Y-8300000D02*
X10950000Y-11250000D01*
X14050000Y-10700000D02*
X14050000Y-8300000D01*
X29860000Y-2040000D02*
X27000000Y-2040000D01*
X29860000Y-3960000D02*
X29860000Y-2040000D01*
X27000000Y-3960000D02*
X29860000Y-3960000D01*
X12010000Y-5146267D02*
X12010000Y-4853733D01*
X10990000Y-5146267D02*
X10990000Y-4853733D01*
X17853733Y-11010000D02*
X18146267Y-11010000D01*
X17853733Y-9990000D02*
X18146267Y-9990000D01*
X26190000Y-6935000D02*
X30100000Y-6935000D01*
X26190000Y-5065000D02*
X26190000Y-6935000D01*
X30100000Y-5065000D02*
X26190000Y-5065000D01*
X14935000Y-6810000D02*
X14935000Y-2900000D01*
X13065000Y-6810000D02*
X14935000Y-6810000D01*
X13065000Y-2900000D02*
X13065000Y-6810000D01*
X21353733Y-9990000D02*
X21646267Y-9990000D01*
X21353733Y-11010000D02*
X21646267Y-11010000D01*
D12*
X16400000Y-13400000D02*
X16900000Y-13400000D01*
X16400000Y-13400000D02*
X16400000Y-13900000D01*
X16400000Y-18600000D02*
X16400000Y-18100000D01*
X16400000Y-18600000D02*
X16900000Y-18600000D01*
X21600000Y-18600000D02*
X21100000Y-18600000D01*
X21600000Y-18600000D02*
X21600000Y-18100000D01*
X21600000Y-13400000D02*
X20800000Y-13400000D01*
X20800000Y-13400000D02*
X20800000Y-13200000D01*
X21600000Y-13400000D02*
X21600000Y-13900000D01*
D10*
X5702380Y-10333333D02*
X6416666Y-10333333D01*
X6559523Y-10380952D01*
X6654761Y-10476190D01*
X6702380Y-10619047D01*
X6702380Y-10714285D01*
X6702380Y-9333333D02*
X6702380Y-9904761D01*
X6702380Y-9619047D02*
X5702380Y-9619047D01*
X5845238Y-9714285D01*
X5940476Y-9809523D01*
X5988095Y-9904761D01*
X10357142Y-1166666D02*
X10404761Y-1214285D01*
X10452380Y-1357142D01*
X10452380Y-1452380D01*
X10404761Y-1595238D01*
X10309523Y-1690476D01*
X10214285Y-1738095D01*
X10023809Y-1785714D01*
X9880952Y-1785714D01*
X9690476Y-1738095D01*
X9595238Y-1690476D01*
X9500000Y-1595238D01*
X9452380Y-1452380D01*
X9452380Y-1357142D01*
X9500000Y-1214285D01*
X9547619Y-1166666D01*
X9452380Y-309523D02*
X9452380Y-499999D01*
X9500000Y-595238D01*
X9547619Y-642857D01*
X9690476Y-738095D01*
X9880952Y-785714D01*
X10261904Y-785714D01*
X10357142Y-738095D01*
X10404761Y-690476D01*
X10452380Y-595238D01*
X10452380Y-404761D01*
X10404761Y-309523D01*
X10357142Y-261904D01*
X10261904Y-214285D01*
X10023809Y-214285D01*
X9928571Y-261904D01*
X9880952Y-309523D01*
X9833333Y-404761D01*
X9833333Y-595238D01*
X9880952Y-690476D01*
X9928571Y-738095D01*
X10023809Y-785714D01*
X10357142Y-18166666D02*
X10404761Y-18214285D01*
X10452380Y-18357142D01*
X10452380Y-18452380D01*
X10404761Y-18595238D01*
X10309523Y-18690476D01*
X10214285Y-18738095D01*
X10023809Y-18785714D01*
X9880952Y-18785714D01*
X9690476Y-18738095D01*
X9595238Y-18690476D01*
X9500000Y-18595238D01*
X9452380Y-18452380D01*
X9452380Y-18357142D01*
X9500000Y-18214285D01*
X9547619Y-18166666D01*
X9452380Y-17261904D02*
X9452380Y-17738095D01*
X9928571Y-17785714D01*
X9880952Y-17738095D01*
X9833333Y-17642857D01*
X9833333Y-17404761D01*
X9880952Y-17309523D01*
X9928571Y-17261904D01*
X10023809Y-17214285D01*
X10261904Y-17214285D01*
X10357142Y-17261904D01*
X10404761Y-17309523D01*
X10452380Y-17404761D01*
X10452380Y-17642857D01*
X10404761Y-17738095D01*
X10357142Y-17785714D01*
X23238095Y-1452380D02*
X23238095Y-2261904D01*
X23285714Y-2357142D01*
X23333333Y-2404761D01*
X23428571Y-2452380D01*
X23619047Y-2452380D01*
X23714285Y-2404761D01*
X23761904Y-2357142D01*
X23809523Y-2261904D01*
X23809523Y-1452380D01*
X24809523Y-2452380D02*
X24238095Y-2452380D01*
X24523809Y-2452380D02*
X24523809Y-1452380D01*
X24428571Y-1595238D01*
X24333333Y-1690476D01*
X24238095Y-1738095D01*
X29769642Y-9022380D02*
X29436309Y-8546190D01*
X29198214Y-9022380D02*
X29198214Y-8022380D01*
X29579166Y-8022380D01*
X29674404Y-8070000D01*
X29722023Y-8117619D01*
X29769642Y-8212857D01*
X29769642Y-8355714D01*
X29722023Y-8450952D01*
X29674404Y-8498571D01*
X29579166Y-8546190D01*
X29198214Y-8546190D01*
X30722023Y-9022380D02*
X30150595Y-9022380D01*
X30436309Y-9022380D02*
X30436309Y-8022380D01*
X30341071Y-8165238D01*
X30245833Y-8260476D01*
X30150595Y-8308095D01*
X31674404Y-9022380D02*
X31102976Y-9022380D01*
X31388690Y-9022380D02*
X31388690Y-8022380D01*
X31293452Y-8165238D01*
X31198214Y-8260476D01*
X31102976Y-8308095D01*
X31952380Y-13642857D02*
X31476190Y-13976190D01*
X31952380Y-14214285D02*
X30952380Y-14214285D01*
X30952380Y-13833333D01*
X31000000Y-13738095D01*
X31047619Y-13690476D01*
X31142857Y-13642857D01*
X31285714Y-13642857D01*
X31380952Y-13690476D01*
X31428571Y-13738095D01*
X31476190Y-13833333D01*
X31476190Y-14214285D01*
X31952380Y-12690476D02*
X31952380Y-13261904D01*
X31952380Y-12976190D02*
X30952380Y-12976190D01*
X31095238Y-13071428D01*
X31190476Y-13166666D01*
X31238095Y-13261904D01*
X30952380Y-12071428D02*
X30952380Y-11976190D01*
X31000000Y-11880952D01*
X31047619Y-11833333D01*
X31142857Y-11785714D01*
X31333333Y-11738095D01*
X31571428Y-11738095D01*
X31761904Y-11785714D01*
X31857142Y-11833333D01*
X31904761Y-11880952D01*
X31952380Y-11976190D01*
X31952380Y-12071428D01*
X31904761Y-12166666D01*
X31857142Y-12214285D01*
X31761904Y-12261904D01*
X31571428Y-12309523D01*
X31333333Y-12309523D01*
X31142857Y-12261904D01*
X31047619Y-12214285D01*
X31000000Y-12166666D01*
X30952380Y-12071428D01*
X26333333Y-8952380D02*
X26000000Y-8476190D01*
X25761904Y-8952380D02*
X25761904Y-7952380D01*
X26142857Y-7952380D01*
X26238095Y-8000000D01*
X26285714Y-8047619D01*
X26333333Y-8142857D01*
X26333333Y-8285714D01*
X26285714Y-8380952D01*
X26238095Y-8428571D01*
X26142857Y-8476190D01*
X25761904Y-8476190D01*
X26809523Y-8952380D02*
X27000000Y-8952380D01*
X27095238Y-8904761D01*
X27142857Y-8857142D01*
X27238095Y-8714285D01*
X27285714Y-8523809D01*
X27285714Y-8142857D01*
X27238095Y-8047619D01*
X27190476Y-8000000D01*
X27095238Y-7952380D01*
X26904761Y-7952380D01*
X26809523Y-8000000D01*
X26761904Y-8047619D01*
X26714285Y-8142857D01*
X26714285Y-8380952D01*
X26761904Y-8476190D01*
X26809523Y-8523809D01*
X26904761Y-8571428D01*
X27095238Y-8571428D01*
X27190476Y-8523809D01*
X27238095Y-8476190D01*
X27285714Y-8380952D01*
X31952380Y-16666666D02*
X31476190Y-17000000D01*
X31952380Y-17238095D02*
X30952380Y-17238095D01*
X30952380Y-16857142D01*
X31000000Y-16761904D01*
X31047619Y-16714285D01*
X31142857Y-16666666D01*
X31285714Y-16666666D01*
X31380952Y-16714285D01*
X31428571Y-16761904D01*
X31476190Y-16857142D01*
X31476190Y-17238095D01*
X31380952Y-16095238D02*
X31333333Y-16190476D01*
X31285714Y-16238095D01*
X31190476Y-16285714D01*
X31142857Y-16285714D01*
X31047619Y-16238095D01*
X31000000Y-16190476D01*
X30952380Y-16095238D01*
X30952380Y-15904761D01*
X31000000Y-15809523D01*
X31047619Y-15761904D01*
X31142857Y-15714285D01*
X31190476Y-15714285D01*
X31285714Y-15761904D01*
X31333333Y-15809523D01*
X31380952Y-15904761D01*
X31380952Y-16095238D01*
X31428571Y-16190476D01*
X31476190Y-16238095D01*
X31571428Y-16285714D01*
X31761904Y-16285714D01*
X31857142Y-16238095D01*
X31904761Y-16190476D01*
X31952380Y-16095238D01*
X31952380Y-15904761D01*
X31904761Y-15809523D01*
X31857142Y-15761904D01*
X31761904Y-15714285D01*
X31571428Y-15714285D01*
X31476190Y-15761904D01*
X31428571Y-15809523D01*
X31380952Y-15904761D01*
X10452380Y-14166666D02*
X9976190Y-14500000D01*
X10452380Y-14738095D02*
X9452380Y-14738095D01*
X9452380Y-14357142D01*
X9500000Y-14261904D01*
X9547619Y-14214285D01*
X9642857Y-14166666D01*
X9785714Y-14166666D01*
X9880952Y-14214285D01*
X9928571Y-14261904D01*
X9976190Y-14357142D01*
X9976190Y-14738095D01*
X9452380Y-13833333D02*
X9452380Y-13214285D01*
X9833333Y-13547619D01*
X9833333Y-13404761D01*
X9880952Y-13309523D01*
X9928571Y-13261904D01*
X10023809Y-13214285D01*
X10261904Y-13214285D01*
X10357142Y-13261904D01*
X10404761Y-13309523D01*
X10452380Y-13404761D01*
X10452380Y-13690476D01*
X10404761Y-13785714D01*
X10357142Y-13833333D01*
X10452380Y-16166666D02*
X9976190Y-16500000D01*
X10452380Y-16738095D02*
X9452380Y-16738095D01*
X9452380Y-16357142D01*
X9500000Y-16261904D01*
X9547619Y-16214285D01*
X9642857Y-16166666D01*
X9785714Y-16166666D01*
X9880952Y-16214285D01*
X9928571Y-16261904D01*
X9976190Y-16357142D01*
X9976190Y-16738095D01*
X9547619Y-15785714D02*
X9500000Y-15738095D01*
X9452380Y-15642857D01*
X9452380Y-15404761D01*
X9500000Y-15309523D01*
X9547619Y-15261904D01*
X9642857Y-15214285D01*
X9738095Y-15214285D01*
X9880952Y-15261904D01*
X10452380Y-15833333D01*
X10452380Y-15214285D01*
X31833333Y-1952380D02*
X31500000Y-1476190D01*
X31261904Y-1952380D02*
X31261904Y-952380D01*
X31642857Y-952380D01*
X31738095Y-1000000D01*
X31785714Y-1047619D01*
X31833333Y-1142857D01*
X31833333Y-1285714D01*
X31785714Y-1380952D01*
X31738095Y-1428571D01*
X31642857Y-1476190D01*
X31261904Y-1476190D01*
X32785714Y-1952380D02*
X32214285Y-1952380D01*
X32500000Y-1952380D02*
X32500000Y-952380D01*
X32404761Y-1095238D01*
X32309523Y-1190476D01*
X32214285Y-1238095D01*
X24547619Y-13095238D02*
X24500000Y-13190476D01*
X24404761Y-13285714D01*
X24261904Y-13428571D01*
X24214285Y-13523809D01*
X24214285Y-13619047D01*
X24452380Y-13571428D02*
X24404761Y-13666666D01*
X24309523Y-13761904D01*
X24119047Y-13809523D01*
X23785714Y-13809523D01*
X23595238Y-13761904D01*
X23500000Y-13666666D01*
X23452380Y-13571428D01*
X23452380Y-13380952D01*
X23500000Y-13285714D01*
X23595238Y-13190476D01*
X23785714Y-13142857D01*
X24119047Y-13142857D01*
X24309523Y-13190476D01*
X24404761Y-13285714D01*
X24452380Y-13380952D01*
X24452380Y-13571428D01*
X23547619Y-12761904D02*
X23500000Y-12714285D01*
X23452380Y-12619047D01*
X23452380Y-12380952D01*
X23500000Y-12285714D01*
X23547619Y-12238095D01*
X23642857Y-12190476D01*
X23738095Y-12190476D01*
X23880952Y-12238095D01*
X24452380Y-12809523D01*
X24452380Y-12190476D01*
X24547619Y-16595238D02*
X24500000Y-16690476D01*
X24404761Y-16785714D01*
X24261904Y-16928571D01*
X24214285Y-17023809D01*
X24214285Y-17119047D01*
X24452380Y-17071428D02*
X24404761Y-17166666D01*
X24309523Y-17261904D01*
X24119047Y-17309523D01*
X23785714Y-17309523D01*
X23595238Y-17261904D01*
X23500000Y-17166666D01*
X23452380Y-17071428D01*
X23452380Y-16880952D01*
X23500000Y-16785714D01*
X23595238Y-16690476D01*
X23785714Y-16642857D01*
X24119047Y-16642857D01*
X24309523Y-16690476D01*
X24404761Y-16785714D01*
X24452380Y-16880952D01*
X24452380Y-17071428D01*
X24452380Y-15690476D02*
X24452380Y-16261904D01*
X24452380Y-15976190D02*
X23452380Y-15976190D01*
X23595238Y-16071428D01*
X23690476Y-16166666D01*
X23738095Y-16261904D01*
X10572380Y-10218095D02*
X9572380Y-10218095D01*
X9572380Y-9980000D01*
X9620000Y-9837142D01*
X9715238Y-9741904D01*
X9810476Y-9694285D01*
X10000952Y-9646666D01*
X10143809Y-9646666D01*
X10334285Y-9694285D01*
X10429523Y-9741904D01*
X10524761Y-9837142D01*
X10572380Y-9980000D01*
X10572380Y-10218095D01*
X9667619Y-9265714D02*
X9620000Y-9218095D01*
X9572380Y-9122857D01*
X9572380Y-8884761D01*
X9620000Y-8789523D01*
X9667619Y-8741904D01*
X9762857Y-8694285D01*
X9858095Y-8694285D01*
X10000952Y-8741904D01*
X10572380Y-9313333D01*
X10572380Y-8694285D01*
X27261904Y-1952380D02*
X27261904Y-952380D01*
X27500000Y-952380D01*
X27642857Y-1000000D01*
X27738095Y-1095238D01*
X27785714Y-1190476D01*
X27833333Y-1380952D01*
X27833333Y-1523809D01*
X27785714Y-1714285D01*
X27738095Y-1809523D01*
X27642857Y-1904761D01*
X27500000Y-1952380D01*
X27261904Y-1952380D01*
X28785714Y-1952380D02*
X28214285Y-1952380D01*
X28500000Y-1952380D02*
X28500000Y-952380D01*
X28404761Y-1095238D01*
X28309523Y-1190476D01*
X28214285Y-1238095D01*
X10357142Y-5166666D02*
X10404761Y-5214285D01*
X10452380Y-5357142D01*
X10452380Y-5452380D01*
X10404761Y-5595238D01*
X10309523Y-5690476D01*
X10214285Y-5738095D01*
X10023809Y-5785714D01*
X9880952Y-5785714D01*
X9690476Y-5738095D01*
X9595238Y-5690476D01*
X9500000Y-5595238D01*
X9452380Y-5452380D01*
X9452380Y-5357142D01*
X9500000Y-5214285D01*
X9547619Y-5166666D01*
X9785714Y-4309523D02*
X10452380Y-4309523D01*
X9404761Y-4547619D02*
X10119047Y-4785714D01*
X10119047Y-4166666D01*
X15333333Y-10857142D02*
X15285714Y-10904761D01*
X15142857Y-10952380D01*
X15047619Y-10952380D01*
X14904761Y-10904761D01*
X14809523Y-10809523D01*
X14761904Y-10714285D01*
X14714285Y-10523809D01*
X14714285Y-10380952D01*
X14761904Y-10190476D01*
X14809523Y-10095238D01*
X14904761Y-10000000D01*
X15047619Y-9952380D01*
X15142857Y-9952380D01*
X15285714Y-10000000D01*
X15333333Y-10047619D01*
X15666666Y-9952380D02*
X16285714Y-9952380D01*
X15952380Y-10333333D01*
X16095238Y-10333333D01*
X16190476Y-10380952D01*
X16238095Y-10428571D01*
X16285714Y-10523809D01*
X16285714Y-10761904D01*
X16238095Y-10857142D01*
X16190476Y-10904761D01*
X16095238Y-10952380D01*
X15809523Y-10952380D01*
X15714285Y-10904761D01*
X15666666Y-10857142D01*
X31833333Y-6357142D02*
X31785714Y-6404761D01*
X31642857Y-6452380D01*
X31547619Y-6452380D01*
X31404761Y-6404761D01*
X31309523Y-6309523D01*
X31261904Y-6214285D01*
X31214285Y-6023809D01*
X31214285Y-5880952D01*
X31261904Y-5690476D01*
X31309523Y-5595238D01*
X31404761Y-5500000D01*
X31547619Y-5452380D01*
X31642857Y-5452380D01*
X31785714Y-5500000D01*
X31833333Y-5547619D01*
X32214285Y-5547619D02*
X32261904Y-5500000D01*
X32357142Y-5452380D01*
X32595238Y-5452380D01*
X32690476Y-5500000D01*
X32738095Y-5547619D01*
X32785714Y-5642857D01*
X32785714Y-5738095D01*
X32738095Y-5880952D01*
X32166666Y-6452380D01*
X32785714Y-6452380D01*
X15357142Y-1166666D02*
X15404761Y-1214285D01*
X15452380Y-1357142D01*
X15452380Y-1452380D01*
X15404761Y-1595238D01*
X15309523Y-1690476D01*
X15214285Y-1738095D01*
X15023809Y-1785714D01*
X14880952Y-1785714D01*
X14690476Y-1738095D01*
X14595238Y-1690476D01*
X14500000Y-1595238D01*
X14452380Y-1452380D01*
X14452380Y-1357142D01*
X14500000Y-1214285D01*
X14547619Y-1166666D01*
X15452380Y-214285D02*
X15452380Y-785714D01*
X15452380Y-500000D02*
X14452380Y-499999D01*
X14595238Y-595238D01*
X14690476Y-690476D01*
X14738095Y-785714D01*
X23833333Y-10857142D02*
X23785714Y-10904761D01*
X23642857Y-10952380D01*
X23547619Y-10952380D01*
X23404761Y-10904761D01*
X23309523Y-10809523D01*
X23261904Y-10714285D01*
X23214285Y-10523809D01*
X23214285Y-10380952D01*
X23261904Y-10190476D01*
X23309523Y-10095238D01*
X23404761Y-10000000D01*
X23547619Y-9952380D01*
X23642857Y-9952380D01*
X23785714Y-10000000D01*
X23833333Y-10047619D01*
X24166666Y-9952380D02*
X24833333Y-9952380D01*
X24404761Y-10952380D01*
X21238095Y-11952380D02*
X21238095Y-12761904D01*
X21285714Y-12857142D01*
X21333333Y-12904761D01*
X21428571Y-12952380D01*
X21619047Y-12952380D01*
X21714285Y-12904761D01*
X21761904Y-12857142D01*
X21809523Y-12761904D01*
X21809523Y-11952380D01*
X22238095Y-12047619D02*
X22285714Y-12000000D01*
X22380952Y-11952380D01*
X22619047Y-11952380D01*
X22714285Y-12000000D01*
X22761904Y-12047619D01*
X22809523Y-12142857D01*
X22809523Y-12238095D01*
X22761904Y-12380952D01*
X22190476Y-12952380D01*
X22809523Y-12952380D01*
M02*
