M48
METRIC,TZ
T1C0.300
T2C0.600
T3C0.650
T4C0.750
%
G90
G05
T1
X10000Y-7500
X10000Y-9000
X11500Y-2500
X12000Y-12500
X14500Y-9500
X15500Y-18500
X17500Y-12000
X18500Y-11500
X19025Y-12500
X20000Y-11500
X23500Y-14500
X24500Y-7500
X24500Y-13000
X25500Y-13500
X25500Y-14500
X26500Y-8000
X26500Y-11000
X26500Y-15500
X28000Y-8000
X28500Y-11000
X29000Y-14000
X29500Y-9100
X31000Y-16500
X32000Y-8500
X32913Y-4587
T4
X39500Y-5000
X39500Y-7000
X39500Y-9000
X39500Y-11000
X39500Y-13000
X39500Y-15000
T2
G00X1800Y-5825
M15
G01X1100Y-5825
M16
G05
G00X1800Y-14175
M15
G01X1100Y-14175
M16
G05
T3
G00X4550Y-7775
M15
G01X4350Y-7775
M16
G05
G00X4550Y-12225
M15
G01X4350Y-12225
M16
G05
T0
M30
