G04 #@! TF.GenerationSoftware,KiCad,Pcbnew,(5.1.7-0-10_14)*
G04 #@! TF.CreationDate,2021-07-20T14:06:07+09:00*
G04 #@! TF.ProjectId,esp_flasher,6573705f-666c-4617-9368-65722e6b6963,rev?*
G04 #@! TF.SameCoordinates,Original*
G04 #@! TF.FileFunction,Soldermask,Top*
G04 #@! TF.FilePolarity,Negative*
%FSLAX46Y46*%
G04 Gerber Fmt 4.6, Leading zero omitted, Abs format (unit mm)*
G04 Created by KiCad (PCBNEW (5.1.7-0-10_14)) date 2021-07-20 14:06:07*
%MOMM*%
%LPD*%
G01*
G04 APERTURE LIST*
%ADD10O,1.250000X1.050000*%
%ADD11R,1.350000X0.400000*%
%ADD12O,1.900000X1.000000*%
%ADD13R,1.900000X2.900000*%
%ADD14R,1.900000X0.875000*%
%ADD15R,2.000000X1.500000*%
%ADD16R,2.000000X3.800000*%
%ADD17R,0.800000X0.900000*%
%ADD18R,2.000000X1.600000*%
%ADD19O,1.750000X1.200000*%
%ADD20R,1.000000X1.400000*%
%ADD21R,1.200000X1.400000*%
%ADD22R,1.000000X0.300000*%
%ADD23R,0.300000X1.000000*%
%ADD24R,3.400000X3.400000*%
G04 APERTURE END LIST*
D10*
X4450000Y-7775000D03*
D11*
X4125000Y-8700000D03*
X4125000Y-9350000D03*
X4125000Y-10000000D03*
X4125000Y-11300000D03*
D10*
X4450000Y-12225000D03*
D12*
X1450000Y-5825000D03*
X1450000Y-14175000D03*
D11*
X4125000Y-10650000D03*
D13*
X1450000Y-10000000D03*
D14*
X1450000Y-13737500D03*
X1450000Y-6262500D03*
G36*
G01*
X12825000Y-1237500D02*
X12825000Y-762500D01*
G75*
G02*
X13062500Y-525000I237500J0D01*
G01*
X13662500Y-525000D01*
G75*
G02*
X13900000Y-762500I0J-237500D01*
G01*
X13900000Y-1237500D01*
G75*
G02*
X13662500Y-1475000I-237500J0D01*
G01*
X13062500Y-1475000D01*
G75*
G02*
X12825000Y-1237500I0J237500D01*
G01*
G37*
G36*
G01*
X11100000Y-1237500D02*
X11100000Y-762500D01*
G75*
G02*
X11337500Y-525000I237500J0D01*
G01*
X11937500Y-525000D01*
G75*
G02*
X12175000Y-762500I0J-237500D01*
G01*
X12175000Y-1237500D01*
G75*
G02*
X11937500Y-1475000I-237500J0D01*
G01*
X11337500Y-1475000D01*
G75*
G02*
X11100000Y-1237500I0J237500D01*
G01*
G37*
G36*
G01*
X12825000Y-18237500D02*
X12825000Y-17762500D01*
G75*
G02*
X13062500Y-17525000I237500J0D01*
G01*
X13662500Y-17525000D01*
G75*
G02*
X13900000Y-17762500I0J-237500D01*
G01*
X13900000Y-18237500D01*
G75*
G02*
X13662500Y-18475000I-237500J0D01*
G01*
X13062500Y-18475000D01*
G75*
G02*
X12825000Y-18237500I0J237500D01*
G01*
G37*
G36*
G01*
X11100000Y-18237500D02*
X11100000Y-17762500D01*
G75*
G02*
X11337500Y-17525000I237500J0D01*
G01*
X11937500Y-17525000D01*
G75*
G02*
X12175000Y-17762500I0J-237500D01*
G01*
X12175000Y-18237500D01*
G75*
G02*
X11937500Y-18475000I-237500J0D01*
G01*
X11337500Y-18475000D01*
G75*
G02*
X11100000Y-18237500I0J237500D01*
G01*
G37*
D15*
X17350000Y-2700000D03*
X17350000Y-7300000D03*
X17350000Y-5000000D03*
D16*
X23650000Y-5000000D03*
G36*
G01*
X30837500Y-10237500D02*
X30837500Y-9762500D01*
G75*
G02*
X31075000Y-9525000I237500J0D01*
G01*
X31575000Y-9525000D01*
G75*
G02*
X31812500Y-9762500I0J-237500D01*
G01*
X31812500Y-10237500D01*
G75*
G02*
X31575000Y-10475000I-237500J0D01*
G01*
X31075000Y-10475000D01*
G75*
G02*
X30837500Y-10237500I0J237500D01*
G01*
G37*
G36*
G01*
X29012500Y-10237500D02*
X29012500Y-9762500D01*
G75*
G02*
X29250000Y-9525000I237500J0D01*
G01*
X29750000Y-9525000D01*
G75*
G02*
X29987500Y-9762500I0J-237500D01*
G01*
X29987500Y-10237500D01*
G75*
G02*
X29750000Y-10475000I-237500J0D01*
G01*
X29250000Y-10475000D01*
G75*
G02*
X29012500Y-10237500I0J237500D01*
G01*
G37*
G36*
G01*
X30237500Y-12575000D02*
X29762500Y-12575000D01*
G75*
G02*
X29525000Y-12337500I0J237500D01*
G01*
X29525000Y-11837500D01*
G75*
G02*
X29762500Y-11600000I237500J0D01*
G01*
X30237500Y-11600000D01*
G75*
G02*
X30475000Y-11837500I0J-237500D01*
G01*
X30475000Y-12337500D01*
G75*
G02*
X30237500Y-12575000I-237500J0D01*
G01*
G37*
G36*
G01*
X30237500Y-14400000D02*
X29762500Y-14400000D01*
G75*
G02*
X29525000Y-14162500I0J237500D01*
G01*
X29525000Y-13662500D01*
G75*
G02*
X29762500Y-13425000I237500J0D01*
G01*
X30237500Y-13425000D01*
G75*
G02*
X30475000Y-13662500I0J-237500D01*
G01*
X30475000Y-14162500D01*
G75*
G02*
X30237500Y-14400000I-237500J0D01*
G01*
G37*
G36*
G01*
X26075000Y-9762500D02*
X26075000Y-10237500D01*
G75*
G02*
X25837500Y-10475000I-237500J0D01*
G01*
X25337500Y-10475000D01*
G75*
G02*
X25100000Y-10237500I0J237500D01*
G01*
X25100000Y-9762500D01*
G75*
G02*
X25337500Y-9525000I237500J0D01*
G01*
X25837500Y-9525000D01*
G75*
G02*
X26075000Y-9762500I0J-237500D01*
G01*
G37*
G36*
G01*
X27900000Y-9762500D02*
X27900000Y-10237500D01*
G75*
G02*
X27662500Y-10475000I-237500J0D01*
G01*
X27162500Y-10475000D01*
G75*
G02*
X26925000Y-10237500I0J237500D01*
G01*
X26925000Y-9762500D01*
G75*
G02*
X27162500Y-9525000I237500J0D01*
G01*
X27662500Y-9525000D01*
G75*
G02*
X27900000Y-9762500I0J-237500D01*
G01*
G37*
G36*
G01*
X29762500Y-16925000D02*
X30237500Y-16925000D01*
G75*
G02*
X30475000Y-17162500I0J-237500D01*
G01*
X30475000Y-17662500D01*
G75*
G02*
X30237500Y-17900000I-237500J0D01*
G01*
X29762500Y-17900000D01*
G75*
G02*
X29525000Y-17662500I0J237500D01*
G01*
X29525000Y-17162500D01*
G75*
G02*
X29762500Y-16925000I237500J0D01*
G01*
G37*
G36*
G01*
X29762500Y-15100000D02*
X30237500Y-15100000D01*
G75*
G02*
X30475000Y-15337500I0J-237500D01*
G01*
X30475000Y-15837500D01*
G75*
G02*
X30237500Y-16075000I-237500J0D01*
G01*
X29762500Y-16075000D01*
G75*
G02*
X29525000Y-15837500I0J237500D01*
G01*
X29525000Y-15337500D01*
G75*
G02*
X29762500Y-15100000I237500J0D01*
G01*
G37*
G36*
G01*
X12075000Y-13762500D02*
X12075000Y-14237500D01*
G75*
G02*
X11837500Y-14475000I-237500J0D01*
G01*
X11337500Y-14475000D01*
G75*
G02*
X11100000Y-14237500I0J237500D01*
G01*
X11100000Y-13762500D01*
G75*
G02*
X11337500Y-13525000I237500J0D01*
G01*
X11837500Y-13525000D01*
G75*
G02*
X12075000Y-13762500I0J-237500D01*
G01*
G37*
G36*
G01*
X13900000Y-13762500D02*
X13900000Y-14237500D01*
G75*
G02*
X13662500Y-14475000I-237500J0D01*
G01*
X13162500Y-14475000D01*
G75*
G02*
X12925000Y-14237500I0J237500D01*
G01*
X12925000Y-13762500D01*
G75*
G02*
X13162500Y-13525000I237500J0D01*
G01*
X13662500Y-13525000D01*
G75*
G02*
X13900000Y-13762500I0J-237500D01*
G01*
G37*
G36*
G01*
X12925000Y-16237500D02*
X12925000Y-15762500D01*
G75*
G02*
X13162500Y-15525000I237500J0D01*
G01*
X13662500Y-15525000D01*
G75*
G02*
X13900000Y-15762500I0J-237500D01*
G01*
X13900000Y-16237500D01*
G75*
G02*
X13662500Y-16475000I-237500J0D01*
G01*
X13162500Y-16475000D01*
G75*
G02*
X12925000Y-16237500I0J237500D01*
G01*
G37*
G36*
G01*
X11100000Y-16237500D02*
X11100000Y-15762500D01*
G75*
G02*
X11337500Y-15525000I237500J0D01*
G01*
X11837500Y-15525000D01*
G75*
G02*
X12075000Y-15762500I0J-237500D01*
G01*
X12075000Y-16237500D01*
G75*
G02*
X11837500Y-16475000I-237500J0D01*
G01*
X11337500Y-16475000D01*
G75*
G02*
X11100000Y-16237500I0J237500D01*
G01*
G37*
G36*
G01*
X32425000Y-3237500D02*
X32425000Y-2762500D01*
G75*
G02*
X32662500Y-2525000I237500J0D01*
G01*
X33162500Y-2525000D01*
G75*
G02*
X33400000Y-2762500I0J-237500D01*
G01*
X33400000Y-3237500D01*
G75*
G02*
X33162500Y-3475000I-237500J0D01*
G01*
X32662500Y-3475000D01*
G75*
G02*
X32425000Y-3237500I0J237500D01*
G01*
G37*
G36*
G01*
X30600000Y-3237500D02*
X30600000Y-2762500D01*
G75*
G02*
X30837500Y-2525000I237500J0D01*
G01*
X31337500Y-2525000D01*
G75*
G02*
X31575000Y-2762500I0J-237500D01*
G01*
X31575000Y-3237500D01*
G75*
G02*
X31337500Y-3475000I-237500J0D01*
G01*
X30837500Y-3475000D01*
G75*
G02*
X30600000Y-3237500I0J237500D01*
G01*
G37*
D17*
X26500000Y-14000000D03*
X25550000Y-12000000D03*
X27450000Y-12000000D03*
X26500000Y-17500000D03*
X25550000Y-15500000D03*
X27450000Y-15500000D03*
D18*
X7200000Y-2500000D03*
X1800000Y-2500000D03*
X7200000Y-17500000D03*
X1800000Y-17500000D03*
D19*
X39500000Y-5000000D03*
X39500000Y-7000000D03*
X39500000Y-9000000D03*
X39500000Y-11000000D03*
X39500000Y-13000000D03*
G36*
G01*
X40125001Y-15600000D02*
X38874999Y-15600000D01*
G75*
G02*
X38625000Y-15350001I0J249999D01*
G01*
X38625000Y-14649999D01*
G75*
G02*
X38874999Y-14400000I249999J0D01*
G01*
X40125001Y-14400000D01*
G75*
G02*
X40375000Y-14649999I0J-249999D01*
G01*
X40375000Y-15350001D01*
G75*
G02*
X40125001Y-15600000I-249999J0D01*
G01*
G37*
D20*
X11550000Y-8400000D03*
X13450000Y-8400000D03*
X13450000Y-10600000D03*
D21*
X11730000Y-10600000D03*
G36*
G01*
X27550000Y-2549999D02*
X27550000Y-3450001D01*
G75*
G02*
X27300001Y-3700000I-249999J0D01*
G01*
X26649999Y-3700000D01*
G75*
G02*
X26400000Y-3450001I0J249999D01*
G01*
X26400000Y-2549999D01*
G75*
G02*
X26649999Y-2300000I249999J0D01*
G01*
X27300001Y-2300000D01*
G75*
G02*
X27550000Y-2549999I0J-249999D01*
G01*
G37*
G36*
G01*
X29600000Y-2549999D02*
X29600000Y-3450001D01*
G75*
G02*
X29350001Y-3700000I-249999J0D01*
G01*
X28699999Y-3700000D01*
G75*
G02*
X28450000Y-3450001I0J249999D01*
G01*
X28450000Y-2549999D01*
G75*
G02*
X28699999Y-2300000I249999J0D01*
G01*
X29350001Y-2300000D01*
G75*
G02*
X29600000Y-2549999I0J-249999D01*
G01*
G37*
G36*
G01*
X11737500Y-4675000D02*
X11262500Y-4675000D01*
G75*
G02*
X11025000Y-4437500I0J237500D01*
G01*
X11025000Y-3837500D01*
G75*
G02*
X11262500Y-3600000I237500J0D01*
G01*
X11737500Y-3600000D01*
G75*
G02*
X11975000Y-3837500I0J-237500D01*
G01*
X11975000Y-4437500D01*
G75*
G02*
X11737500Y-4675000I-237500J0D01*
G01*
G37*
G36*
G01*
X11737500Y-6400000D02*
X11262500Y-6400000D01*
G75*
G02*
X11025000Y-6162500I0J237500D01*
G01*
X11025000Y-5562500D01*
G75*
G02*
X11262500Y-5325000I237500J0D01*
G01*
X11737500Y-5325000D01*
G75*
G02*
X11975000Y-5562500I0J-237500D01*
G01*
X11975000Y-6162500D01*
G75*
G02*
X11737500Y-6400000I-237500J0D01*
G01*
G37*
G36*
G01*
X18325000Y-10737500D02*
X18325000Y-10262500D01*
G75*
G02*
X18562500Y-10025000I237500J0D01*
G01*
X19162500Y-10025000D01*
G75*
G02*
X19400000Y-10262500I0J-237500D01*
G01*
X19400000Y-10737500D01*
G75*
G02*
X19162500Y-10975000I-237500J0D01*
G01*
X18562500Y-10975000D01*
G75*
G02*
X18325000Y-10737500I0J237500D01*
G01*
G37*
G36*
G01*
X16600000Y-10737500D02*
X16600000Y-10262500D01*
G75*
G02*
X16837500Y-10025000I237500J0D01*
G01*
X17437500Y-10025000D01*
G75*
G02*
X17675000Y-10262500I0J-237500D01*
G01*
X17675000Y-10737500D01*
G75*
G02*
X17437500Y-10975000I-237500J0D01*
G01*
X16837500Y-10975000D01*
G75*
G02*
X16600000Y-10737500I0J237500D01*
G01*
G37*
G36*
G01*
X29150000Y-6425001D02*
X29150000Y-5574999D01*
G75*
G02*
X29399999Y-5325000I249999J0D01*
G01*
X30300001Y-5325000D01*
G75*
G02*
X30550000Y-5574999I0J-249999D01*
G01*
X30550000Y-6425001D01*
G75*
G02*
X30300001Y-6675000I-249999J0D01*
G01*
X29399999Y-6675000D01*
G75*
G02*
X29150000Y-6425001I0J249999D01*
G01*
G37*
G36*
G01*
X26450000Y-6425001D02*
X26450000Y-5574999D01*
G75*
G02*
X26699999Y-5325000I249999J0D01*
G01*
X27600001Y-5325000D01*
G75*
G02*
X27850000Y-5574999I0J-249999D01*
G01*
X27850000Y-6425001D01*
G75*
G02*
X27600001Y-6675000I-249999J0D01*
G01*
X26699999Y-6675000D01*
G75*
G02*
X26450000Y-6425001I0J249999D01*
G01*
G37*
G36*
G01*
X14425001Y-3850000D02*
X13574999Y-3850000D01*
G75*
G02*
X13325000Y-3600001I0J249999D01*
G01*
X13325000Y-2699999D01*
G75*
G02*
X13574999Y-2450000I249999J0D01*
G01*
X14425001Y-2450000D01*
G75*
G02*
X14675000Y-2699999I0J-249999D01*
G01*
X14675000Y-3600001D01*
G75*
G02*
X14425001Y-3850000I-249999J0D01*
G01*
G37*
G36*
G01*
X14425001Y-6550000D02*
X13574999Y-6550000D01*
G75*
G02*
X13325000Y-6300001I0J249999D01*
G01*
X13325000Y-5399999D01*
G75*
G02*
X13574999Y-5150000I249999J0D01*
G01*
X14425001Y-5150000D01*
G75*
G02*
X14675000Y-5399999I0J-249999D01*
G01*
X14675000Y-6300001D01*
G75*
G02*
X14425001Y-6550000I-249999J0D01*
G01*
G37*
G36*
G01*
X20100000Y-10737500D02*
X20100000Y-10262500D01*
G75*
G02*
X20337500Y-10025000I237500J0D01*
G01*
X20937500Y-10025000D01*
G75*
G02*
X21175000Y-10262500I0J-237500D01*
G01*
X21175000Y-10737500D01*
G75*
G02*
X20937500Y-10975000I-237500J0D01*
G01*
X20337500Y-10975000D01*
G75*
G02*
X20100000Y-10737500I0J237500D01*
G01*
G37*
G36*
G01*
X21825000Y-10737500D02*
X21825000Y-10262500D01*
G75*
G02*
X22062500Y-10025000I237500J0D01*
G01*
X22662500Y-10025000D01*
G75*
G02*
X22900000Y-10262500I0J-237500D01*
G01*
X22900000Y-10737500D01*
G75*
G02*
X22662500Y-10975000I-237500J0D01*
G01*
X22062500Y-10975000D01*
G75*
G02*
X21825000Y-10737500I0J237500D01*
G01*
G37*
D22*
X21500000Y-17500000D03*
D23*
X17500000Y-18500000D03*
D22*
X16500000Y-14500000D03*
D23*
X20500000Y-13500000D03*
X20000000Y-13500000D03*
X19500000Y-13500000D03*
X19000000Y-13500000D03*
X18500000Y-13500000D03*
X18000000Y-13500000D03*
X17500000Y-13500000D03*
D22*
X16500000Y-15000000D03*
X16500000Y-15500000D03*
X16500000Y-16000000D03*
X16500000Y-16500000D03*
X16500000Y-17000000D03*
X16500000Y-17500000D03*
D23*
X18000000Y-18500000D03*
X18500000Y-18500000D03*
X19000000Y-18500000D03*
X19500000Y-18500000D03*
X20000000Y-18500000D03*
X20500000Y-18500000D03*
D22*
X21500000Y-17000000D03*
X21500000Y-16500000D03*
X21500000Y-16000000D03*
X21500000Y-15500000D03*
X21500000Y-15000000D03*
X21500000Y-14500000D03*
D24*
X19000000Y-16000000D03*
M02*
