G04 #@! TF.GenerationSoftware,KiCad,Pcbnew,(5.1.10)-1*
G04 #@! TF.CreationDate,2021-07-09T15:56:30+09:00*
G04 #@! TF.ProjectId,esp_flasher,6573705f-666c-4617-9368-65722e6b6963,rev?*
G04 #@! TF.SameCoordinates,Original*
G04 #@! TF.FileFunction,Copper,L2,Bot*
G04 #@! TF.FilePolarity,Positive*
%FSLAX46Y46*%
G04 Gerber Fmt 4.6, Leading zero omitted, Abs format (unit mm)*
G04 Created by KiCad (PCBNEW (5.1.10)-1) date 2021-07-09 15:56:30*
%MOMM*%
%LPD*%
G01*
G04 APERTURE LIST*
G04 #@! TA.AperFunction,ComponentPad*
%ADD10O,1.900000X1.050000*%
G04 #@! TD*
G04 #@! TA.AperFunction,ComponentPad*
%ADD11O,1.750000X1.200000*%
G04 #@! TD*
G04 #@! TA.AperFunction,ViaPad*
%ADD12C,0.400000*%
G04 #@! TD*
G04 #@! TA.AperFunction,Conductor*
%ADD13C,0.250000*%
G04 #@! TD*
G04 #@! TA.AperFunction,Conductor*
%ADD14C,0.400000*%
G04 #@! TD*
G04 #@! TA.AperFunction,Conductor*
%ADD15C,0.254000*%
G04 #@! TD*
G04 #@! TA.AperFunction,Conductor*
%ADD16C,0.100000*%
G04 #@! TD*
G04 APERTURE END LIST*
D10*
X1500000Y-13575000D03*
X1500000Y-6425000D03*
D11*
X39500000Y-5000000D03*
X39500000Y-7000000D03*
X39500000Y-9000000D03*
X39500000Y-11000000D03*
X39500000Y-13000000D03*
G04 #@! TA.AperFunction,ComponentPad*
G36*
G01*
X40125001Y-15600000D02*
X38874999Y-15600000D01*
G75*
G02*
X38625000Y-15350001I0J249999D01*
G01*
X38625000Y-14649999D01*
G75*
G02*
X38874999Y-14400000I249999J0D01*
G01*
X40125001Y-14400000D01*
G75*
G02*
X40375000Y-14649999I0J-249999D01*
G01*
X40375000Y-15350001D01*
G75*
G02*
X40125001Y-15600000I-249999J0D01*
G01*
G37*
G04 #@! TD.AperFunction*
D12*
X17500000Y-9000000D03*
X28000000Y-9000000D03*
X15500000Y-6000000D03*
X20000000Y-11500000D03*
X9000000Y-7000000D03*
X15500000Y-13500000D03*
X14428770Y-10696233D03*
X15000000Y-9000000D03*
X32025000Y-13500000D03*
X27000000Y-11000000D03*
X19500000Y-8000000D03*
X10500000Y-17000000D03*
X20000000Y-10500000D03*
X17500000Y-12500000D03*
X12500000Y-8500000D03*
X14500000Y-10025000D03*
X23000000Y-13975000D03*
X10500000Y-19000000D03*
X27910002Y-15500000D03*
X28910002Y-16500000D03*
X31500000Y-11525000D03*
X12000000Y-2000000D03*
X25500000Y-15399997D03*
X25500000Y-16000000D03*
X27910002Y-14899997D03*
X29000000Y-15000000D03*
X19600003Y-19500000D03*
X34525000Y-15500000D03*
X34500000Y-8500000D03*
X33500000Y-7500000D03*
X19000000Y-19500000D03*
X34000000Y-16000000D03*
X34000000Y-9000000D03*
X33000000Y-8000000D03*
X29000000Y-14000000D03*
X26500000Y-14000000D03*
D13*
X15500000Y-6000000D02*
X18500000Y-6000000D01*
X21000000Y-8500000D02*
X21000000Y-9000000D01*
X18500000Y-6000000D02*
X21000000Y-8500000D01*
X21000000Y-9000000D02*
X28000000Y-9000000D01*
X17500000Y-9000000D02*
X21000000Y-9000000D01*
X21000000Y-10500000D02*
X21000000Y-9000000D01*
X20000000Y-11500000D02*
X21000000Y-10500000D01*
X15025001Y-9025001D02*
X15000000Y-9000000D01*
X14711612Y-10696233D02*
X15025001Y-10382844D01*
X15025001Y-10382844D02*
X15025001Y-9025001D01*
X14428770Y-10696233D02*
X14711612Y-10696233D01*
D14*
X29525000Y-11000000D02*
X27000000Y-11000000D01*
X32025000Y-13500000D02*
X29525000Y-11000000D01*
X17611998Y-8000000D02*
X16500000Y-9111998D01*
X19500000Y-8000000D02*
X17611998Y-8000000D01*
X16500000Y-9111998D02*
X16500000Y-9650321D01*
X16500000Y-11000000D02*
X10500000Y-17000000D01*
X16500000Y-9650321D02*
X16500000Y-11000000D01*
D13*
X18000000Y-12500000D02*
X20000000Y-10500000D01*
X17500000Y-12500000D02*
X18000000Y-12500000D01*
X14025000Y-10025000D02*
X14500000Y-10025000D01*
X12500000Y-8500000D02*
X14025000Y-10025000D01*
X17975000Y-19000000D02*
X10500000Y-19000000D01*
X23000000Y-13975000D02*
X17975000Y-19000000D01*
X27910002Y-15500000D02*
X28910002Y-16500000D01*
X31500000Y-11525000D02*
X31500000Y-6500000D01*
X27000000Y-2000000D02*
X31500000Y-6500000D01*
X12000000Y-2000000D02*
X27000000Y-2000000D01*
X37500000Y-7000000D02*
X37000000Y-6500000D01*
X39500000Y-7000000D02*
X37500000Y-7000000D01*
X31500000Y-6500000D02*
X37000000Y-6500000D01*
X25500000Y-15399997D02*
X26899997Y-15399997D01*
X28525001Y-17025001D02*
X31474999Y-17025001D01*
X26899997Y-15399997D02*
X28525001Y-17025001D01*
X37500000Y-11000000D02*
X36000000Y-12500000D01*
X39500000Y-11000000D02*
X37500000Y-11000000D01*
X31474999Y-17025001D02*
X36000000Y-12500000D01*
X25500000Y-16000000D02*
X26863590Y-16000000D01*
X28338601Y-17475011D02*
X31661400Y-17475010D01*
X26863590Y-16000000D02*
X28338601Y-17475011D01*
X36136410Y-13000000D02*
X35568205Y-13568205D01*
X39500000Y-13000000D02*
X36136410Y-13000000D01*
X31661400Y-17475010D02*
X35568205Y-13568205D01*
X28899997Y-14899997D02*
X29000000Y-15000000D01*
X27910002Y-14899997D02*
X28899997Y-14899997D01*
X19600003Y-19500000D02*
X20500000Y-18600003D01*
X34525000Y-16252002D02*
X34525000Y-15500000D01*
X32176999Y-18600003D02*
X34525000Y-16252002D01*
X20500000Y-18600003D02*
X32176999Y-18600003D01*
X34500000Y-8500000D02*
X33500000Y-7500000D01*
X19000000Y-19217158D02*
X20217158Y-18000000D01*
X19000000Y-19500000D02*
X19000000Y-19217158D01*
X20217158Y-18000000D02*
X32000000Y-18000000D01*
X32000000Y-18000000D02*
X34000000Y-16000000D01*
X34000000Y-9000000D02*
X33000000Y-8000000D01*
X29000000Y-14000000D02*
X26500000Y-14000000D01*
D15*
X42594001Y-19594000D02*
X20221594Y-19594000D01*
X20709592Y-19106003D01*
X32152153Y-19106003D01*
X32176999Y-19108450D01*
X32201845Y-19106003D01*
X32201853Y-19106003D01*
X32276192Y-19098681D01*
X32371574Y-19069748D01*
X32459478Y-19022762D01*
X32536526Y-18959530D01*
X32552375Y-18940218D01*
X34865220Y-16627374D01*
X34884527Y-16611529D01*
X34947759Y-16534481D01*
X34994745Y-16446577D01*
X35023678Y-16351195D01*
X35031000Y-16276856D01*
X35031000Y-16276855D01*
X35033448Y-16252002D01*
X35031000Y-16227148D01*
X35031000Y-15788489D01*
X35039875Y-15775207D01*
X35083672Y-15669471D01*
X35106000Y-15557223D01*
X35106000Y-15442777D01*
X35083672Y-15330529D01*
X35039875Y-15224793D01*
X34976292Y-15129634D01*
X34895366Y-15048708D01*
X34840173Y-15011829D01*
X35202003Y-14649999D01*
X38242157Y-14649999D01*
X38242157Y-15350001D01*
X38254317Y-15473462D01*
X38290329Y-15592179D01*
X38348810Y-15701589D01*
X38427512Y-15797488D01*
X38523411Y-15876190D01*
X38632821Y-15934671D01*
X38751538Y-15970683D01*
X38874999Y-15982843D01*
X40125001Y-15982843D01*
X40248462Y-15970683D01*
X40367179Y-15934671D01*
X40476589Y-15876190D01*
X40572488Y-15797488D01*
X40651190Y-15701589D01*
X40709671Y-15592179D01*
X40745683Y-15473462D01*
X40757843Y-15350001D01*
X40757843Y-14649999D01*
X40745683Y-14526538D01*
X40709671Y-14407821D01*
X40651190Y-14298411D01*
X40572488Y-14202512D01*
X40476589Y-14123810D01*
X40367179Y-14065329D01*
X40248462Y-14029317D01*
X40125001Y-14017157D01*
X38874999Y-14017157D01*
X38751538Y-14029317D01*
X38632821Y-14065329D01*
X38523411Y-14123810D01*
X38427512Y-14202512D01*
X38348810Y-14298411D01*
X38290329Y-14407821D01*
X38254317Y-14526538D01*
X38242157Y-14649999D01*
X35202003Y-14649999D01*
X35943575Y-13908427D01*
X35943579Y-13908422D01*
X36346002Y-13506000D01*
X38383119Y-13506000D01*
X38405382Y-13547651D01*
X38527972Y-13697028D01*
X38677349Y-13819618D01*
X38847771Y-13910711D01*
X39032690Y-13966805D01*
X39176813Y-13981000D01*
X39823187Y-13981000D01*
X39967310Y-13966805D01*
X40152229Y-13910711D01*
X40322651Y-13819618D01*
X40472028Y-13697028D01*
X40594618Y-13547651D01*
X40685711Y-13377229D01*
X40741805Y-13192310D01*
X40760746Y-13000000D01*
X40741805Y-12807690D01*
X40685711Y-12622771D01*
X40594618Y-12452349D01*
X40472028Y-12302972D01*
X40322651Y-12180382D01*
X40152229Y-12089289D01*
X39967310Y-12033195D01*
X39823187Y-12019000D01*
X39176813Y-12019000D01*
X39032690Y-12033195D01*
X38847771Y-12089289D01*
X38677349Y-12180382D01*
X38527972Y-12302972D01*
X38405382Y-12452349D01*
X38383119Y-12494000D01*
X36721591Y-12494000D01*
X37709592Y-11506000D01*
X38383119Y-11506000D01*
X38405382Y-11547651D01*
X38527972Y-11697028D01*
X38677349Y-11819618D01*
X38847771Y-11910711D01*
X39032690Y-11966805D01*
X39176813Y-11981000D01*
X39823187Y-11981000D01*
X39967310Y-11966805D01*
X40152229Y-11910711D01*
X40322651Y-11819618D01*
X40472028Y-11697028D01*
X40594618Y-11547651D01*
X40685711Y-11377229D01*
X40741805Y-11192310D01*
X40760746Y-11000000D01*
X40741805Y-10807690D01*
X40685711Y-10622771D01*
X40594618Y-10452349D01*
X40472028Y-10302972D01*
X40322651Y-10180382D01*
X40152229Y-10089289D01*
X39967310Y-10033195D01*
X39823187Y-10019000D01*
X39176813Y-10019000D01*
X39032690Y-10033195D01*
X38847771Y-10089289D01*
X38677349Y-10180382D01*
X38527972Y-10302972D01*
X38405382Y-10452349D01*
X38383119Y-10494000D01*
X37524845Y-10494000D01*
X37499999Y-10491553D01*
X37475153Y-10494000D01*
X37475146Y-10494000D01*
X37414219Y-10500001D01*
X37400806Y-10501322D01*
X37378607Y-10508056D01*
X37305425Y-10530255D01*
X37217521Y-10577241D01*
X37140473Y-10640473D01*
X37124628Y-10659780D01*
X35659783Y-12124626D01*
X35659778Y-12124630D01*
X31265408Y-16519001D01*
X29491002Y-16519001D01*
X29491002Y-16442777D01*
X29468674Y-16330529D01*
X29424877Y-16224793D01*
X29361294Y-16129634D01*
X29280368Y-16048708D01*
X29185209Y-15985125D01*
X29079473Y-15941328D01*
X29063805Y-15938211D01*
X28531590Y-15405997D01*
X28584339Y-15405997D01*
X28629634Y-15451292D01*
X28724793Y-15514875D01*
X28830529Y-15558672D01*
X28942777Y-15581000D01*
X29057223Y-15581000D01*
X29169471Y-15558672D01*
X29275207Y-15514875D01*
X29370366Y-15451292D01*
X29451292Y-15370366D01*
X29514875Y-15275207D01*
X29558672Y-15169471D01*
X29581000Y-15057223D01*
X29581000Y-14942777D01*
X29558672Y-14830529D01*
X29514875Y-14724793D01*
X29451292Y-14629634D01*
X29370366Y-14548708D01*
X29297469Y-14500000D01*
X29370366Y-14451292D01*
X29451292Y-14370366D01*
X29514875Y-14275207D01*
X29558672Y-14169471D01*
X29581000Y-14057223D01*
X29581000Y-13942777D01*
X29558672Y-13830529D01*
X29514875Y-13724793D01*
X29451292Y-13629634D01*
X29370366Y-13548708D01*
X29275207Y-13485125D01*
X29169471Y-13441328D01*
X29057223Y-13419000D01*
X28942777Y-13419000D01*
X28830529Y-13441328D01*
X28724793Y-13485125D01*
X28711511Y-13494000D01*
X26788489Y-13494000D01*
X26775207Y-13485125D01*
X26669471Y-13441328D01*
X26557223Y-13419000D01*
X26442777Y-13419000D01*
X26330529Y-13441328D01*
X26224793Y-13485125D01*
X26129634Y-13548708D01*
X26048708Y-13629634D01*
X25985125Y-13724793D01*
X25941328Y-13830529D01*
X25919000Y-13942777D01*
X25919000Y-14057223D01*
X25941328Y-14169471D01*
X25985125Y-14275207D01*
X26048708Y-14370366D01*
X26129634Y-14451292D01*
X26224793Y-14514875D01*
X26330529Y-14558672D01*
X26442777Y-14581000D01*
X26557223Y-14581000D01*
X26669471Y-14558672D01*
X26775207Y-14514875D01*
X26788489Y-14506000D01*
X27482341Y-14506000D01*
X27458710Y-14529631D01*
X27395127Y-14624790D01*
X27351330Y-14730526D01*
X27329002Y-14842774D01*
X27329002Y-14957220D01*
X27351330Y-15069468D01*
X27395127Y-15175204D01*
X27403850Y-15188259D01*
X27275373Y-15059782D01*
X27259524Y-15040470D01*
X27182476Y-14977238D01*
X27094572Y-14930252D01*
X26999190Y-14901319D01*
X26924851Y-14893997D01*
X26924843Y-14893997D01*
X26899997Y-14891550D01*
X26875151Y-14893997D01*
X25788489Y-14893997D01*
X25775207Y-14885122D01*
X25669471Y-14841325D01*
X25557223Y-14818997D01*
X25442777Y-14818997D01*
X25330529Y-14841325D01*
X25224793Y-14885122D01*
X25129634Y-14948705D01*
X25048708Y-15029631D01*
X24985125Y-15124790D01*
X24941328Y-15230526D01*
X24919000Y-15342774D01*
X24919000Y-15457220D01*
X24941328Y-15569468D01*
X24985125Y-15675204D01*
X25001692Y-15699998D01*
X24985125Y-15724793D01*
X24941328Y-15830529D01*
X24919000Y-15942777D01*
X24919000Y-16057223D01*
X24941328Y-16169471D01*
X24985125Y-16275207D01*
X25048708Y-16370366D01*
X25129634Y-16451292D01*
X25224793Y-16514875D01*
X25330529Y-16558672D01*
X25442777Y-16581000D01*
X25557223Y-16581000D01*
X25669471Y-16558672D01*
X25775207Y-16514875D01*
X25788489Y-16506000D01*
X26653999Y-16506000D01*
X27641998Y-17494000D01*
X20242003Y-17494000D01*
X20217157Y-17491553D01*
X20197059Y-17493532D01*
X23153803Y-14536789D01*
X23169471Y-14533672D01*
X23275207Y-14489875D01*
X23370366Y-14426292D01*
X23451292Y-14345366D01*
X23514875Y-14250207D01*
X23558672Y-14144471D01*
X23581000Y-14032223D01*
X23581000Y-13917777D01*
X23558672Y-13805529D01*
X23514875Y-13699793D01*
X23451292Y-13604634D01*
X23370366Y-13523708D01*
X23275207Y-13460125D01*
X23169471Y-13416328D01*
X23057223Y-13394000D01*
X22942777Y-13394000D01*
X22830529Y-13416328D01*
X22724793Y-13460125D01*
X22629634Y-13523708D01*
X22548708Y-13604634D01*
X22485125Y-13699793D01*
X22441328Y-13805529D01*
X22438211Y-13821197D01*
X17765409Y-18494000D01*
X10788489Y-18494000D01*
X10775207Y-18485125D01*
X10669471Y-18441328D01*
X10557223Y-18419000D01*
X10442777Y-18419000D01*
X10330529Y-18441328D01*
X10224793Y-18485125D01*
X10129634Y-18548708D01*
X10048708Y-18629634D01*
X9985125Y-18724793D01*
X9941328Y-18830529D01*
X9919000Y-18942777D01*
X9919000Y-19057223D01*
X9941328Y-19169471D01*
X9985125Y-19275207D01*
X10048708Y-19370366D01*
X10129634Y-19451292D01*
X10224793Y-19514875D01*
X10330529Y-19558672D01*
X10442777Y-19581000D01*
X10557223Y-19581000D01*
X10669471Y-19558672D01*
X10775207Y-19514875D01*
X10788489Y-19506000D01*
X17950154Y-19506000D01*
X17975000Y-19508447D01*
X17999846Y-19506000D01*
X17999854Y-19506000D01*
X18074193Y-19498678D01*
X18169575Y-19469745D01*
X18257479Y-19422759D01*
X18334527Y-19359527D01*
X18350376Y-19340215D01*
X18493533Y-19197059D01*
X18491782Y-19214830D01*
X18485125Y-19224793D01*
X18441328Y-19330529D01*
X18419000Y-19442777D01*
X18419000Y-19557223D01*
X18426316Y-19594000D01*
X406000Y-19594000D01*
X406000Y-17000000D01*
X9916189Y-17000000D01*
X9919000Y-17028540D01*
X9919000Y-17057223D01*
X9924596Y-17085356D01*
X9927407Y-17113895D01*
X9935732Y-17141340D01*
X9941328Y-17169471D01*
X9952304Y-17195969D01*
X9960629Y-17223414D01*
X9974148Y-17248707D01*
X9985125Y-17275207D01*
X10001062Y-17299058D01*
X10014579Y-17324347D01*
X10032769Y-17346511D01*
X10048708Y-17370366D01*
X10068996Y-17390654D01*
X10087184Y-17412816D01*
X10109346Y-17431004D01*
X10129634Y-17451292D01*
X10153489Y-17467231D01*
X10175653Y-17485421D01*
X10200942Y-17498938D01*
X10224793Y-17514875D01*
X10251293Y-17525852D01*
X10276586Y-17539371D01*
X10304031Y-17547696D01*
X10330529Y-17558672D01*
X10358660Y-17564268D01*
X10386105Y-17572593D01*
X10414644Y-17575404D01*
X10442777Y-17581000D01*
X10471460Y-17581000D01*
X10500000Y-17583811D01*
X10528540Y-17581000D01*
X10557223Y-17581000D01*
X10585356Y-17575404D01*
X10613895Y-17572593D01*
X10641340Y-17564268D01*
X10669471Y-17558672D01*
X10695969Y-17547696D01*
X10723414Y-17539371D01*
X10748707Y-17525852D01*
X10775207Y-17514875D01*
X10799058Y-17498938D01*
X10824347Y-17485421D01*
X10846511Y-17467231D01*
X10870366Y-17451292D01*
X10951292Y-17370366D01*
X10951294Y-17370363D01*
X15878880Y-12442777D01*
X16919000Y-12442777D01*
X16919000Y-12557223D01*
X16941328Y-12669471D01*
X16985125Y-12775207D01*
X17048708Y-12870366D01*
X17129634Y-12951292D01*
X17224793Y-13014875D01*
X17330529Y-13058672D01*
X17442777Y-13081000D01*
X17557223Y-13081000D01*
X17669471Y-13058672D01*
X17775207Y-13014875D01*
X17788489Y-13006000D01*
X17975154Y-13006000D01*
X18000000Y-13008447D01*
X18024846Y-13006000D01*
X18024854Y-13006000D01*
X18099193Y-12998678D01*
X18194575Y-12969745D01*
X18282479Y-12922759D01*
X18359527Y-12859527D01*
X18375376Y-12840215D01*
X20153803Y-11061789D01*
X20169471Y-11058672D01*
X20275207Y-11014875D01*
X20370366Y-10951292D01*
X20451292Y-10870366D01*
X20514875Y-10775207D01*
X20558672Y-10669471D01*
X20581000Y-10557223D01*
X20581000Y-10442777D01*
X20558672Y-10330529D01*
X20514875Y-10224793D01*
X20451292Y-10129634D01*
X20370366Y-10048708D01*
X20275207Y-9985125D01*
X20169471Y-9941328D01*
X20057223Y-9919000D01*
X19942777Y-9919000D01*
X19830529Y-9941328D01*
X19724793Y-9985125D01*
X19629634Y-10048708D01*
X19548708Y-10129634D01*
X19485125Y-10224793D01*
X19441328Y-10330529D01*
X19438211Y-10346197D01*
X17790409Y-11994000D01*
X17788489Y-11994000D01*
X17775207Y-11985125D01*
X17669471Y-11941328D01*
X17557223Y-11919000D01*
X17442777Y-11919000D01*
X17330529Y-11941328D01*
X17224793Y-11985125D01*
X17129634Y-12048708D01*
X17048708Y-12129634D01*
X16985125Y-12224793D01*
X16941328Y-12330529D01*
X16919000Y-12442777D01*
X15878880Y-12442777D01*
X16890645Y-11431013D01*
X16912817Y-11412817D01*
X16985421Y-11324348D01*
X17039371Y-11223415D01*
X17072593Y-11113896D01*
X17081000Y-11028540D01*
X17081000Y-11028538D01*
X17083811Y-11000001D01*
X17081000Y-10971464D01*
X17081000Y-9352655D01*
X17852656Y-8581000D01*
X19557223Y-8581000D01*
X19585355Y-8575404D01*
X19613896Y-8572593D01*
X19641343Y-8564267D01*
X19669471Y-8558672D01*
X19695966Y-8547698D01*
X19723415Y-8539371D01*
X19748711Y-8525850D01*
X19775207Y-8514875D01*
X19799054Y-8498941D01*
X19824348Y-8485421D01*
X19846518Y-8467227D01*
X19870366Y-8451292D01*
X19890645Y-8431013D01*
X19912817Y-8412817D01*
X19931013Y-8390645D01*
X19951292Y-8370366D01*
X19967227Y-8346518D01*
X19985421Y-8324348D01*
X19998941Y-8299054D01*
X20014875Y-8275207D01*
X20025850Y-8248711D01*
X20039371Y-8223415D01*
X20047698Y-8195966D01*
X20058672Y-8169471D01*
X20064267Y-8141343D01*
X20072593Y-8113896D01*
X20075404Y-8085355D01*
X20081000Y-8057223D01*
X20081000Y-8028540D01*
X20083811Y-8000000D01*
X20081000Y-7971460D01*
X20081000Y-7942777D01*
X20075404Y-7914645D01*
X20072593Y-7886104D01*
X20064267Y-7858657D01*
X20058672Y-7830529D01*
X20047698Y-7804034D01*
X20039371Y-7776585D01*
X20025850Y-7751289D01*
X20014875Y-7724793D01*
X19998941Y-7700946D01*
X19985421Y-7675652D01*
X19967227Y-7653482D01*
X19951292Y-7629634D01*
X19931013Y-7609355D01*
X19912817Y-7587183D01*
X19890645Y-7568987D01*
X19870366Y-7548708D01*
X19846518Y-7532773D01*
X19824348Y-7514579D01*
X19799054Y-7501059D01*
X19775207Y-7485125D01*
X19748711Y-7474150D01*
X19723415Y-7460629D01*
X19695966Y-7452302D01*
X19669471Y-7441328D01*
X19641343Y-7435733D01*
X19613896Y-7427407D01*
X19585355Y-7424596D01*
X19557223Y-7419000D01*
X17640538Y-7419000D01*
X17611998Y-7416189D01*
X17583458Y-7419000D01*
X17498102Y-7427407D01*
X17388583Y-7460629D01*
X17287650Y-7514579D01*
X17199181Y-7587183D01*
X17180985Y-7609355D01*
X16109360Y-8680981D01*
X16087183Y-8699181D01*
X16018824Y-8782478D01*
X16014579Y-8787651D01*
X15960629Y-8888584D01*
X15927407Y-8998103D01*
X15916189Y-9111998D01*
X15919000Y-9140538D01*
X15919000Y-9621782D01*
X15919001Y-10759341D01*
X10129637Y-16548706D01*
X10129634Y-16548708D01*
X10048708Y-16629634D01*
X10032769Y-16653489D01*
X10014579Y-16675653D01*
X10001062Y-16700942D01*
X9985125Y-16724793D01*
X9974148Y-16751293D01*
X9960629Y-16776586D01*
X9952304Y-16804031D01*
X9941328Y-16830529D01*
X9935732Y-16858660D01*
X9927407Y-16886105D01*
X9924596Y-16914644D01*
X9919000Y-16942777D01*
X9919000Y-16971460D01*
X9916189Y-17000000D01*
X406000Y-17000000D01*
X406000Y-14192546D01*
X466057Y-14257754D01*
X610956Y-14363434D01*
X773688Y-14438815D01*
X948000Y-14481000D01*
X1373000Y-14481000D01*
X1373000Y-13702000D01*
X1627000Y-13702000D01*
X1627000Y-14481000D01*
X2052000Y-14481000D01*
X2226312Y-14438815D01*
X2389044Y-14363434D01*
X2533943Y-14257754D01*
X2655441Y-14125836D01*
X2748869Y-13972750D01*
X2791144Y-13840767D01*
X2725741Y-13702000D01*
X1627000Y-13702000D01*
X1373000Y-13702000D01*
X1353000Y-13702000D01*
X1353000Y-13448000D01*
X1373000Y-13448000D01*
X1373000Y-12669000D01*
X1627000Y-12669000D01*
X1627000Y-13448000D01*
X2725741Y-13448000D01*
X2791144Y-13309233D01*
X2748869Y-13177250D01*
X2655441Y-13024164D01*
X2533943Y-12892246D01*
X2389044Y-12786566D01*
X2226312Y-12711185D01*
X2052000Y-12669000D01*
X1627000Y-12669000D01*
X1373000Y-12669000D01*
X948000Y-12669000D01*
X773688Y-12711185D01*
X610956Y-12786566D01*
X466057Y-12892246D01*
X406000Y-12957454D01*
X406000Y-8442777D01*
X11919000Y-8442777D01*
X11919000Y-8557223D01*
X11941328Y-8669471D01*
X11985125Y-8775207D01*
X12048708Y-8870366D01*
X12129634Y-8951292D01*
X12224793Y-9014875D01*
X12330529Y-9058672D01*
X12346198Y-9061789D01*
X13649628Y-10365220D01*
X13665473Y-10384527D01*
X13742521Y-10447759D01*
X13824453Y-10491553D01*
X13830425Y-10494745D01*
X13877451Y-10509010D01*
X13870098Y-10526762D01*
X13847770Y-10639010D01*
X13847770Y-10753456D01*
X13870098Y-10865704D01*
X13913895Y-10971440D01*
X13977478Y-11066599D01*
X14058404Y-11147525D01*
X14153563Y-11211108D01*
X14259299Y-11254905D01*
X14371547Y-11277233D01*
X14485993Y-11277233D01*
X14598241Y-11254905D01*
X14703977Y-11211108D01*
X14713940Y-11204451D01*
X14736458Y-11202233D01*
X14736466Y-11202233D01*
X14810805Y-11194911D01*
X14906187Y-11165978D01*
X14994091Y-11118992D01*
X15071139Y-11055760D01*
X15086988Y-11036448D01*
X15365216Y-10758220D01*
X15384528Y-10742371D01*
X15447760Y-10665323D01*
X15494746Y-10577419D01*
X15523679Y-10482037D01*
X15531001Y-10407698D01*
X15531001Y-10407690D01*
X15533448Y-10382844D01*
X15531001Y-10357998D01*
X15531001Y-9236275D01*
X15558672Y-9169471D01*
X15581000Y-9057223D01*
X15581000Y-8942777D01*
X15558672Y-8830529D01*
X15514875Y-8724793D01*
X15451292Y-8629634D01*
X15370366Y-8548708D01*
X15275207Y-8485125D01*
X15169471Y-8441328D01*
X15057223Y-8419000D01*
X14942777Y-8419000D01*
X14830529Y-8441328D01*
X14724793Y-8485125D01*
X14629634Y-8548708D01*
X14548708Y-8629634D01*
X14485125Y-8724793D01*
X14441328Y-8830529D01*
X14419000Y-8942777D01*
X14419000Y-9057223D01*
X14441328Y-9169471D01*
X14485125Y-9275207D01*
X14519002Y-9325907D01*
X14519002Y-9444000D01*
X14442777Y-9444000D01*
X14330529Y-9466328D01*
X14225446Y-9509854D01*
X13061789Y-8346198D01*
X13058672Y-8330529D01*
X13014875Y-8224793D01*
X12951292Y-8129634D01*
X12870366Y-8048708D01*
X12775207Y-7985125D01*
X12669471Y-7941328D01*
X12557223Y-7919000D01*
X12442777Y-7919000D01*
X12330529Y-7941328D01*
X12224793Y-7985125D01*
X12129634Y-8048708D01*
X12048708Y-8129634D01*
X11985125Y-8224793D01*
X11941328Y-8330529D01*
X11919000Y-8442777D01*
X406000Y-8442777D01*
X406000Y-7042546D01*
X466057Y-7107754D01*
X610956Y-7213434D01*
X773688Y-7288815D01*
X948000Y-7331000D01*
X1373000Y-7331000D01*
X1373000Y-6552000D01*
X1627000Y-6552000D01*
X1627000Y-7331000D01*
X2052000Y-7331000D01*
X2226312Y-7288815D01*
X2389044Y-7213434D01*
X2533943Y-7107754D01*
X2655441Y-6975836D01*
X2748869Y-6822750D01*
X2791144Y-6690767D01*
X2725741Y-6552000D01*
X1627000Y-6552000D01*
X1373000Y-6552000D01*
X1353000Y-6552000D01*
X1353000Y-6298000D01*
X1373000Y-6298000D01*
X1373000Y-5519000D01*
X1627000Y-5519000D01*
X1627000Y-6298000D01*
X2725741Y-6298000D01*
X2791144Y-6159233D01*
X2748869Y-6027250D01*
X2655441Y-5874164D01*
X2533943Y-5742246D01*
X2389044Y-5636566D01*
X2226312Y-5561185D01*
X2052000Y-5519000D01*
X1627000Y-5519000D01*
X1373000Y-5519000D01*
X948000Y-5519000D01*
X773688Y-5561185D01*
X610956Y-5636566D01*
X466057Y-5742246D01*
X406000Y-5807454D01*
X406000Y-1942777D01*
X11419000Y-1942777D01*
X11419000Y-2057223D01*
X11441328Y-2169471D01*
X11485125Y-2275207D01*
X11548708Y-2370366D01*
X11629634Y-2451292D01*
X11724793Y-2514875D01*
X11830529Y-2558672D01*
X11942777Y-2581000D01*
X12057223Y-2581000D01*
X12169471Y-2558672D01*
X12275207Y-2514875D01*
X12288489Y-2506000D01*
X26790409Y-2506000D01*
X30994001Y-6709593D01*
X30994000Y-11236510D01*
X30985125Y-11249793D01*
X30941328Y-11355529D01*
X30919000Y-11467777D01*
X30919000Y-11572343D01*
X29956017Y-10609360D01*
X29937817Y-10587183D01*
X29849348Y-10514579D01*
X29748415Y-10460629D01*
X29638896Y-10427407D01*
X29553540Y-10419000D01*
X29525000Y-10416189D01*
X29496460Y-10419000D01*
X26942777Y-10419000D01*
X26914645Y-10424596D01*
X26886104Y-10427407D01*
X26858657Y-10435733D01*
X26830529Y-10441328D01*
X26804034Y-10452302D01*
X26776585Y-10460629D01*
X26751289Y-10474150D01*
X26724793Y-10485125D01*
X26700946Y-10501059D01*
X26675652Y-10514579D01*
X26653482Y-10532773D01*
X26629634Y-10548708D01*
X26609355Y-10568987D01*
X26587183Y-10587183D01*
X26568987Y-10609355D01*
X26548708Y-10629634D01*
X26532773Y-10653482D01*
X26514579Y-10675652D01*
X26501059Y-10700946D01*
X26485125Y-10724793D01*
X26474150Y-10751289D01*
X26460629Y-10776585D01*
X26452302Y-10804034D01*
X26441328Y-10830529D01*
X26435733Y-10858657D01*
X26427407Y-10886104D01*
X26424596Y-10914645D01*
X26419000Y-10942777D01*
X26419000Y-10971460D01*
X26416189Y-11000000D01*
X26419000Y-11028540D01*
X26419000Y-11057223D01*
X26424596Y-11085355D01*
X26427407Y-11113896D01*
X26435733Y-11141343D01*
X26441328Y-11169471D01*
X26452302Y-11195966D01*
X26460629Y-11223415D01*
X26474150Y-11248711D01*
X26485125Y-11275207D01*
X26501059Y-11299054D01*
X26514579Y-11324348D01*
X26532773Y-11346518D01*
X26548708Y-11370366D01*
X26568987Y-11390645D01*
X26587183Y-11412817D01*
X26609355Y-11431013D01*
X26629634Y-11451292D01*
X26653482Y-11467227D01*
X26675652Y-11485421D01*
X26700946Y-11498941D01*
X26724793Y-11514875D01*
X26751289Y-11525850D01*
X26776585Y-11539371D01*
X26804034Y-11547698D01*
X26830529Y-11558672D01*
X26858657Y-11564267D01*
X26886104Y-11572593D01*
X26914645Y-11575404D01*
X26942777Y-11581000D01*
X29284343Y-11581000D01*
X31573708Y-13870366D01*
X31654634Y-13951292D01*
X31678483Y-13967227D01*
X31700652Y-13985421D01*
X31725946Y-13998941D01*
X31749793Y-14014875D01*
X31776289Y-14025850D01*
X31801585Y-14039371D01*
X31829034Y-14047698D01*
X31855529Y-14058672D01*
X31883657Y-14064267D01*
X31911104Y-14072593D01*
X31939645Y-14075404D01*
X31967777Y-14081000D01*
X31996460Y-14081000D01*
X32025000Y-14083811D01*
X32053540Y-14081000D01*
X32082223Y-14081000D01*
X32110356Y-14075404D01*
X32138895Y-14072593D01*
X32166340Y-14064268D01*
X32194471Y-14058672D01*
X32220969Y-14047696D01*
X32248414Y-14039371D01*
X32273707Y-14025852D01*
X32300207Y-14014875D01*
X32324058Y-13998938D01*
X32349347Y-13985421D01*
X32371511Y-13967231D01*
X32395366Y-13951292D01*
X32415654Y-13931004D01*
X32437816Y-13912816D01*
X32456004Y-13890654D01*
X32476292Y-13870366D01*
X32492231Y-13846511D01*
X32510421Y-13824347D01*
X32523938Y-13799058D01*
X32539875Y-13775207D01*
X32550852Y-13748707D01*
X32564371Y-13723414D01*
X32572696Y-13695969D01*
X32583672Y-13669471D01*
X32589268Y-13641340D01*
X32597593Y-13613895D01*
X32600404Y-13585356D01*
X32606000Y-13557223D01*
X32606000Y-13528540D01*
X32608811Y-13500000D01*
X32606000Y-13471460D01*
X32606000Y-13442777D01*
X32600404Y-13414645D01*
X32597593Y-13386104D01*
X32589267Y-13358657D01*
X32583672Y-13330529D01*
X32572698Y-13304034D01*
X32564371Y-13276585D01*
X32550850Y-13251289D01*
X32539875Y-13224793D01*
X32523941Y-13200946D01*
X32510421Y-13175652D01*
X32492227Y-13153483D01*
X32476292Y-13129634D01*
X31452658Y-12106000D01*
X31557223Y-12106000D01*
X31669471Y-12083672D01*
X31775207Y-12039875D01*
X31870366Y-11976292D01*
X31951292Y-11895366D01*
X32014875Y-11800207D01*
X32058672Y-11694471D01*
X32081000Y-11582223D01*
X32081000Y-11467777D01*
X32058672Y-11355529D01*
X32014875Y-11249793D01*
X32006000Y-11236511D01*
X32006000Y-7006000D01*
X33193551Y-7006000D01*
X33129634Y-7048708D01*
X33048708Y-7129634D01*
X32985125Y-7224793D01*
X32941328Y-7330529D01*
X32922945Y-7422945D01*
X32830529Y-7441328D01*
X32724793Y-7485125D01*
X32629634Y-7548708D01*
X32548708Y-7629634D01*
X32485125Y-7724793D01*
X32441328Y-7830529D01*
X32419000Y-7942777D01*
X32419000Y-8057223D01*
X32441328Y-8169471D01*
X32485125Y-8275207D01*
X32548708Y-8370366D01*
X32629634Y-8451292D01*
X32724793Y-8514875D01*
X32830529Y-8558672D01*
X32846198Y-8561789D01*
X33438211Y-9153803D01*
X33441328Y-9169471D01*
X33485125Y-9275207D01*
X33548708Y-9370366D01*
X33629634Y-9451292D01*
X33724793Y-9514875D01*
X33830529Y-9558672D01*
X33942777Y-9581000D01*
X34057223Y-9581000D01*
X34169471Y-9558672D01*
X34275207Y-9514875D01*
X34370366Y-9451292D01*
X34451292Y-9370366D01*
X34513271Y-9277607D01*
X38284098Y-9277607D01*
X38338771Y-9439418D01*
X38441526Y-9603869D01*
X38574389Y-9745114D01*
X38732255Y-9857725D01*
X38909057Y-9937374D01*
X39098000Y-9981000D01*
X39373000Y-9981000D01*
X39373000Y-9127000D01*
X39627000Y-9127000D01*
X39627000Y-9981000D01*
X39902000Y-9981000D01*
X40090943Y-9937374D01*
X40267745Y-9857725D01*
X40425611Y-9745114D01*
X40558474Y-9603869D01*
X40661229Y-9439418D01*
X40715902Y-9277607D01*
X40651598Y-9127000D01*
X39627000Y-9127000D01*
X39373000Y-9127000D01*
X38348402Y-9127000D01*
X38284098Y-9277607D01*
X34513271Y-9277607D01*
X34514875Y-9275207D01*
X34558672Y-9169471D01*
X34577055Y-9077055D01*
X34669471Y-9058672D01*
X34775207Y-9014875D01*
X34870366Y-8951292D01*
X34951292Y-8870366D01*
X35014875Y-8775207D01*
X35036751Y-8722393D01*
X38284098Y-8722393D01*
X38348402Y-8873000D01*
X39373000Y-8873000D01*
X39373000Y-8019000D01*
X39627000Y-8019000D01*
X39627000Y-8873000D01*
X40651598Y-8873000D01*
X40715902Y-8722393D01*
X40661229Y-8560582D01*
X40558474Y-8396131D01*
X40425611Y-8254886D01*
X40267745Y-8142275D01*
X40090943Y-8062626D01*
X39902000Y-8019000D01*
X39627000Y-8019000D01*
X39373000Y-8019000D01*
X39098000Y-8019000D01*
X38909057Y-8062626D01*
X38732255Y-8142275D01*
X38574389Y-8254886D01*
X38441526Y-8396131D01*
X38338771Y-8560582D01*
X38284098Y-8722393D01*
X35036751Y-8722393D01*
X35058672Y-8669471D01*
X35081000Y-8557223D01*
X35081000Y-8442777D01*
X35058672Y-8330529D01*
X35014875Y-8224793D01*
X34951292Y-8129634D01*
X34870366Y-8048708D01*
X34775207Y-7985125D01*
X34669471Y-7941328D01*
X34653803Y-7938211D01*
X34061789Y-7346198D01*
X34058672Y-7330529D01*
X34014875Y-7224793D01*
X33951292Y-7129634D01*
X33870366Y-7048708D01*
X33806449Y-7006000D01*
X36790409Y-7006000D01*
X37124628Y-7340220D01*
X37140473Y-7359527D01*
X37217521Y-7422759D01*
X37305425Y-7469745D01*
X37400807Y-7498678D01*
X37500000Y-7508448D01*
X37524854Y-7506000D01*
X38383119Y-7506000D01*
X38405382Y-7547651D01*
X38527972Y-7697028D01*
X38677349Y-7819618D01*
X38847771Y-7910711D01*
X39032690Y-7966805D01*
X39176813Y-7981000D01*
X39823187Y-7981000D01*
X39967310Y-7966805D01*
X40152229Y-7910711D01*
X40322651Y-7819618D01*
X40472028Y-7697028D01*
X40594618Y-7547651D01*
X40685711Y-7377229D01*
X40741805Y-7192310D01*
X40760746Y-7000000D01*
X40741805Y-6807690D01*
X40685711Y-6622771D01*
X40594618Y-6452349D01*
X40472028Y-6302972D01*
X40322651Y-6180382D01*
X40152229Y-6089289D01*
X39967310Y-6033195D01*
X39823187Y-6019000D01*
X39176813Y-6019000D01*
X39032690Y-6033195D01*
X38847771Y-6089289D01*
X38677349Y-6180382D01*
X38527972Y-6302972D01*
X38405382Y-6452349D01*
X38383119Y-6494000D01*
X37709592Y-6494000D01*
X37375376Y-6159785D01*
X37359527Y-6140473D01*
X37282479Y-6077241D01*
X37194575Y-6030255D01*
X37099193Y-6001322D01*
X37024854Y-5994000D01*
X37024846Y-5994000D01*
X37000000Y-5991553D01*
X36975154Y-5994000D01*
X31709592Y-5994000D01*
X30715592Y-5000000D01*
X38239254Y-5000000D01*
X38258195Y-5192310D01*
X38314289Y-5377229D01*
X38405382Y-5547651D01*
X38527972Y-5697028D01*
X38677349Y-5819618D01*
X38847771Y-5910711D01*
X39032690Y-5966805D01*
X39176813Y-5981000D01*
X39823187Y-5981000D01*
X39967310Y-5966805D01*
X40152229Y-5910711D01*
X40322651Y-5819618D01*
X40472028Y-5697028D01*
X40594618Y-5547651D01*
X40685711Y-5377229D01*
X40741805Y-5192310D01*
X40760746Y-5000000D01*
X40741805Y-4807690D01*
X40685711Y-4622771D01*
X40594618Y-4452349D01*
X40472028Y-4302972D01*
X40322651Y-4180382D01*
X40152229Y-4089289D01*
X39967310Y-4033195D01*
X39823187Y-4019000D01*
X39176813Y-4019000D01*
X39032690Y-4033195D01*
X38847771Y-4089289D01*
X38677349Y-4180382D01*
X38527972Y-4302972D01*
X38405382Y-4452349D01*
X38314289Y-4622771D01*
X38258195Y-4807690D01*
X38239254Y-5000000D01*
X30715592Y-5000000D01*
X27375376Y-1659785D01*
X27359527Y-1640473D01*
X27282479Y-1577241D01*
X27194575Y-1530255D01*
X27099193Y-1501322D01*
X27024854Y-1494000D01*
X27024846Y-1494000D01*
X27000000Y-1491553D01*
X26975154Y-1494000D01*
X12288489Y-1494000D01*
X12275207Y-1485125D01*
X12169471Y-1441328D01*
X12057223Y-1419000D01*
X11942777Y-1419000D01*
X11830529Y-1441328D01*
X11724793Y-1485125D01*
X11629634Y-1548708D01*
X11548708Y-1629634D01*
X11485125Y-1724793D01*
X11441328Y-1830529D01*
X11419000Y-1942777D01*
X406000Y-1942777D01*
X406000Y-406000D01*
X42594000Y-406000D01*
X42594001Y-19594000D01*
G04 #@! TA.AperFunction,Conductor*
D16*
G36*
X42594001Y-19594000D02*
G01*
X20221594Y-19594000D01*
X20709592Y-19106003D01*
X32152153Y-19106003D01*
X32176999Y-19108450D01*
X32201845Y-19106003D01*
X32201853Y-19106003D01*
X32276192Y-19098681D01*
X32371574Y-19069748D01*
X32459478Y-19022762D01*
X32536526Y-18959530D01*
X32552375Y-18940218D01*
X34865220Y-16627374D01*
X34884527Y-16611529D01*
X34947759Y-16534481D01*
X34994745Y-16446577D01*
X35023678Y-16351195D01*
X35031000Y-16276856D01*
X35031000Y-16276855D01*
X35033448Y-16252002D01*
X35031000Y-16227148D01*
X35031000Y-15788489D01*
X35039875Y-15775207D01*
X35083672Y-15669471D01*
X35106000Y-15557223D01*
X35106000Y-15442777D01*
X35083672Y-15330529D01*
X35039875Y-15224793D01*
X34976292Y-15129634D01*
X34895366Y-15048708D01*
X34840173Y-15011829D01*
X35202003Y-14649999D01*
X38242157Y-14649999D01*
X38242157Y-15350001D01*
X38254317Y-15473462D01*
X38290329Y-15592179D01*
X38348810Y-15701589D01*
X38427512Y-15797488D01*
X38523411Y-15876190D01*
X38632821Y-15934671D01*
X38751538Y-15970683D01*
X38874999Y-15982843D01*
X40125001Y-15982843D01*
X40248462Y-15970683D01*
X40367179Y-15934671D01*
X40476589Y-15876190D01*
X40572488Y-15797488D01*
X40651190Y-15701589D01*
X40709671Y-15592179D01*
X40745683Y-15473462D01*
X40757843Y-15350001D01*
X40757843Y-14649999D01*
X40745683Y-14526538D01*
X40709671Y-14407821D01*
X40651190Y-14298411D01*
X40572488Y-14202512D01*
X40476589Y-14123810D01*
X40367179Y-14065329D01*
X40248462Y-14029317D01*
X40125001Y-14017157D01*
X38874999Y-14017157D01*
X38751538Y-14029317D01*
X38632821Y-14065329D01*
X38523411Y-14123810D01*
X38427512Y-14202512D01*
X38348810Y-14298411D01*
X38290329Y-14407821D01*
X38254317Y-14526538D01*
X38242157Y-14649999D01*
X35202003Y-14649999D01*
X35943575Y-13908427D01*
X35943579Y-13908422D01*
X36346002Y-13506000D01*
X38383119Y-13506000D01*
X38405382Y-13547651D01*
X38527972Y-13697028D01*
X38677349Y-13819618D01*
X38847771Y-13910711D01*
X39032690Y-13966805D01*
X39176813Y-13981000D01*
X39823187Y-13981000D01*
X39967310Y-13966805D01*
X40152229Y-13910711D01*
X40322651Y-13819618D01*
X40472028Y-13697028D01*
X40594618Y-13547651D01*
X40685711Y-13377229D01*
X40741805Y-13192310D01*
X40760746Y-13000000D01*
X40741805Y-12807690D01*
X40685711Y-12622771D01*
X40594618Y-12452349D01*
X40472028Y-12302972D01*
X40322651Y-12180382D01*
X40152229Y-12089289D01*
X39967310Y-12033195D01*
X39823187Y-12019000D01*
X39176813Y-12019000D01*
X39032690Y-12033195D01*
X38847771Y-12089289D01*
X38677349Y-12180382D01*
X38527972Y-12302972D01*
X38405382Y-12452349D01*
X38383119Y-12494000D01*
X36721591Y-12494000D01*
X37709592Y-11506000D01*
X38383119Y-11506000D01*
X38405382Y-11547651D01*
X38527972Y-11697028D01*
X38677349Y-11819618D01*
X38847771Y-11910711D01*
X39032690Y-11966805D01*
X39176813Y-11981000D01*
X39823187Y-11981000D01*
X39967310Y-11966805D01*
X40152229Y-11910711D01*
X40322651Y-11819618D01*
X40472028Y-11697028D01*
X40594618Y-11547651D01*
X40685711Y-11377229D01*
X40741805Y-11192310D01*
X40760746Y-11000000D01*
X40741805Y-10807690D01*
X40685711Y-10622771D01*
X40594618Y-10452349D01*
X40472028Y-10302972D01*
X40322651Y-10180382D01*
X40152229Y-10089289D01*
X39967310Y-10033195D01*
X39823187Y-10019000D01*
X39176813Y-10019000D01*
X39032690Y-10033195D01*
X38847771Y-10089289D01*
X38677349Y-10180382D01*
X38527972Y-10302972D01*
X38405382Y-10452349D01*
X38383119Y-10494000D01*
X37524845Y-10494000D01*
X37499999Y-10491553D01*
X37475153Y-10494000D01*
X37475146Y-10494000D01*
X37414219Y-10500001D01*
X37400806Y-10501322D01*
X37378607Y-10508056D01*
X37305425Y-10530255D01*
X37217521Y-10577241D01*
X37140473Y-10640473D01*
X37124628Y-10659780D01*
X35659783Y-12124626D01*
X35659778Y-12124630D01*
X31265408Y-16519001D01*
X29491002Y-16519001D01*
X29491002Y-16442777D01*
X29468674Y-16330529D01*
X29424877Y-16224793D01*
X29361294Y-16129634D01*
X29280368Y-16048708D01*
X29185209Y-15985125D01*
X29079473Y-15941328D01*
X29063805Y-15938211D01*
X28531590Y-15405997D01*
X28584339Y-15405997D01*
X28629634Y-15451292D01*
X28724793Y-15514875D01*
X28830529Y-15558672D01*
X28942777Y-15581000D01*
X29057223Y-15581000D01*
X29169471Y-15558672D01*
X29275207Y-15514875D01*
X29370366Y-15451292D01*
X29451292Y-15370366D01*
X29514875Y-15275207D01*
X29558672Y-15169471D01*
X29581000Y-15057223D01*
X29581000Y-14942777D01*
X29558672Y-14830529D01*
X29514875Y-14724793D01*
X29451292Y-14629634D01*
X29370366Y-14548708D01*
X29297469Y-14500000D01*
X29370366Y-14451292D01*
X29451292Y-14370366D01*
X29514875Y-14275207D01*
X29558672Y-14169471D01*
X29581000Y-14057223D01*
X29581000Y-13942777D01*
X29558672Y-13830529D01*
X29514875Y-13724793D01*
X29451292Y-13629634D01*
X29370366Y-13548708D01*
X29275207Y-13485125D01*
X29169471Y-13441328D01*
X29057223Y-13419000D01*
X28942777Y-13419000D01*
X28830529Y-13441328D01*
X28724793Y-13485125D01*
X28711511Y-13494000D01*
X26788489Y-13494000D01*
X26775207Y-13485125D01*
X26669471Y-13441328D01*
X26557223Y-13419000D01*
X26442777Y-13419000D01*
X26330529Y-13441328D01*
X26224793Y-13485125D01*
X26129634Y-13548708D01*
X26048708Y-13629634D01*
X25985125Y-13724793D01*
X25941328Y-13830529D01*
X25919000Y-13942777D01*
X25919000Y-14057223D01*
X25941328Y-14169471D01*
X25985125Y-14275207D01*
X26048708Y-14370366D01*
X26129634Y-14451292D01*
X26224793Y-14514875D01*
X26330529Y-14558672D01*
X26442777Y-14581000D01*
X26557223Y-14581000D01*
X26669471Y-14558672D01*
X26775207Y-14514875D01*
X26788489Y-14506000D01*
X27482341Y-14506000D01*
X27458710Y-14529631D01*
X27395127Y-14624790D01*
X27351330Y-14730526D01*
X27329002Y-14842774D01*
X27329002Y-14957220D01*
X27351330Y-15069468D01*
X27395127Y-15175204D01*
X27403850Y-15188259D01*
X27275373Y-15059782D01*
X27259524Y-15040470D01*
X27182476Y-14977238D01*
X27094572Y-14930252D01*
X26999190Y-14901319D01*
X26924851Y-14893997D01*
X26924843Y-14893997D01*
X26899997Y-14891550D01*
X26875151Y-14893997D01*
X25788489Y-14893997D01*
X25775207Y-14885122D01*
X25669471Y-14841325D01*
X25557223Y-14818997D01*
X25442777Y-14818997D01*
X25330529Y-14841325D01*
X25224793Y-14885122D01*
X25129634Y-14948705D01*
X25048708Y-15029631D01*
X24985125Y-15124790D01*
X24941328Y-15230526D01*
X24919000Y-15342774D01*
X24919000Y-15457220D01*
X24941328Y-15569468D01*
X24985125Y-15675204D01*
X25001692Y-15699998D01*
X24985125Y-15724793D01*
X24941328Y-15830529D01*
X24919000Y-15942777D01*
X24919000Y-16057223D01*
X24941328Y-16169471D01*
X24985125Y-16275207D01*
X25048708Y-16370366D01*
X25129634Y-16451292D01*
X25224793Y-16514875D01*
X25330529Y-16558672D01*
X25442777Y-16581000D01*
X25557223Y-16581000D01*
X25669471Y-16558672D01*
X25775207Y-16514875D01*
X25788489Y-16506000D01*
X26653999Y-16506000D01*
X27641998Y-17494000D01*
X20242003Y-17494000D01*
X20217157Y-17491553D01*
X20197059Y-17493532D01*
X23153803Y-14536789D01*
X23169471Y-14533672D01*
X23275207Y-14489875D01*
X23370366Y-14426292D01*
X23451292Y-14345366D01*
X23514875Y-14250207D01*
X23558672Y-14144471D01*
X23581000Y-14032223D01*
X23581000Y-13917777D01*
X23558672Y-13805529D01*
X23514875Y-13699793D01*
X23451292Y-13604634D01*
X23370366Y-13523708D01*
X23275207Y-13460125D01*
X23169471Y-13416328D01*
X23057223Y-13394000D01*
X22942777Y-13394000D01*
X22830529Y-13416328D01*
X22724793Y-13460125D01*
X22629634Y-13523708D01*
X22548708Y-13604634D01*
X22485125Y-13699793D01*
X22441328Y-13805529D01*
X22438211Y-13821197D01*
X17765409Y-18494000D01*
X10788489Y-18494000D01*
X10775207Y-18485125D01*
X10669471Y-18441328D01*
X10557223Y-18419000D01*
X10442777Y-18419000D01*
X10330529Y-18441328D01*
X10224793Y-18485125D01*
X10129634Y-18548708D01*
X10048708Y-18629634D01*
X9985125Y-18724793D01*
X9941328Y-18830529D01*
X9919000Y-18942777D01*
X9919000Y-19057223D01*
X9941328Y-19169471D01*
X9985125Y-19275207D01*
X10048708Y-19370366D01*
X10129634Y-19451292D01*
X10224793Y-19514875D01*
X10330529Y-19558672D01*
X10442777Y-19581000D01*
X10557223Y-19581000D01*
X10669471Y-19558672D01*
X10775207Y-19514875D01*
X10788489Y-19506000D01*
X17950154Y-19506000D01*
X17975000Y-19508447D01*
X17999846Y-19506000D01*
X17999854Y-19506000D01*
X18074193Y-19498678D01*
X18169575Y-19469745D01*
X18257479Y-19422759D01*
X18334527Y-19359527D01*
X18350376Y-19340215D01*
X18493533Y-19197059D01*
X18491782Y-19214830D01*
X18485125Y-19224793D01*
X18441328Y-19330529D01*
X18419000Y-19442777D01*
X18419000Y-19557223D01*
X18426316Y-19594000D01*
X406000Y-19594000D01*
X406000Y-17000000D01*
X9916189Y-17000000D01*
X9919000Y-17028540D01*
X9919000Y-17057223D01*
X9924596Y-17085356D01*
X9927407Y-17113895D01*
X9935732Y-17141340D01*
X9941328Y-17169471D01*
X9952304Y-17195969D01*
X9960629Y-17223414D01*
X9974148Y-17248707D01*
X9985125Y-17275207D01*
X10001062Y-17299058D01*
X10014579Y-17324347D01*
X10032769Y-17346511D01*
X10048708Y-17370366D01*
X10068996Y-17390654D01*
X10087184Y-17412816D01*
X10109346Y-17431004D01*
X10129634Y-17451292D01*
X10153489Y-17467231D01*
X10175653Y-17485421D01*
X10200942Y-17498938D01*
X10224793Y-17514875D01*
X10251293Y-17525852D01*
X10276586Y-17539371D01*
X10304031Y-17547696D01*
X10330529Y-17558672D01*
X10358660Y-17564268D01*
X10386105Y-17572593D01*
X10414644Y-17575404D01*
X10442777Y-17581000D01*
X10471460Y-17581000D01*
X10500000Y-17583811D01*
X10528540Y-17581000D01*
X10557223Y-17581000D01*
X10585356Y-17575404D01*
X10613895Y-17572593D01*
X10641340Y-17564268D01*
X10669471Y-17558672D01*
X10695969Y-17547696D01*
X10723414Y-17539371D01*
X10748707Y-17525852D01*
X10775207Y-17514875D01*
X10799058Y-17498938D01*
X10824347Y-17485421D01*
X10846511Y-17467231D01*
X10870366Y-17451292D01*
X10951292Y-17370366D01*
X10951294Y-17370363D01*
X15878880Y-12442777D01*
X16919000Y-12442777D01*
X16919000Y-12557223D01*
X16941328Y-12669471D01*
X16985125Y-12775207D01*
X17048708Y-12870366D01*
X17129634Y-12951292D01*
X17224793Y-13014875D01*
X17330529Y-13058672D01*
X17442777Y-13081000D01*
X17557223Y-13081000D01*
X17669471Y-13058672D01*
X17775207Y-13014875D01*
X17788489Y-13006000D01*
X17975154Y-13006000D01*
X18000000Y-13008447D01*
X18024846Y-13006000D01*
X18024854Y-13006000D01*
X18099193Y-12998678D01*
X18194575Y-12969745D01*
X18282479Y-12922759D01*
X18359527Y-12859527D01*
X18375376Y-12840215D01*
X20153803Y-11061789D01*
X20169471Y-11058672D01*
X20275207Y-11014875D01*
X20370366Y-10951292D01*
X20451292Y-10870366D01*
X20514875Y-10775207D01*
X20558672Y-10669471D01*
X20581000Y-10557223D01*
X20581000Y-10442777D01*
X20558672Y-10330529D01*
X20514875Y-10224793D01*
X20451292Y-10129634D01*
X20370366Y-10048708D01*
X20275207Y-9985125D01*
X20169471Y-9941328D01*
X20057223Y-9919000D01*
X19942777Y-9919000D01*
X19830529Y-9941328D01*
X19724793Y-9985125D01*
X19629634Y-10048708D01*
X19548708Y-10129634D01*
X19485125Y-10224793D01*
X19441328Y-10330529D01*
X19438211Y-10346197D01*
X17790409Y-11994000D01*
X17788489Y-11994000D01*
X17775207Y-11985125D01*
X17669471Y-11941328D01*
X17557223Y-11919000D01*
X17442777Y-11919000D01*
X17330529Y-11941328D01*
X17224793Y-11985125D01*
X17129634Y-12048708D01*
X17048708Y-12129634D01*
X16985125Y-12224793D01*
X16941328Y-12330529D01*
X16919000Y-12442777D01*
X15878880Y-12442777D01*
X16890645Y-11431013D01*
X16912817Y-11412817D01*
X16985421Y-11324348D01*
X17039371Y-11223415D01*
X17072593Y-11113896D01*
X17081000Y-11028540D01*
X17081000Y-11028538D01*
X17083811Y-11000001D01*
X17081000Y-10971464D01*
X17081000Y-9352655D01*
X17852656Y-8581000D01*
X19557223Y-8581000D01*
X19585355Y-8575404D01*
X19613896Y-8572593D01*
X19641343Y-8564267D01*
X19669471Y-8558672D01*
X19695966Y-8547698D01*
X19723415Y-8539371D01*
X19748711Y-8525850D01*
X19775207Y-8514875D01*
X19799054Y-8498941D01*
X19824348Y-8485421D01*
X19846518Y-8467227D01*
X19870366Y-8451292D01*
X19890645Y-8431013D01*
X19912817Y-8412817D01*
X19931013Y-8390645D01*
X19951292Y-8370366D01*
X19967227Y-8346518D01*
X19985421Y-8324348D01*
X19998941Y-8299054D01*
X20014875Y-8275207D01*
X20025850Y-8248711D01*
X20039371Y-8223415D01*
X20047698Y-8195966D01*
X20058672Y-8169471D01*
X20064267Y-8141343D01*
X20072593Y-8113896D01*
X20075404Y-8085355D01*
X20081000Y-8057223D01*
X20081000Y-8028540D01*
X20083811Y-8000000D01*
X20081000Y-7971460D01*
X20081000Y-7942777D01*
X20075404Y-7914645D01*
X20072593Y-7886104D01*
X20064267Y-7858657D01*
X20058672Y-7830529D01*
X20047698Y-7804034D01*
X20039371Y-7776585D01*
X20025850Y-7751289D01*
X20014875Y-7724793D01*
X19998941Y-7700946D01*
X19985421Y-7675652D01*
X19967227Y-7653482D01*
X19951292Y-7629634D01*
X19931013Y-7609355D01*
X19912817Y-7587183D01*
X19890645Y-7568987D01*
X19870366Y-7548708D01*
X19846518Y-7532773D01*
X19824348Y-7514579D01*
X19799054Y-7501059D01*
X19775207Y-7485125D01*
X19748711Y-7474150D01*
X19723415Y-7460629D01*
X19695966Y-7452302D01*
X19669471Y-7441328D01*
X19641343Y-7435733D01*
X19613896Y-7427407D01*
X19585355Y-7424596D01*
X19557223Y-7419000D01*
X17640538Y-7419000D01*
X17611998Y-7416189D01*
X17583458Y-7419000D01*
X17498102Y-7427407D01*
X17388583Y-7460629D01*
X17287650Y-7514579D01*
X17199181Y-7587183D01*
X17180985Y-7609355D01*
X16109360Y-8680981D01*
X16087183Y-8699181D01*
X16018824Y-8782478D01*
X16014579Y-8787651D01*
X15960629Y-8888584D01*
X15927407Y-8998103D01*
X15916189Y-9111998D01*
X15919000Y-9140538D01*
X15919000Y-9621782D01*
X15919001Y-10759341D01*
X10129637Y-16548706D01*
X10129634Y-16548708D01*
X10048708Y-16629634D01*
X10032769Y-16653489D01*
X10014579Y-16675653D01*
X10001062Y-16700942D01*
X9985125Y-16724793D01*
X9974148Y-16751293D01*
X9960629Y-16776586D01*
X9952304Y-16804031D01*
X9941328Y-16830529D01*
X9935732Y-16858660D01*
X9927407Y-16886105D01*
X9924596Y-16914644D01*
X9919000Y-16942777D01*
X9919000Y-16971460D01*
X9916189Y-17000000D01*
X406000Y-17000000D01*
X406000Y-14192546D01*
X466057Y-14257754D01*
X610956Y-14363434D01*
X773688Y-14438815D01*
X948000Y-14481000D01*
X1373000Y-14481000D01*
X1373000Y-13702000D01*
X1627000Y-13702000D01*
X1627000Y-14481000D01*
X2052000Y-14481000D01*
X2226312Y-14438815D01*
X2389044Y-14363434D01*
X2533943Y-14257754D01*
X2655441Y-14125836D01*
X2748869Y-13972750D01*
X2791144Y-13840767D01*
X2725741Y-13702000D01*
X1627000Y-13702000D01*
X1373000Y-13702000D01*
X1353000Y-13702000D01*
X1353000Y-13448000D01*
X1373000Y-13448000D01*
X1373000Y-12669000D01*
X1627000Y-12669000D01*
X1627000Y-13448000D01*
X2725741Y-13448000D01*
X2791144Y-13309233D01*
X2748869Y-13177250D01*
X2655441Y-13024164D01*
X2533943Y-12892246D01*
X2389044Y-12786566D01*
X2226312Y-12711185D01*
X2052000Y-12669000D01*
X1627000Y-12669000D01*
X1373000Y-12669000D01*
X948000Y-12669000D01*
X773688Y-12711185D01*
X610956Y-12786566D01*
X466057Y-12892246D01*
X406000Y-12957454D01*
X406000Y-8442777D01*
X11919000Y-8442777D01*
X11919000Y-8557223D01*
X11941328Y-8669471D01*
X11985125Y-8775207D01*
X12048708Y-8870366D01*
X12129634Y-8951292D01*
X12224793Y-9014875D01*
X12330529Y-9058672D01*
X12346198Y-9061789D01*
X13649628Y-10365220D01*
X13665473Y-10384527D01*
X13742521Y-10447759D01*
X13824453Y-10491553D01*
X13830425Y-10494745D01*
X13877451Y-10509010D01*
X13870098Y-10526762D01*
X13847770Y-10639010D01*
X13847770Y-10753456D01*
X13870098Y-10865704D01*
X13913895Y-10971440D01*
X13977478Y-11066599D01*
X14058404Y-11147525D01*
X14153563Y-11211108D01*
X14259299Y-11254905D01*
X14371547Y-11277233D01*
X14485993Y-11277233D01*
X14598241Y-11254905D01*
X14703977Y-11211108D01*
X14713940Y-11204451D01*
X14736458Y-11202233D01*
X14736466Y-11202233D01*
X14810805Y-11194911D01*
X14906187Y-11165978D01*
X14994091Y-11118992D01*
X15071139Y-11055760D01*
X15086988Y-11036448D01*
X15365216Y-10758220D01*
X15384528Y-10742371D01*
X15447760Y-10665323D01*
X15494746Y-10577419D01*
X15523679Y-10482037D01*
X15531001Y-10407698D01*
X15531001Y-10407690D01*
X15533448Y-10382844D01*
X15531001Y-10357998D01*
X15531001Y-9236275D01*
X15558672Y-9169471D01*
X15581000Y-9057223D01*
X15581000Y-8942777D01*
X15558672Y-8830529D01*
X15514875Y-8724793D01*
X15451292Y-8629634D01*
X15370366Y-8548708D01*
X15275207Y-8485125D01*
X15169471Y-8441328D01*
X15057223Y-8419000D01*
X14942777Y-8419000D01*
X14830529Y-8441328D01*
X14724793Y-8485125D01*
X14629634Y-8548708D01*
X14548708Y-8629634D01*
X14485125Y-8724793D01*
X14441328Y-8830529D01*
X14419000Y-8942777D01*
X14419000Y-9057223D01*
X14441328Y-9169471D01*
X14485125Y-9275207D01*
X14519002Y-9325907D01*
X14519002Y-9444000D01*
X14442777Y-9444000D01*
X14330529Y-9466328D01*
X14225446Y-9509854D01*
X13061789Y-8346198D01*
X13058672Y-8330529D01*
X13014875Y-8224793D01*
X12951292Y-8129634D01*
X12870366Y-8048708D01*
X12775207Y-7985125D01*
X12669471Y-7941328D01*
X12557223Y-7919000D01*
X12442777Y-7919000D01*
X12330529Y-7941328D01*
X12224793Y-7985125D01*
X12129634Y-8048708D01*
X12048708Y-8129634D01*
X11985125Y-8224793D01*
X11941328Y-8330529D01*
X11919000Y-8442777D01*
X406000Y-8442777D01*
X406000Y-7042546D01*
X466057Y-7107754D01*
X610956Y-7213434D01*
X773688Y-7288815D01*
X948000Y-7331000D01*
X1373000Y-7331000D01*
X1373000Y-6552000D01*
X1627000Y-6552000D01*
X1627000Y-7331000D01*
X2052000Y-7331000D01*
X2226312Y-7288815D01*
X2389044Y-7213434D01*
X2533943Y-7107754D01*
X2655441Y-6975836D01*
X2748869Y-6822750D01*
X2791144Y-6690767D01*
X2725741Y-6552000D01*
X1627000Y-6552000D01*
X1373000Y-6552000D01*
X1353000Y-6552000D01*
X1353000Y-6298000D01*
X1373000Y-6298000D01*
X1373000Y-5519000D01*
X1627000Y-5519000D01*
X1627000Y-6298000D01*
X2725741Y-6298000D01*
X2791144Y-6159233D01*
X2748869Y-6027250D01*
X2655441Y-5874164D01*
X2533943Y-5742246D01*
X2389044Y-5636566D01*
X2226312Y-5561185D01*
X2052000Y-5519000D01*
X1627000Y-5519000D01*
X1373000Y-5519000D01*
X948000Y-5519000D01*
X773688Y-5561185D01*
X610956Y-5636566D01*
X466057Y-5742246D01*
X406000Y-5807454D01*
X406000Y-1942777D01*
X11419000Y-1942777D01*
X11419000Y-2057223D01*
X11441328Y-2169471D01*
X11485125Y-2275207D01*
X11548708Y-2370366D01*
X11629634Y-2451292D01*
X11724793Y-2514875D01*
X11830529Y-2558672D01*
X11942777Y-2581000D01*
X12057223Y-2581000D01*
X12169471Y-2558672D01*
X12275207Y-2514875D01*
X12288489Y-2506000D01*
X26790409Y-2506000D01*
X30994001Y-6709593D01*
X30994000Y-11236510D01*
X30985125Y-11249793D01*
X30941328Y-11355529D01*
X30919000Y-11467777D01*
X30919000Y-11572343D01*
X29956017Y-10609360D01*
X29937817Y-10587183D01*
X29849348Y-10514579D01*
X29748415Y-10460629D01*
X29638896Y-10427407D01*
X29553540Y-10419000D01*
X29525000Y-10416189D01*
X29496460Y-10419000D01*
X26942777Y-10419000D01*
X26914645Y-10424596D01*
X26886104Y-10427407D01*
X26858657Y-10435733D01*
X26830529Y-10441328D01*
X26804034Y-10452302D01*
X26776585Y-10460629D01*
X26751289Y-10474150D01*
X26724793Y-10485125D01*
X26700946Y-10501059D01*
X26675652Y-10514579D01*
X26653482Y-10532773D01*
X26629634Y-10548708D01*
X26609355Y-10568987D01*
X26587183Y-10587183D01*
X26568987Y-10609355D01*
X26548708Y-10629634D01*
X26532773Y-10653482D01*
X26514579Y-10675652D01*
X26501059Y-10700946D01*
X26485125Y-10724793D01*
X26474150Y-10751289D01*
X26460629Y-10776585D01*
X26452302Y-10804034D01*
X26441328Y-10830529D01*
X26435733Y-10858657D01*
X26427407Y-10886104D01*
X26424596Y-10914645D01*
X26419000Y-10942777D01*
X26419000Y-10971460D01*
X26416189Y-11000000D01*
X26419000Y-11028540D01*
X26419000Y-11057223D01*
X26424596Y-11085355D01*
X26427407Y-11113896D01*
X26435733Y-11141343D01*
X26441328Y-11169471D01*
X26452302Y-11195966D01*
X26460629Y-11223415D01*
X26474150Y-11248711D01*
X26485125Y-11275207D01*
X26501059Y-11299054D01*
X26514579Y-11324348D01*
X26532773Y-11346518D01*
X26548708Y-11370366D01*
X26568987Y-11390645D01*
X26587183Y-11412817D01*
X26609355Y-11431013D01*
X26629634Y-11451292D01*
X26653482Y-11467227D01*
X26675652Y-11485421D01*
X26700946Y-11498941D01*
X26724793Y-11514875D01*
X26751289Y-11525850D01*
X26776585Y-11539371D01*
X26804034Y-11547698D01*
X26830529Y-11558672D01*
X26858657Y-11564267D01*
X26886104Y-11572593D01*
X26914645Y-11575404D01*
X26942777Y-11581000D01*
X29284343Y-11581000D01*
X31573708Y-13870366D01*
X31654634Y-13951292D01*
X31678483Y-13967227D01*
X31700652Y-13985421D01*
X31725946Y-13998941D01*
X31749793Y-14014875D01*
X31776289Y-14025850D01*
X31801585Y-14039371D01*
X31829034Y-14047698D01*
X31855529Y-14058672D01*
X31883657Y-14064267D01*
X31911104Y-14072593D01*
X31939645Y-14075404D01*
X31967777Y-14081000D01*
X31996460Y-14081000D01*
X32025000Y-14083811D01*
X32053540Y-14081000D01*
X32082223Y-14081000D01*
X32110356Y-14075404D01*
X32138895Y-14072593D01*
X32166340Y-14064268D01*
X32194471Y-14058672D01*
X32220969Y-14047696D01*
X32248414Y-14039371D01*
X32273707Y-14025852D01*
X32300207Y-14014875D01*
X32324058Y-13998938D01*
X32349347Y-13985421D01*
X32371511Y-13967231D01*
X32395366Y-13951292D01*
X32415654Y-13931004D01*
X32437816Y-13912816D01*
X32456004Y-13890654D01*
X32476292Y-13870366D01*
X32492231Y-13846511D01*
X32510421Y-13824347D01*
X32523938Y-13799058D01*
X32539875Y-13775207D01*
X32550852Y-13748707D01*
X32564371Y-13723414D01*
X32572696Y-13695969D01*
X32583672Y-13669471D01*
X32589268Y-13641340D01*
X32597593Y-13613895D01*
X32600404Y-13585356D01*
X32606000Y-13557223D01*
X32606000Y-13528540D01*
X32608811Y-13500000D01*
X32606000Y-13471460D01*
X32606000Y-13442777D01*
X32600404Y-13414645D01*
X32597593Y-13386104D01*
X32589267Y-13358657D01*
X32583672Y-13330529D01*
X32572698Y-13304034D01*
X32564371Y-13276585D01*
X32550850Y-13251289D01*
X32539875Y-13224793D01*
X32523941Y-13200946D01*
X32510421Y-13175652D01*
X32492227Y-13153483D01*
X32476292Y-13129634D01*
X31452658Y-12106000D01*
X31557223Y-12106000D01*
X31669471Y-12083672D01*
X31775207Y-12039875D01*
X31870366Y-11976292D01*
X31951292Y-11895366D01*
X32014875Y-11800207D01*
X32058672Y-11694471D01*
X32081000Y-11582223D01*
X32081000Y-11467777D01*
X32058672Y-11355529D01*
X32014875Y-11249793D01*
X32006000Y-11236511D01*
X32006000Y-7006000D01*
X33193551Y-7006000D01*
X33129634Y-7048708D01*
X33048708Y-7129634D01*
X32985125Y-7224793D01*
X32941328Y-7330529D01*
X32922945Y-7422945D01*
X32830529Y-7441328D01*
X32724793Y-7485125D01*
X32629634Y-7548708D01*
X32548708Y-7629634D01*
X32485125Y-7724793D01*
X32441328Y-7830529D01*
X32419000Y-7942777D01*
X32419000Y-8057223D01*
X32441328Y-8169471D01*
X32485125Y-8275207D01*
X32548708Y-8370366D01*
X32629634Y-8451292D01*
X32724793Y-8514875D01*
X32830529Y-8558672D01*
X32846198Y-8561789D01*
X33438211Y-9153803D01*
X33441328Y-9169471D01*
X33485125Y-9275207D01*
X33548708Y-9370366D01*
X33629634Y-9451292D01*
X33724793Y-9514875D01*
X33830529Y-9558672D01*
X33942777Y-9581000D01*
X34057223Y-9581000D01*
X34169471Y-9558672D01*
X34275207Y-9514875D01*
X34370366Y-9451292D01*
X34451292Y-9370366D01*
X34513271Y-9277607D01*
X38284098Y-9277607D01*
X38338771Y-9439418D01*
X38441526Y-9603869D01*
X38574389Y-9745114D01*
X38732255Y-9857725D01*
X38909057Y-9937374D01*
X39098000Y-9981000D01*
X39373000Y-9981000D01*
X39373000Y-9127000D01*
X39627000Y-9127000D01*
X39627000Y-9981000D01*
X39902000Y-9981000D01*
X40090943Y-9937374D01*
X40267745Y-9857725D01*
X40425611Y-9745114D01*
X40558474Y-9603869D01*
X40661229Y-9439418D01*
X40715902Y-9277607D01*
X40651598Y-9127000D01*
X39627000Y-9127000D01*
X39373000Y-9127000D01*
X38348402Y-9127000D01*
X38284098Y-9277607D01*
X34513271Y-9277607D01*
X34514875Y-9275207D01*
X34558672Y-9169471D01*
X34577055Y-9077055D01*
X34669471Y-9058672D01*
X34775207Y-9014875D01*
X34870366Y-8951292D01*
X34951292Y-8870366D01*
X35014875Y-8775207D01*
X35036751Y-8722393D01*
X38284098Y-8722393D01*
X38348402Y-8873000D01*
X39373000Y-8873000D01*
X39373000Y-8019000D01*
X39627000Y-8019000D01*
X39627000Y-8873000D01*
X40651598Y-8873000D01*
X40715902Y-8722393D01*
X40661229Y-8560582D01*
X40558474Y-8396131D01*
X40425611Y-8254886D01*
X40267745Y-8142275D01*
X40090943Y-8062626D01*
X39902000Y-8019000D01*
X39627000Y-8019000D01*
X39373000Y-8019000D01*
X39098000Y-8019000D01*
X38909057Y-8062626D01*
X38732255Y-8142275D01*
X38574389Y-8254886D01*
X38441526Y-8396131D01*
X38338771Y-8560582D01*
X38284098Y-8722393D01*
X35036751Y-8722393D01*
X35058672Y-8669471D01*
X35081000Y-8557223D01*
X35081000Y-8442777D01*
X35058672Y-8330529D01*
X35014875Y-8224793D01*
X34951292Y-8129634D01*
X34870366Y-8048708D01*
X34775207Y-7985125D01*
X34669471Y-7941328D01*
X34653803Y-7938211D01*
X34061789Y-7346198D01*
X34058672Y-7330529D01*
X34014875Y-7224793D01*
X33951292Y-7129634D01*
X33870366Y-7048708D01*
X33806449Y-7006000D01*
X36790409Y-7006000D01*
X37124628Y-7340220D01*
X37140473Y-7359527D01*
X37217521Y-7422759D01*
X37305425Y-7469745D01*
X37400807Y-7498678D01*
X37500000Y-7508448D01*
X37524854Y-7506000D01*
X38383119Y-7506000D01*
X38405382Y-7547651D01*
X38527972Y-7697028D01*
X38677349Y-7819618D01*
X38847771Y-7910711D01*
X39032690Y-7966805D01*
X39176813Y-7981000D01*
X39823187Y-7981000D01*
X39967310Y-7966805D01*
X40152229Y-7910711D01*
X40322651Y-7819618D01*
X40472028Y-7697028D01*
X40594618Y-7547651D01*
X40685711Y-7377229D01*
X40741805Y-7192310D01*
X40760746Y-7000000D01*
X40741805Y-6807690D01*
X40685711Y-6622771D01*
X40594618Y-6452349D01*
X40472028Y-6302972D01*
X40322651Y-6180382D01*
X40152229Y-6089289D01*
X39967310Y-6033195D01*
X39823187Y-6019000D01*
X39176813Y-6019000D01*
X39032690Y-6033195D01*
X38847771Y-6089289D01*
X38677349Y-6180382D01*
X38527972Y-6302972D01*
X38405382Y-6452349D01*
X38383119Y-6494000D01*
X37709592Y-6494000D01*
X37375376Y-6159785D01*
X37359527Y-6140473D01*
X37282479Y-6077241D01*
X37194575Y-6030255D01*
X37099193Y-6001322D01*
X37024854Y-5994000D01*
X37024846Y-5994000D01*
X37000000Y-5991553D01*
X36975154Y-5994000D01*
X31709592Y-5994000D01*
X30715592Y-5000000D01*
X38239254Y-5000000D01*
X38258195Y-5192310D01*
X38314289Y-5377229D01*
X38405382Y-5547651D01*
X38527972Y-5697028D01*
X38677349Y-5819618D01*
X38847771Y-5910711D01*
X39032690Y-5966805D01*
X39176813Y-5981000D01*
X39823187Y-5981000D01*
X39967310Y-5966805D01*
X40152229Y-5910711D01*
X40322651Y-5819618D01*
X40472028Y-5697028D01*
X40594618Y-5547651D01*
X40685711Y-5377229D01*
X40741805Y-5192310D01*
X40760746Y-5000000D01*
X40741805Y-4807690D01*
X40685711Y-4622771D01*
X40594618Y-4452349D01*
X40472028Y-4302972D01*
X40322651Y-4180382D01*
X40152229Y-4089289D01*
X39967310Y-4033195D01*
X39823187Y-4019000D01*
X39176813Y-4019000D01*
X39032690Y-4033195D01*
X38847771Y-4089289D01*
X38677349Y-4180382D01*
X38527972Y-4302972D01*
X38405382Y-4452349D01*
X38314289Y-4622771D01*
X38258195Y-4807690D01*
X38239254Y-5000000D01*
X30715592Y-5000000D01*
X27375376Y-1659785D01*
X27359527Y-1640473D01*
X27282479Y-1577241D01*
X27194575Y-1530255D01*
X27099193Y-1501322D01*
X27024854Y-1494000D01*
X27024846Y-1494000D01*
X27000000Y-1491553D01*
X26975154Y-1494000D01*
X12288489Y-1494000D01*
X12275207Y-1485125D01*
X12169471Y-1441328D01*
X12057223Y-1419000D01*
X11942777Y-1419000D01*
X11830529Y-1441328D01*
X11724793Y-1485125D01*
X11629634Y-1548708D01*
X11548708Y-1629634D01*
X11485125Y-1724793D01*
X11441328Y-1830529D01*
X11419000Y-1942777D01*
X406000Y-1942777D01*
X406000Y-406000D01*
X42594000Y-406000D01*
X42594001Y-19594000D01*
G37*
G04 #@! TD.AperFunction*
M02*
