M48
; DRILL file {KiCad (5.1.10)-1} date 07/09/21 15:56:33
; FORMAT={-:-/ absolute / metric / decimal}
; #@! TF.CreationDate,2021-07-09T15:56:33+09:00
; #@! TF.GenerationSoftware,Kicad,Pcbnew,(5.1.10)-1
; #@! TF.FileFunction,Plated,1,2,PTH
FMAT,2
METRIC
T1C0.300
T2C0.450
T3C0.750
%
G90
G05
T1
X9.0Y-7.0
X10.5Y-17.0
X10.5Y-19.0
X12.0Y-2.0
X12.5Y-8.5
X14.429Y-10.696
X14.5Y-10.025
X15.0Y-9.0
X15.5Y-6.0
X15.5Y-13.5
X17.5Y-9.0
X17.5Y-12.5
X19.0Y-19.5
X19.5Y-8.0
X19.6Y-19.5
X20.0Y-10.5
X20.0Y-11.5
X23.0Y-13.975
X25.5Y-15.4
X25.5Y-16.0
X26.5Y-14.0
X27.0Y-11.0
X27.91Y-14.9
X27.91Y-15.5
X28.0Y-9.0
X28.91Y-16.5
X29.0Y-14.0
X29.0Y-15.0
X31.5Y-11.525
X32.025Y-13.5
X33.0Y-8.0
X33.5Y-7.5
X34.0Y-9.0
X34.0Y-16.0
X34.5Y-8.5
X34.525Y-15.5
T3
X39.5Y-5.0
X39.5Y-7.0
X39.5Y-9.0
X39.5Y-11.0
X39.5Y-13.0
X39.5Y-15.0
T2
G00X1.1Y-6.425
M15
G01X1.9Y-6.425
M16
G05
G00X1.9Y-13.575
M15
G01X1.1Y-13.575
M16
G05
T0
M30
