G04 #@! TF.GenerationSoftware,KiCad,Pcbnew,(5.1.10)-1*
G04 #@! TF.CreationDate,2021-07-09T15:56:30+09:00*
G04 #@! TF.ProjectId,esp_flasher,6573705f-666c-4617-9368-65722e6b6963,rev?*
G04 #@! TF.SameCoordinates,Original*
G04 #@! TF.FileFunction,Soldermask,Top*
G04 #@! TF.FilePolarity,Negative*
%FSLAX46Y46*%
G04 Gerber Fmt 4.6, Leading zero omitted, Abs format (unit mm)*
G04 Created by KiCad (PCBNEW (5.1.10)-1) date 2021-07-09 15:56:30*
%MOMM*%
%LPD*%
G01*
G04 APERTURE LIST*
%ADD10R,1.450000X1.150000*%
%ADD11O,1.900000X1.050000*%
%ADD12R,1.900000X1.750000*%
%ADD13R,1.400000X0.400000*%
%ADD14R,3.350000X3.350000*%
%ADD15R,2.000000X1.500000*%
%ADD16R,2.000000X3.800000*%
%ADD17R,0.800000X0.900000*%
%ADD18R,2.000000X1.600000*%
%ADD19O,1.750000X1.200000*%
%ADD20R,1.000000X1.400000*%
%ADD21R,1.200000X1.400000*%
G04 APERTURE END LIST*
G36*
G01*
X12825000Y-1237500D02*
X12825000Y-762500D01*
G75*
G02*
X13062500Y-525000I237500J0D01*
G01*
X13662500Y-525000D01*
G75*
G02*
X13900000Y-762500I0J-237500D01*
G01*
X13900000Y-1237500D01*
G75*
G02*
X13662500Y-1475000I-237500J0D01*
G01*
X13062500Y-1475000D01*
G75*
G02*
X12825000Y-1237500I0J237500D01*
G01*
G37*
G36*
G01*
X11100000Y-1237500D02*
X11100000Y-762500D01*
G75*
G02*
X11337500Y-525000I237500J0D01*
G01*
X11937500Y-525000D01*
G75*
G02*
X12175000Y-762500I0J-237500D01*
G01*
X12175000Y-1237500D01*
G75*
G02*
X11937500Y-1475000I-237500J0D01*
G01*
X11337500Y-1475000D01*
G75*
G02*
X11100000Y-1237500I0J237500D01*
G01*
G37*
G36*
G01*
X12825000Y-19237500D02*
X12825000Y-18762500D01*
G75*
G02*
X13062500Y-18525000I237500J0D01*
G01*
X13662500Y-18525000D01*
G75*
G02*
X13900000Y-18762500I0J-237500D01*
G01*
X13900000Y-19237500D01*
G75*
G02*
X13662500Y-19475000I-237500J0D01*
G01*
X13062500Y-19475000D01*
G75*
G02*
X12825000Y-19237500I0J237500D01*
G01*
G37*
G36*
G01*
X11100000Y-19237500D02*
X11100000Y-18762500D01*
G75*
G02*
X11337500Y-18525000I237500J0D01*
G01*
X11937500Y-18525000D01*
G75*
G02*
X12175000Y-18762500I0J-237500D01*
G01*
X12175000Y-19237500D01*
G75*
G02*
X11937500Y-19475000I-237500J0D01*
G01*
X11337500Y-19475000D01*
G75*
G02*
X11100000Y-19237500I0J237500D01*
G01*
G37*
D10*
X3730000Y-7680000D03*
X3730000Y-12320000D03*
D11*
X1500000Y-13575000D03*
X1500000Y-6425000D03*
D12*
X1500000Y-8875000D03*
D13*
X4150000Y-10000000D03*
X4150000Y-10650000D03*
X4150000Y-11300000D03*
X4150000Y-8700000D03*
X4150000Y-9350000D03*
D12*
X1500000Y-11125000D03*
D14*
X19000000Y-16000000D03*
G36*
G01*
X21112500Y-14375000D02*
X21787500Y-14375000D01*
G75*
G02*
X21850000Y-14437500I0J-62500D01*
G01*
X21850000Y-14562500D01*
G75*
G02*
X21787500Y-14625000I-62500J0D01*
G01*
X21112500Y-14625000D01*
G75*
G02*
X21050000Y-14562500I0J62500D01*
G01*
X21050000Y-14437500D01*
G75*
G02*
X21112500Y-14375000I62500J0D01*
G01*
G37*
G36*
G01*
X21112500Y-14875000D02*
X21787500Y-14875000D01*
G75*
G02*
X21850000Y-14937500I0J-62500D01*
G01*
X21850000Y-15062500D01*
G75*
G02*
X21787500Y-15125000I-62500J0D01*
G01*
X21112500Y-15125000D01*
G75*
G02*
X21050000Y-15062500I0J62500D01*
G01*
X21050000Y-14937500D01*
G75*
G02*
X21112500Y-14875000I62500J0D01*
G01*
G37*
G36*
G01*
X21112500Y-15375000D02*
X21787500Y-15375000D01*
G75*
G02*
X21850000Y-15437500I0J-62500D01*
G01*
X21850000Y-15562500D01*
G75*
G02*
X21787500Y-15625000I-62500J0D01*
G01*
X21112500Y-15625000D01*
G75*
G02*
X21050000Y-15562500I0J62500D01*
G01*
X21050000Y-15437500D01*
G75*
G02*
X21112500Y-15375000I62500J0D01*
G01*
G37*
G36*
G01*
X21112500Y-15875000D02*
X21787500Y-15875000D01*
G75*
G02*
X21850000Y-15937500I0J-62500D01*
G01*
X21850000Y-16062500D01*
G75*
G02*
X21787500Y-16125000I-62500J0D01*
G01*
X21112500Y-16125000D01*
G75*
G02*
X21050000Y-16062500I0J62500D01*
G01*
X21050000Y-15937500D01*
G75*
G02*
X21112500Y-15875000I62500J0D01*
G01*
G37*
G36*
G01*
X21112500Y-16375000D02*
X21787500Y-16375000D01*
G75*
G02*
X21850000Y-16437500I0J-62500D01*
G01*
X21850000Y-16562500D01*
G75*
G02*
X21787500Y-16625000I-62500J0D01*
G01*
X21112500Y-16625000D01*
G75*
G02*
X21050000Y-16562500I0J62500D01*
G01*
X21050000Y-16437500D01*
G75*
G02*
X21112500Y-16375000I62500J0D01*
G01*
G37*
G36*
G01*
X21112500Y-16875000D02*
X21787500Y-16875000D01*
G75*
G02*
X21850000Y-16937500I0J-62500D01*
G01*
X21850000Y-17062500D01*
G75*
G02*
X21787500Y-17125000I-62500J0D01*
G01*
X21112500Y-17125000D01*
G75*
G02*
X21050000Y-17062500I0J62500D01*
G01*
X21050000Y-16937500D01*
G75*
G02*
X21112500Y-16875000I62500J0D01*
G01*
G37*
G36*
G01*
X21112500Y-17375000D02*
X21787500Y-17375000D01*
G75*
G02*
X21850000Y-17437500I0J-62500D01*
G01*
X21850000Y-17562500D01*
G75*
G02*
X21787500Y-17625000I-62500J0D01*
G01*
X21112500Y-17625000D01*
G75*
G02*
X21050000Y-17562500I0J62500D01*
G01*
X21050000Y-17437500D01*
G75*
G02*
X21112500Y-17375000I62500J0D01*
G01*
G37*
G36*
G01*
X20437500Y-18050000D02*
X20562500Y-18050000D01*
G75*
G02*
X20625000Y-18112500I0J-62500D01*
G01*
X20625000Y-18787500D01*
G75*
G02*
X20562500Y-18850000I-62500J0D01*
G01*
X20437500Y-18850000D01*
G75*
G02*
X20375000Y-18787500I0J62500D01*
G01*
X20375000Y-18112500D01*
G75*
G02*
X20437500Y-18050000I62500J0D01*
G01*
G37*
G36*
G01*
X19937500Y-18050000D02*
X20062500Y-18050000D01*
G75*
G02*
X20125000Y-18112500I0J-62500D01*
G01*
X20125000Y-18787500D01*
G75*
G02*
X20062500Y-18850000I-62500J0D01*
G01*
X19937500Y-18850000D01*
G75*
G02*
X19875000Y-18787500I0J62500D01*
G01*
X19875000Y-18112500D01*
G75*
G02*
X19937500Y-18050000I62500J0D01*
G01*
G37*
G36*
G01*
X19437500Y-18050000D02*
X19562500Y-18050000D01*
G75*
G02*
X19625000Y-18112500I0J-62500D01*
G01*
X19625000Y-18787500D01*
G75*
G02*
X19562500Y-18850000I-62500J0D01*
G01*
X19437500Y-18850000D01*
G75*
G02*
X19375000Y-18787500I0J62500D01*
G01*
X19375000Y-18112500D01*
G75*
G02*
X19437500Y-18050000I62500J0D01*
G01*
G37*
G36*
G01*
X18937500Y-18050000D02*
X19062500Y-18050000D01*
G75*
G02*
X19125000Y-18112500I0J-62500D01*
G01*
X19125000Y-18787500D01*
G75*
G02*
X19062500Y-18850000I-62500J0D01*
G01*
X18937500Y-18850000D01*
G75*
G02*
X18875000Y-18787500I0J62500D01*
G01*
X18875000Y-18112500D01*
G75*
G02*
X18937500Y-18050000I62500J0D01*
G01*
G37*
G36*
G01*
X18437500Y-18050000D02*
X18562500Y-18050000D01*
G75*
G02*
X18625000Y-18112500I0J-62500D01*
G01*
X18625000Y-18787500D01*
G75*
G02*
X18562500Y-18850000I-62500J0D01*
G01*
X18437500Y-18850000D01*
G75*
G02*
X18375000Y-18787500I0J62500D01*
G01*
X18375000Y-18112500D01*
G75*
G02*
X18437500Y-18050000I62500J0D01*
G01*
G37*
G36*
G01*
X17937500Y-18050000D02*
X18062500Y-18050000D01*
G75*
G02*
X18125000Y-18112500I0J-62500D01*
G01*
X18125000Y-18787500D01*
G75*
G02*
X18062500Y-18850000I-62500J0D01*
G01*
X17937500Y-18850000D01*
G75*
G02*
X17875000Y-18787500I0J62500D01*
G01*
X17875000Y-18112500D01*
G75*
G02*
X17937500Y-18050000I62500J0D01*
G01*
G37*
G36*
G01*
X17437500Y-18050000D02*
X17562500Y-18050000D01*
G75*
G02*
X17625000Y-18112500I0J-62500D01*
G01*
X17625000Y-18787500D01*
G75*
G02*
X17562500Y-18850000I-62500J0D01*
G01*
X17437500Y-18850000D01*
G75*
G02*
X17375000Y-18787500I0J62500D01*
G01*
X17375000Y-18112500D01*
G75*
G02*
X17437500Y-18050000I62500J0D01*
G01*
G37*
G36*
G01*
X16212500Y-17375000D02*
X16887500Y-17375000D01*
G75*
G02*
X16950000Y-17437500I0J-62500D01*
G01*
X16950000Y-17562500D01*
G75*
G02*
X16887500Y-17625000I-62500J0D01*
G01*
X16212500Y-17625000D01*
G75*
G02*
X16150000Y-17562500I0J62500D01*
G01*
X16150000Y-17437500D01*
G75*
G02*
X16212500Y-17375000I62500J0D01*
G01*
G37*
G36*
G01*
X16212500Y-16875000D02*
X16887500Y-16875000D01*
G75*
G02*
X16950000Y-16937500I0J-62500D01*
G01*
X16950000Y-17062500D01*
G75*
G02*
X16887500Y-17125000I-62500J0D01*
G01*
X16212500Y-17125000D01*
G75*
G02*
X16150000Y-17062500I0J62500D01*
G01*
X16150000Y-16937500D01*
G75*
G02*
X16212500Y-16875000I62500J0D01*
G01*
G37*
G36*
G01*
X16212500Y-16375000D02*
X16887500Y-16375000D01*
G75*
G02*
X16950000Y-16437500I0J-62500D01*
G01*
X16950000Y-16562500D01*
G75*
G02*
X16887500Y-16625000I-62500J0D01*
G01*
X16212500Y-16625000D01*
G75*
G02*
X16150000Y-16562500I0J62500D01*
G01*
X16150000Y-16437500D01*
G75*
G02*
X16212500Y-16375000I62500J0D01*
G01*
G37*
G36*
G01*
X16212500Y-15875000D02*
X16887500Y-15875000D01*
G75*
G02*
X16950000Y-15937500I0J-62500D01*
G01*
X16950000Y-16062500D01*
G75*
G02*
X16887500Y-16125000I-62500J0D01*
G01*
X16212500Y-16125000D01*
G75*
G02*
X16150000Y-16062500I0J62500D01*
G01*
X16150000Y-15937500D01*
G75*
G02*
X16212500Y-15875000I62500J0D01*
G01*
G37*
G36*
G01*
X16212500Y-15375000D02*
X16887500Y-15375000D01*
G75*
G02*
X16950000Y-15437500I0J-62500D01*
G01*
X16950000Y-15562500D01*
G75*
G02*
X16887500Y-15625000I-62500J0D01*
G01*
X16212500Y-15625000D01*
G75*
G02*
X16150000Y-15562500I0J62500D01*
G01*
X16150000Y-15437500D01*
G75*
G02*
X16212500Y-15375000I62500J0D01*
G01*
G37*
G36*
G01*
X16212500Y-14875000D02*
X16887500Y-14875000D01*
G75*
G02*
X16950000Y-14937500I0J-62500D01*
G01*
X16950000Y-15062500D01*
G75*
G02*
X16887500Y-15125000I-62500J0D01*
G01*
X16212500Y-15125000D01*
G75*
G02*
X16150000Y-15062500I0J62500D01*
G01*
X16150000Y-14937500D01*
G75*
G02*
X16212500Y-14875000I62500J0D01*
G01*
G37*
G36*
G01*
X16212500Y-14375000D02*
X16887500Y-14375000D01*
G75*
G02*
X16950000Y-14437500I0J-62500D01*
G01*
X16950000Y-14562500D01*
G75*
G02*
X16887500Y-14625000I-62500J0D01*
G01*
X16212500Y-14625000D01*
G75*
G02*
X16150000Y-14562500I0J62500D01*
G01*
X16150000Y-14437500D01*
G75*
G02*
X16212500Y-14375000I62500J0D01*
G01*
G37*
G36*
G01*
X17437500Y-13150000D02*
X17562500Y-13150000D01*
G75*
G02*
X17625000Y-13212500I0J-62500D01*
G01*
X17625000Y-13887500D01*
G75*
G02*
X17562500Y-13950000I-62500J0D01*
G01*
X17437500Y-13950000D01*
G75*
G02*
X17375000Y-13887500I0J62500D01*
G01*
X17375000Y-13212500D01*
G75*
G02*
X17437500Y-13150000I62500J0D01*
G01*
G37*
G36*
G01*
X17937500Y-13150000D02*
X18062500Y-13150000D01*
G75*
G02*
X18125000Y-13212500I0J-62500D01*
G01*
X18125000Y-13887500D01*
G75*
G02*
X18062500Y-13950000I-62500J0D01*
G01*
X17937500Y-13950000D01*
G75*
G02*
X17875000Y-13887500I0J62500D01*
G01*
X17875000Y-13212500D01*
G75*
G02*
X17937500Y-13150000I62500J0D01*
G01*
G37*
G36*
G01*
X18437500Y-13150000D02*
X18562500Y-13150000D01*
G75*
G02*
X18625000Y-13212500I0J-62500D01*
G01*
X18625000Y-13887500D01*
G75*
G02*
X18562500Y-13950000I-62500J0D01*
G01*
X18437500Y-13950000D01*
G75*
G02*
X18375000Y-13887500I0J62500D01*
G01*
X18375000Y-13212500D01*
G75*
G02*
X18437500Y-13150000I62500J0D01*
G01*
G37*
G36*
G01*
X18937500Y-13150000D02*
X19062500Y-13150000D01*
G75*
G02*
X19125000Y-13212500I0J-62500D01*
G01*
X19125000Y-13887500D01*
G75*
G02*
X19062500Y-13950000I-62500J0D01*
G01*
X18937500Y-13950000D01*
G75*
G02*
X18875000Y-13887500I0J62500D01*
G01*
X18875000Y-13212500D01*
G75*
G02*
X18937500Y-13150000I62500J0D01*
G01*
G37*
G36*
G01*
X19437500Y-13150000D02*
X19562500Y-13150000D01*
G75*
G02*
X19625000Y-13212500I0J-62500D01*
G01*
X19625000Y-13887500D01*
G75*
G02*
X19562500Y-13950000I-62500J0D01*
G01*
X19437500Y-13950000D01*
G75*
G02*
X19375000Y-13887500I0J62500D01*
G01*
X19375000Y-13212500D01*
G75*
G02*
X19437500Y-13150000I62500J0D01*
G01*
G37*
G36*
G01*
X19937500Y-13150000D02*
X20062500Y-13150000D01*
G75*
G02*
X20125000Y-13212500I0J-62500D01*
G01*
X20125000Y-13887500D01*
G75*
G02*
X20062500Y-13950000I-62500J0D01*
G01*
X19937500Y-13950000D01*
G75*
G02*
X19875000Y-13887500I0J62500D01*
G01*
X19875000Y-13212500D01*
G75*
G02*
X19937500Y-13150000I62500J0D01*
G01*
G37*
G36*
G01*
X20437500Y-13150000D02*
X20562500Y-13150000D01*
G75*
G02*
X20625000Y-13212500I0J-62500D01*
G01*
X20625000Y-13887500D01*
G75*
G02*
X20562500Y-13950000I-62500J0D01*
G01*
X20437500Y-13950000D01*
G75*
G02*
X20375000Y-13887500I0J62500D01*
G01*
X20375000Y-13212500D01*
G75*
G02*
X20437500Y-13150000I62500J0D01*
G01*
G37*
D15*
X17350000Y-2700000D03*
X17350000Y-7300000D03*
X17350000Y-5000000D03*
D16*
X23650000Y-5000000D03*
G36*
G01*
X32762500Y-17012500D02*
X33237500Y-17012500D01*
G75*
G02*
X33475000Y-17250000I0J-237500D01*
G01*
X33475000Y-17750000D01*
G75*
G02*
X33237500Y-17987500I-237500J0D01*
G01*
X32762500Y-17987500D01*
G75*
G02*
X32525000Y-17750000I0J237500D01*
G01*
X32525000Y-17250000D01*
G75*
G02*
X32762500Y-17012500I237500J0D01*
G01*
G37*
G36*
G01*
X32762500Y-15187500D02*
X33237500Y-15187500D01*
G75*
G02*
X33475000Y-15425000I0J-237500D01*
G01*
X33475000Y-15925000D01*
G75*
G02*
X33237500Y-16162500I-237500J0D01*
G01*
X32762500Y-16162500D01*
G75*
G02*
X32525000Y-15925000I0J237500D01*
G01*
X32525000Y-15425000D01*
G75*
G02*
X32762500Y-15187500I237500J0D01*
G01*
G37*
G36*
G01*
X29762500Y-13425000D02*
X30237500Y-13425000D01*
G75*
G02*
X30475000Y-13662500I0J-237500D01*
G01*
X30475000Y-14162500D01*
G75*
G02*
X30237500Y-14400000I-237500J0D01*
G01*
X29762500Y-14400000D01*
G75*
G02*
X29525000Y-14162500I0J237500D01*
G01*
X29525000Y-13662500D01*
G75*
G02*
X29762500Y-13425000I237500J0D01*
G01*
G37*
G36*
G01*
X29762500Y-11600000D02*
X30237500Y-11600000D01*
G75*
G02*
X30475000Y-11837500I0J-237500D01*
G01*
X30475000Y-12337500D01*
G75*
G02*
X30237500Y-12575000I-237500J0D01*
G01*
X29762500Y-12575000D01*
G75*
G02*
X29525000Y-12337500I0J237500D01*
G01*
X29525000Y-11837500D01*
G75*
G02*
X29762500Y-11600000I237500J0D01*
G01*
G37*
G36*
G01*
X32762500Y-13425000D02*
X33237500Y-13425000D01*
G75*
G02*
X33475000Y-13662500I0J-237500D01*
G01*
X33475000Y-14162500D01*
G75*
G02*
X33237500Y-14400000I-237500J0D01*
G01*
X32762500Y-14400000D01*
G75*
G02*
X32525000Y-14162500I0J237500D01*
G01*
X32525000Y-13662500D01*
G75*
G02*
X32762500Y-13425000I237500J0D01*
G01*
G37*
G36*
G01*
X32762500Y-11600000D02*
X33237500Y-11600000D01*
G75*
G02*
X33475000Y-11837500I0J-237500D01*
G01*
X33475000Y-12337500D01*
G75*
G02*
X33237500Y-12575000I-237500J0D01*
G01*
X32762500Y-12575000D01*
G75*
G02*
X32525000Y-12337500I0J237500D01*
G01*
X32525000Y-11837500D01*
G75*
G02*
X32762500Y-11600000I237500J0D01*
G01*
G37*
G36*
G01*
X29762500Y-16925000D02*
X30237500Y-16925000D01*
G75*
G02*
X30475000Y-17162500I0J-237500D01*
G01*
X30475000Y-17662500D01*
G75*
G02*
X30237500Y-17900000I-237500J0D01*
G01*
X29762500Y-17900000D01*
G75*
G02*
X29525000Y-17662500I0J237500D01*
G01*
X29525000Y-17162500D01*
G75*
G02*
X29762500Y-16925000I237500J0D01*
G01*
G37*
G36*
G01*
X29762500Y-15100000D02*
X30237500Y-15100000D01*
G75*
G02*
X30475000Y-15337500I0J-237500D01*
G01*
X30475000Y-15837500D01*
G75*
G02*
X30237500Y-16075000I-237500J0D01*
G01*
X29762500Y-16075000D01*
G75*
G02*
X29525000Y-15837500I0J237500D01*
G01*
X29525000Y-15337500D01*
G75*
G02*
X29762500Y-15100000I237500J0D01*
G01*
G37*
G36*
G01*
X32425000Y-6737500D02*
X32425000Y-6262500D01*
G75*
G02*
X32662500Y-6025000I237500J0D01*
G01*
X33162500Y-6025000D01*
G75*
G02*
X33400000Y-6262500I0J-237500D01*
G01*
X33400000Y-6737500D01*
G75*
G02*
X33162500Y-6975000I-237500J0D01*
G01*
X32662500Y-6975000D01*
G75*
G02*
X32425000Y-6737500I0J237500D01*
G01*
G37*
G36*
G01*
X30600000Y-6737500D02*
X30600000Y-6262500D01*
G75*
G02*
X30837500Y-6025000I237500J0D01*
G01*
X31337500Y-6025000D01*
G75*
G02*
X31575000Y-6262500I0J-237500D01*
G01*
X31575000Y-6737500D01*
G75*
G02*
X31337500Y-6975000I-237500J0D01*
G01*
X30837500Y-6975000D01*
G75*
G02*
X30600000Y-6737500I0J237500D01*
G01*
G37*
G36*
G01*
X32425000Y-4237500D02*
X32425000Y-3762500D01*
G75*
G02*
X32662500Y-3525000I237500J0D01*
G01*
X33162500Y-3525000D01*
G75*
G02*
X33400000Y-3762500I0J-237500D01*
G01*
X33400000Y-4237500D01*
G75*
G02*
X33162500Y-4475000I-237500J0D01*
G01*
X32662500Y-4475000D01*
G75*
G02*
X32425000Y-4237500I0J237500D01*
G01*
G37*
G36*
G01*
X30600000Y-4237500D02*
X30600000Y-3762500D01*
G75*
G02*
X30837500Y-3525000I237500J0D01*
G01*
X31337500Y-3525000D01*
G75*
G02*
X31575000Y-3762500I0J-237500D01*
G01*
X31575000Y-4237500D01*
G75*
G02*
X31337500Y-4475000I-237500J0D01*
G01*
X30837500Y-4475000D01*
G75*
G02*
X30600000Y-4237500I0J237500D01*
G01*
G37*
G36*
G01*
X12925000Y-15237500D02*
X12925000Y-14762500D01*
G75*
G02*
X13162500Y-14525000I237500J0D01*
G01*
X13662500Y-14525000D01*
G75*
G02*
X13900000Y-14762500I0J-237500D01*
G01*
X13900000Y-15237500D01*
G75*
G02*
X13662500Y-15475000I-237500J0D01*
G01*
X13162500Y-15475000D01*
G75*
G02*
X12925000Y-15237500I0J237500D01*
G01*
G37*
G36*
G01*
X11100000Y-15237500D02*
X11100000Y-14762500D01*
G75*
G02*
X11337500Y-14525000I237500J0D01*
G01*
X11837500Y-14525000D01*
G75*
G02*
X12075000Y-14762500I0J-237500D01*
G01*
X12075000Y-15237500D01*
G75*
G02*
X11837500Y-15475000I-237500J0D01*
G01*
X11337500Y-15475000D01*
G75*
G02*
X11100000Y-15237500I0J237500D01*
G01*
G37*
G36*
G01*
X12925000Y-13237500D02*
X12925000Y-12762500D01*
G75*
G02*
X13162500Y-12525000I237500J0D01*
G01*
X13662500Y-12525000D01*
G75*
G02*
X13900000Y-12762500I0J-237500D01*
G01*
X13900000Y-13237500D01*
G75*
G02*
X13662500Y-13475000I-237500J0D01*
G01*
X13162500Y-13475000D01*
G75*
G02*
X12925000Y-13237500I0J237500D01*
G01*
G37*
G36*
G01*
X11100000Y-13237500D02*
X11100000Y-12762500D01*
G75*
G02*
X11337500Y-12525000I237500J0D01*
G01*
X11837500Y-12525000D01*
G75*
G02*
X12075000Y-12762500I0J-237500D01*
G01*
X12075000Y-13237500D01*
G75*
G02*
X11837500Y-13475000I-237500J0D01*
G01*
X11337500Y-13475000D01*
G75*
G02*
X11100000Y-13237500I0J237500D01*
G01*
G37*
G36*
G01*
X12925000Y-17237500D02*
X12925000Y-16762500D01*
G75*
G02*
X13162500Y-16525000I237500J0D01*
G01*
X13662500Y-16525000D01*
G75*
G02*
X13900000Y-16762500I0J-237500D01*
G01*
X13900000Y-17237500D01*
G75*
G02*
X13662500Y-17475000I-237500J0D01*
G01*
X13162500Y-17475000D01*
G75*
G02*
X12925000Y-17237500I0J237500D01*
G01*
G37*
G36*
G01*
X11100000Y-17237500D02*
X11100000Y-16762500D01*
G75*
G02*
X11337500Y-16525000I237500J0D01*
G01*
X11837500Y-16525000D01*
G75*
G02*
X12075000Y-16762500I0J-237500D01*
G01*
X12075000Y-17237500D01*
G75*
G02*
X11837500Y-17475000I-237500J0D01*
G01*
X11337500Y-17475000D01*
G75*
G02*
X11100000Y-17237500I0J237500D01*
G01*
G37*
G36*
G01*
X22425000Y-10737500D02*
X22425000Y-10262500D01*
G75*
G02*
X22662500Y-10025000I237500J0D01*
G01*
X23162500Y-10025000D01*
G75*
G02*
X23400000Y-10262500I0J-237500D01*
G01*
X23400000Y-10737500D01*
G75*
G02*
X23162500Y-10975000I-237500J0D01*
G01*
X22662500Y-10975000D01*
G75*
G02*
X22425000Y-10737500I0J237500D01*
G01*
G37*
G36*
G01*
X20600000Y-10737500D02*
X20600000Y-10262500D01*
G75*
G02*
X20837500Y-10025000I237500J0D01*
G01*
X21337500Y-10025000D01*
G75*
G02*
X21575000Y-10262500I0J-237500D01*
G01*
X21575000Y-10737500D01*
G75*
G02*
X21337500Y-10975000I-237500J0D01*
G01*
X20837500Y-10975000D01*
G75*
G02*
X20600000Y-10737500I0J237500D01*
G01*
G37*
G36*
G01*
X32425000Y-1737500D02*
X32425000Y-1262500D01*
G75*
G02*
X32662500Y-1025000I237500J0D01*
G01*
X33162500Y-1025000D01*
G75*
G02*
X33400000Y-1262500I0J-237500D01*
G01*
X33400000Y-1737500D01*
G75*
G02*
X33162500Y-1975000I-237500J0D01*
G01*
X32662500Y-1975000D01*
G75*
G02*
X32425000Y-1737500I0J237500D01*
G01*
G37*
G36*
G01*
X30600000Y-1737500D02*
X30600000Y-1262500D01*
G75*
G02*
X30837500Y-1025000I237500J0D01*
G01*
X31337500Y-1025000D01*
G75*
G02*
X31575000Y-1262500I0J-237500D01*
G01*
X31575000Y-1737500D01*
G75*
G02*
X31337500Y-1975000I-237500J0D01*
G01*
X30837500Y-1975000D01*
G75*
G02*
X30600000Y-1737500I0J237500D01*
G01*
G37*
D17*
X26500000Y-12000000D03*
X27450000Y-14000000D03*
X25550000Y-14000000D03*
X26500000Y-15500000D03*
X27450000Y-17500000D03*
X25550000Y-17500000D03*
D18*
X7200000Y-2500000D03*
X1800000Y-2500000D03*
X7200000Y-17500000D03*
X1800000Y-17500000D03*
D19*
X39500000Y-5000000D03*
X39500000Y-7000000D03*
X39500000Y-9000000D03*
X39500000Y-11000000D03*
X39500000Y-13000000D03*
G36*
G01*
X40125001Y-15600000D02*
X38874999Y-15600000D01*
G75*
G02*
X38625000Y-15350001I0J249999D01*
G01*
X38625000Y-14649999D01*
G75*
G02*
X38874999Y-14400000I249999J0D01*
G01*
X40125001Y-14400000D01*
G75*
G02*
X40375000Y-14649999I0J-249999D01*
G01*
X40375000Y-15350001D01*
G75*
G02*
X40125001Y-15600000I-249999J0D01*
G01*
G37*
G36*
G01*
X27575000Y-6049999D02*
X27575000Y-6950001D01*
G75*
G02*
X27325001Y-7200000I-249999J0D01*
G01*
X26674999Y-7200000D01*
G75*
G02*
X26425000Y-6950001I0J249999D01*
G01*
X26425000Y-6049999D01*
G75*
G02*
X26674999Y-5800000I249999J0D01*
G01*
X27325001Y-5800000D01*
G75*
G02*
X27575000Y-6049999I0J-249999D01*
G01*
G37*
G36*
G01*
X29625000Y-6049999D02*
X29625000Y-6950001D01*
G75*
G02*
X29375001Y-7200000I-249999J0D01*
G01*
X28724999Y-7200000D01*
G75*
G02*
X28475000Y-6950001I0J249999D01*
G01*
X28475000Y-6049999D01*
G75*
G02*
X28724999Y-5800000I249999J0D01*
G01*
X29375001Y-5800000D01*
G75*
G02*
X29625000Y-6049999I0J-249999D01*
G01*
G37*
G36*
G01*
X27550000Y-3549999D02*
X27550000Y-4450001D01*
G75*
G02*
X27300001Y-4700000I-249999J0D01*
G01*
X26649999Y-4700000D01*
G75*
G02*
X26400000Y-4450001I0J249999D01*
G01*
X26400000Y-3549999D01*
G75*
G02*
X26649999Y-3300000I249999J0D01*
G01*
X27300001Y-3300000D01*
G75*
G02*
X27550000Y-3549999I0J-249999D01*
G01*
G37*
G36*
G01*
X29600000Y-3549999D02*
X29600000Y-4450001D01*
G75*
G02*
X29350001Y-4700000I-249999J0D01*
G01*
X28699999Y-4700000D01*
G75*
G02*
X28450000Y-4450001I0J249999D01*
G01*
X28450000Y-3549999D01*
G75*
G02*
X28699999Y-3300000I249999J0D01*
G01*
X29350001Y-3300000D01*
G75*
G02*
X29600000Y-3549999I0J-249999D01*
G01*
G37*
D20*
X11550000Y-8400000D03*
X13450000Y-8400000D03*
X13450000Y-10600000D03*
D21*
X11730000Y-10600000D03*
G36*
G01*
X27550000Y-1049999D02*
X27550000Y-1950001D01*
G75*
G02*
X27300001Y-2200000I-249999J0D01*
G01*
X26649999Y-2200000D01*
G75*
G02*
X26400000Y-1950001I0J249999D01*
G01*
X26400000Y-1049999D01*
G75*
G02*
X26649999Y-800000I249999J0D01*
G01*
X27300001Y-800000D01*
G75*
G02*
X27550000Y-1049999I0J-249999D01*
G01*
G37*
G36*
G01*
X29600000Y-1049999D02*
X29600000Y-1950001D01*
G75*
G02*
X29350001Y-2200000I-249999J0D01*
G01*
X28699999Y-2200000D01*
G75*
G02*
X28450000Y-1950001I0J249999D01*
G01*
X28450000Y-1049999D01*
G75*
G02*
X28699999Y-800000I249999J0D01*
G01*
X29350001Y-800000D01*
G75*
G02*
X29600000Y-1049999I0J-249999D01*
G01*
G37*
G36*
G01*
X11737500Y-4675000D02*
X11262500Y-4675000D01*
G75*
G02*
X11025000Y-4437500I0J237500D01*
G01*
X11025000Y-3837500D01*
G75*
G02*
X11262500Y-3600000I237500J0D01*
G01*
X11737500Y-3600000D01*
G75*
G02*
X11975000Y-3837500I0J-237500D01*
G01*
X11975000Y-4437500D01*
G75*
G02*
X11737500Y-4675000I-237500J0D01*
G01*
G37*
G36*
G01*
X11737500Y-6400000D02*
X11262500Y-6400000D01*
G75*
G02*
X11025000Y-6162500I0J237500D01*
G01*
X11025000Y-5562500D01*
G75*
G02*
X11262500Y-5325000I237500J0D01*
G01*
X11737500Y-5325000D01*
G75*
G02*
X11975000Y-5562500I0J-237500D01*
G01*
X11975000Y-6162500D01*
G75*
G02*
X11737500Y-6400000I-237500J0D01*
G01*
G37*
G36*
G01*
X17675000Y-10262500D02*
X17675000Y-10737500D01*
G75*
G02*
X17437500Y-10975000I-237500J0D01*
G01*
X16837500Y-10975000D01*
G75*
G02*
X16600000Y-10737500I0J237500D01*
G01*
X16600000Y-10262500D01*
G75*
G02*
X16837500Y-10025000I237500J0D01*
G01*
X17437500Y-10025000D01*
G75*
G02*
X17675000Y-10262500I0J-237500D01*
G01*
G37*
G36*
G01*
X19400000Y-10262500D02*
X19400000Y-10737500D01*
G75*
G02*
X19162500Y-10975000I-237500J0D01*
G01*
X18562500Y-10975000D01*
G75*
G02*
X18325000Y-10737500I0J237500D01*
G01*
X18325000Y-10262500D01*
G75*
G02*
X18562500Y-10025000I237500J0D01*
G01*
X19162500Y-10025000D01*
G75*
G02*
X19400000Y-10262500I0J-237500D01*
G01*
G37*
G36*
G01*
X28650000Y-9925001D02*
X28650000Y-9074999D01*
G75*
G02*
X28899999Y-8825000I249999J0D01*
G01*
X29800001Y-8825000D01*
G75*
G02*
X30050000Y-9074999I0J-249999D01*
G01*
X30050000Y-9925001D01*
G75*
G02*
X29800001Y-10175000I-249999J0D01*
G01*
X28899999Y-10175000D01*
G75*
G02*
X28650000Y-9925001I0J249999D01*
G01*
G37*
G36*
G01*
X25950000Y-9925001D02*
X25950000Y-9074999D01*
G75*
G02*
X26199999Y-8825000I249999J0D01*
G01*
X27100001Y-8825000D01*
G75*
G02*
X27350000Y-9074999I0J-249999D01*
G01*
X27350000Y-9925001D01*
G75*
G02*
X27100001Y-10175000I-249999J0D01*
G01*
X26199999Y-10175000D01*
G75*
G02*
X25950000Y-9925001I0J249999D01*
G01*
G37*
G36*
G01*
X14425001Y-3850000D02*
X13574999Y-3850000D01*
G75*
G02*
X13325000Y-3600001I0J249999D01*
G01*
X13325000Y-2699999D01*
G75*
G02*
X13574999Y-2450000I249999J0D01*
G01*
X14425001Y-2450000D01*
G75*
G02*
X14675000Y-2699999I0J-249999D01*
G01*
X14675000Y-3600001D01*
G75*
G02*
X14425001Y-3850000I-249999J0D01*
G01*
G37*
G36*
G01*
X14425001Y-6550000D02*
X13574999Y-6550000D01*
G75*
G02*
X13325000Y-6300001I0J249999D01*
G01*
X13325000Y-5399999D01*
G75*
G02*
X13574999Y-5150000I249999J0D01*
G01*
X14425001Y-5150000D01*
G75*
G02*
X14675000Y-5399999I0J-249999D01*
G01*
X14675000Y-6300001D01*
G75*
G02*
X14425001Y-6550000I-249999J0D01*
G01*
G37*
M02*
