G04 #@! TF.GenerationSoftware,KiCad,Pcbnew,(5.1.7-0-10_14)*
G04 #@! TF.CreationDate,2021-07-20T14:06:07+09:00*
G04 #@! TF.ProjectId,esp_flasher,6573705f-666c-4617-9368-65722e6b6963,rev?*
G04 #@! TF.SameCoordinates,Original*
G04 #@! TF.FileFunction,Legend,Bot*
G04 #@! TF.FilePolarity,Positive*
%FSLAX46Y46*%
G04 Gerber Fmt 4.6, Leading zero omitted, Abs format (unit mm)*
G04 Created by KiCad (PCBNEW (5.1.7-0-10_14)) date 2021-07-20 14:06:07*
%MOMM*%
%LPD*%
G01*
G04 APERTURE LIST*
%ADD10C,0.150000*%
G04 APERTURE END LIST*
D10*
X41952380Y-4500000D02*
X40952380Y-4500000D01*
X41333333Y-4500000D02*
X41285714Y-4595238D01*
X41285714Y-4785714D01*
X41333333Y-4880952D01*
X41380952Y-4928571D01*
X41476190Y-4976190D01*
X41761904Y-4976190D01*
X41857142Y-4928571D01*
X41904761Y-4880952D01*
X41952380Y-4785714D01*
X41952380Y-4595238D01*
X41904761Y-4500000D01*
X41285714Y-5261904D02*
X41285714Y-5642857D01*
X40952380Y-5404761D02*
X41809523Y-5404761D01*
X41904761Y-5452380D01*
X41952380Y-5547619D01*
X41952380Y-5642857D01*
X41904761Y-6738095D02*
X41952380Y-6642857D01*
X41952380Y-6452380D01*
X41904761Y-6357142D01*
X41809523Y-6309523D01*
X41428571Y-6309523D01*
X41333333Y-6357142D01*
X41285714Y-6452380D01*
X41285714Y-6642857D01*
X41333333Y-6738095D01*
X41428571Y-6785714D01*
X41523809Y-6785714D01*
X41619047Y-6309523D01*
X41285714Y-7214285D02*
X41952380Y-7214285D01*
X41380952Y-7214285D02*
X41333333Y-7261904D01*
X41285714Y-7357142D01*
X41285714Y-7500000D01*
X41333333Y-7595238D01*
X41428571Y-7642857D01*
X41952380Y-7642857D01*
X41000000Y-9261904D02*
X40952380Y-9166666D01*
X40952380Y-9023809D01*
X41000000Y-8880952D01*
X41095238Y-8785714D01*
X41190476Y-8738095D01*
X41380952Y-8690476D01*
X41523809Y-8690476D01*
X41714285Y-8738095D01*
X41809523Y-8785714D01*
X41904761Y-8880952D01*
X41952380Y-9023809D01*
X41952380Y-9119047D01*
X41904761Y-9261904D01*
X41857142Y-9309523D01*
X41523809Y-9309523D01*
X41523809Y-9119047D01*
X41952380Y-10904761D02*
X41476190Y-10571428D01*
X41952380Y-10333333D02*
X40952380Y-10333333D01*
X40952380Y-10714285D01*
X41000000Y-10809523D01*
X41047619Y-10857142D01*
X41142857Y-10904761D01*
X41285714Y-10904761D01*
X41380952Y-10857142D01*
X41428571Y-10809523D01*
X41476190Y-10714285D01*
X41476190Y-10333333D01*
X41952380Y-11238095D02*
X41285714Y-11761904D01*
X41285714Y-11238095D02*
X41952380Y-11761904D01*
X40952380Y-12309523D02*
X40952380Y-12880952D01*
X41952380Y-12595238D02*
X40952380Y-12595238D01*
X41952380Y-13119047D02*
X41285714Y-13642857D01*
X41285714Y-13119047D02*
X41952380Y-13642857D01*
X40952380Y-14666666D02*
X41952380Y-15000000D01*
X40952380Y-15333333D01*
M02*
